StartChar: custom_2_7_0_0_0
Encoding: 28068 28068 8100
Width: 70
Flags: H
LayerCount: 2
Fore
SplineSet
23 43 m 1
 21 43 l 1
 21 41 l 1
 23 41 l 1
 23 43 l 1
26 43 m 1
 24 43 l 1
 24 41 l 1
 25 41 l 1
 25 42 l 1
 26 42 l 1
 26 43 l 1
27 42 m 1
 26 42 l 1
 26 41 l 1
 28 41 l 1
 28 43 l 1
 27 43 l 1
 27 42 l 1
31 43 m 1
 29 43 l 1
 29 41 l 1
 31 41 l 1
 31 43 l 1
31 39 m 1
 29 39 l 1
 29 37 l 1
 31 37 l 1
 31 39 l 1
31 35 m 1
 29 35 l 1
 29 33 l 1
 31 33 l 1
 31 35 l 1
36 37 m 1
 34 37 l 1
 34 35 l 1
 36 35 l 1
 36 37 l 1
31 31 m 1
 29 31 l 1
 29 29 l 1
 31 29 l 1
 31 31 l 1
36 33 m 1
 34 33 l 1
 34 31 l 1
 36 31 l 1
 36 33 l 1
41 43 m 1
 39 43 l 1
 39 41 l 1
 41 41 l 1
 41 43 l 1
44 43 m 1
 42 43 l 1
 42 41 l 1
 43 41 l 1
 43 42 l 1
 44 42 l 1
 44 43 l 1
46 43 m 1
 45 43 l 1
 45 42 l 1
 44 42 l 1
 44 41 l 1
 46 41 l 1
 46 43 l 1
49 43 m 1
 47 43 l 1
 47 41 l 1
 49 41 l 1
 49 43 l 1
49 39 m 1
 47 39 l 1
 47 37 l 1
 49 37 l 1
 49 39 l 1
41 35 m 1
 39 35 l 1
 39 33 l 1
 41 33 l 1
 41 35 l 1
43 35 m 1
 42 35 l 1
 42 33 l 1
 44 33 l 1
 44 34 l 1
 43 34 l 1
 43 35 l 1
41 31 m 1
 39 31 l 1
 39 29 l 1
 41 29 l 1
 41 31 l 1
46 35 m 1
 44 35 l 1
 44 34 l 1
 45 34 l 1
 45 33 l 1
 46 33 l 1
 46 35 l 1
49 35 m 1
 47 35 l 1
 47 33 l 1
 49 33 l 1
 49 35 l 1
55 43 m 1
 53 43 l 1
 53 41 l 1
 55 41 l 1
 55 43 l 1
58 43 m 1
 56 43 l 1
 56 41 l 1
 57 41 l 1
 57 42 l 1
 58 42 l 1
 58 43 l 1
59 42 m 1
 58 42 l 1
 58 41 l 1
 60 41 l 1
 60 43 l 1
 59 43 l 1
 59 42 l 1
63 43 m 1
 61 43 l 1
 61 41 l 1
 63 41 l 1
 63 43 l 1
63 39 m 1
 61 39 l 1
 61 37 l 1
 63 37 l 1
 63 39 l 1
63 35 m 1
 61 35 l 1
 61 33 l 1
 63 33 l 1
 63 35 l 1
63 31 m 1
 61 31 l 1
 61 29 l 1
 63 29 l 1
 63 31 l 1
31 27 m 1
 29 27 l 1
 29 25 l 1
 31 25 l 1
 31 27 l 1
41 27 m 1
 39 27 l 1
 39 25 l 1
 41 25 l 1
 41 27 l 1
44 27 m 1
 42 27 l 1
 42 25 l 1
 43 25 l 1
 43 26 l 1
 44 26 l 1
 44 27 l 1
46 27 m 1
 45 27 l 1
 45 26 l 1
 44 26 l 1
 44 25 l 1
 46 25 l 1
 46 27 l 1
49 27 m 1
 47 27 l 1
 47 25 l 1
 49 25 l 1
 49 27 l 1
63 27 m 1
 61 27 l 1
 61 25 l 1
 63 25 l 1
 63 27 l 1
EndSplineSet
EndChar

StartChar: custom_2_7_0_0_1
Encoding: 28069 28069 8101
Width: 70
Flags: H
LayerCount: 2
Fore
SplineSet
23 43 m 1
 21 43 l 1
 21 41 l 1
 23 41 l 1
 23 43 l 1
26 43 m 1
 24 43 l 1
 24 41 l 1
 25 41 l 1
 25 42 l 1
 26 42 l 1
 26 43 l 1
27 42 m 1
 26 42 l 1
 26 41 l 1
 28 41 l 1
 28 43 l 1
 27 43 l 1
 27 42 l 1
31 43 m 1
 29 43 l 1
 29 41 l 1
 31 41 l 1
 31 43 l 1
31 39 m 1
 29 39 l 1
 29 37 l 1
 31 37 l 1
 31 39 l 1
31 35 m 1
 29 35 l 1
 29 33 l 1
 31 33 l 1
 31 35 l 1
36 37 m 1
 34 37 l 1
 34 35 l 1
 36 35 l 1
 36 37 l 1
31 31 m 1
 29 31 l 1
 29 29 l 1
 31 29 l 1
 31 31 l 1
36 33 m 1
 34 33 l 1
 34 31 l 1
 36 31 l 1
 36 33 l 1
41 43 m 1
 39 43 l 1
 39 41 l 1
 41 41 l 1
 41 43 l 1
44 43 m 1
 42 43 l 1
 42 41 l 1
 43 41 l 1
 43 42 l 1
 44 42 l 1
 44 43 l 1
46 43 m 1
 45 43 l 1
 45 42 l 1
 44 42 l 1
 44 41 l 1
 46 41 l 1
 46 43 l 1
49 43 m 1
 47 43 l 1
 47 41 l 1
 49 41 l 1
 49 43 l 1
49 39 m 1
 47 39 l 1
 47 37 l 1
 49 37 l 1
 49 39 l 1
41 35 m 1
 39 35 l 1
 39 33 l 1
 41 33 l 1
 41 35 l 1
43 35 m 1
 42 35 l 1
 42 33 l 1
 44 33 l 1
 44 34 l 1
 43 34 l 1
 43 35 l 1
41 31 m 1
 39 31 l 1
 39 29 l 1
 41 29 l 1
 41 31 l 1
46 35 m 1
 44 35 l 1
 44 34 l 1
 45 34 l 1
 45 33 l 1
 46 33 l 1
 46 35 l 1
49 35 m 1
 47 35 l 1
 47 33 l 1
 49 33 l 1
 49 35 l 1
55 43 m 1
 53 43 l 1
 53 41 l 1
 55 41 l 1
 55 43 l 1
58 43 m 1
 56 43 l 1
 56 41 l 1
 57 41 l 1
 57 42 l 1
 58 42 l 1
 58 43 l 1
59 42 m 1
 58 42 l 1
 58 41 l 1
 60 41 l 1
 60 43 l 1
 59 43 l 1
 59 42 l 1
63 43 m 1
 61 43 l 1
 61 41 l 1
 63 41 l 1
 63 43 l 1
63 39 m 1
 61 39 l 1
 61 37 l 1
 63 37 l 1
 63 39 l 1
63 35 m 1
 61 35 l 1
 61 33 l 1
 63 33 l 1
 63 35 l 1
63 31 m 1
 61 31 l 1
 61 29 l 1
 63 29 l 1
 63 31 l 1
31 27 m 1
 29 27 l 1
 29 25 l 1
 31 25 l 1
 31 27 l 1
41 27 m 1
 39 27 l 1
 39 25 l 1
 41 25 l 1
 41 27 l 1
44 27 m 1
 42 27 l 1
 42 25 l 1
 43 25 l 1
 43 26 l 1
 44 26 l 1
 44 27 l 1
46 27 m 1
 45 27 l 1
 45 26 l 1
 44 26 l 1
 44 25 l 1
 46 25 l 1
 46 27 l 1
49 27 m 1
 47 27 l 1
 47 25 l 1
 49 25 l 1
 49 27 l 1
63 27 m 1
 61 27 l 1
 61 25 l 1
 63 25 l 1
 63 27 l 1
EndSplineSet
EndChar

StartChar: custom_2_7_0_0_2
Encoding: 28070 28070 8102
Width: 70
Flags: H
LayerCount: 2
Fore
SplineSet
23 43 m 1
 21 43 l 1
 21 41 l 1
 23 41 l 1
 23 43 l 1
26 43 m 1
 24 43 l 1
 24 41 l 1
 25 41 l 1
 25 42 l 1
 26 42 l 1
 26 43 l 1
27 42 m 1
 26 42 l 1
 26 41 l 1
 28 41 l 1
 28 43 l 1
 27 43 l 1
 27 42 l 1
31 43 m 1
 29 43 l 1
 29 41 l 1
 31 41 l 1
 31 43 l 1
31 39 m 1
 29 39 l 1
 29 37 l 1
 31 37 l 1
 31 39 l 1
31 35 m 1
 29 35 l 1
 29 33 l 1
 31 33 l 1
 31 35 l 1
36 37 m 1
 34 37 l 1
 34 35 l 1
 36 35 l 1
 36 37 l 1
31 31 m 1
 29 31 l 1
 29 29 l 1
 31 29 l 1
 31 31 l 1
36 33 m 1
 34 33 l 1
 34 31 l 1
 36 31 l 1
 36 33 l 1
41 43 m 1
 39 43 l 1
 39 41 l 1
 41 41 l 1
 41 43 l 1
44 43 m 1
 42 43 l 1
 42 41 l 1
 43 41 l 1
 43 42 l 1
 44 42 l 1
 44 43 l 1
46 43 m 1
 45 43 l 1
 45 42 l 1
 44 42 l 1
 44 41 l 1
 46 41 l 1
 46 43 l 1
49 43 m 1
 47 43 l 1
 47 41 l 1
 49 41 l 1
 49 43 l 1
49 39 m 1
 47 39 l 1
 47 37 l 1
 49 37 l 1
 49 39 l 1
41 35 m 1
 39 35 l 1
 39 33 l 1
 41 33 l 1
 41 35 l 1
43 35 m 1
 42 35 l 1
 42 33 l 1
 44 33 l 1
 44 34 l 1
 43 34 l 1
 43 35 l 1
41 31 m 1
 39 31 l 1
 39 29 l 1
 41 29 l 1
 41 31 l 1
46 35 m 1
 44 35 l 1
 44 34 l 1
 45 34 l 1
 45 33 l 1
 46 33 l 1
 46 35 l 1
49 35 m 1
 47 35 l 1
 47 33 l 1
 49 33 l 1
 49 35 l 1
55 43 m 1
 53 43 l 1
 53 41 l 1
 55 41 l 1
 55 43 l 1
58 43 m 1
 56 43 l 1
 56 41 l 1
 57 41 l 1
 57 42 l 1
 58 42 l 1
 58 43 l 1
59 42 m 1
 58 42 l 1
 58 41 l 1
 60 41 l 1
 60 43 l 1
 59 43 l 1
 59 42 l 1
63 43 m 1
 61 43 l 1
 61 41 l 1
 63 41 l 1
 63 43 l 1
63 39 m 1
 61 39 l 1
 61 37 l 1
 63 37 l 1
 63 39 l 1
63 35 m 1
 61 35 l 1
 61 33 l 1
 63 33 l 1
 63 35 l 1
63 31 m 1
 61 31 l 1
 61 29 l 1
 63 29 l 1
 63 31 l 1
31 27 m 1
 29 27 l 1
 29 25 l 1
 31 25 l 1
 31 27 l 1
41 27 m 1
 39 27 l 1
 39 25 l 1
 41 25 l 1
 41 27 l 1
44 27 m 1
 42 27 l 1
 42 25 l 1
 43 25 l 1
 43 26 l 1
 44 26 l 1
 44 27 l 1
46 27 m 1
 45 27 l 1
 45 26 l 1
 44 26 l 1
 44 25 l 1
 46 25 l 1
 46 27 l 1
49 27 m 1
 47 27 l 1
 47 25 l 1
 49 25 l 1
 49 27 l 1
63 27 m 1
 61 27 l 1
 61 25 l 1
 63 25 l 1
 63 27 l 1
EndSplineSet
EndChar

StartChar: custom_2_7_0_0_3
Encoding: 28071 28071 8103
Width: 70
Flags: H
LayerCount: 2
Fore
SplineSet
23 43 m 1
 21 43 l 1
 21 41 l 1
 23 41 l 1
 23 43 l 1
26 43 m 1
 24 43 l 1
 24 41 l 1
 25 41 l 1
 25 42 l 1
 26 42 l 1
 26 43 l 1
27 42 m 1
 26 42 l 1
 26 41 l 1
 28 41 l 1
 28 43 l 1
 27 43 l 1
 27 42 l 1
31 43 m 1
 29 43 l 1
 29 41 l 1
 31 41 l 1
 31 43 l 1
31 39 m 1
 29 39 l 1
 29 37 l 1
 31 37 l 1
 31 39 l 1
31 35 m 1
 29 35 l 1
 29 33 l 1
 31 33 l 1
 31 35 l 1
36 37 m 1
 34 37 l 1
 34 35 l 1
 36 35 l 1
 36 37 l 1
31 31 m 1
 29 31 l 1
 29 29 l 1
 31 29 l 1
 31 31 l 1
36 33 m 1
 34 33 l 1
 34 31 l 1
 36 31 l 1
 36 33 l 1
41 43 m 1
 39 43 l 1
 39 41 l 1
 41 41 l 1
 41 43 l 1
44 43 m 1
 42 43 l 1
 42 41 l 1
 43 41 l 1
 43 42 l 1
 44 42 l 1
 44 43 l 1
46 43 m 1
 45 43 l 1
 45 42 l 1
 44 42 l 1
 44 41 l 1
 46 41 l 1
 46 43 l 1
49 43 m 1
 47 43 l 1
 47 41 l 1
 49 41 l 1
 49 43 l 1
49 39 m 1
 47 39 l 1
 47 37 l 1
 49 37 l 1
 49 39 l 1
41 35 m 1
 39 35 l 1
 39 33 l 1
 41 33 l 1
 41 35 l 1
43 35 m 1
 42 35 l 1
 42 33 l 1
 44 33 l 1
 44 34 l 1
 43 34 l 1
 43 35 l 1
41 31 m 1
 39 31 l 1
 39 29 l 1
 41 29 l 1
 41 31 l 1
46 35 m 1
 44 35 l 1
 44 34 l 1
 45 34 l 1
 45 33 l 1
 46 33 l 1
 46 35 l 1
49 35 m 1
 47 35 l 1
 47 33 l 1
 49 33 l 1
 49 35 l 1
55 43 m 1
 53 43 l 1
 53 41 l 1
 55 41 l 1
 55 43 l 1
58 43 m 1
 56 43 l 1
 56 41 l 1
 57 41 l 1
 57 42 l 1
 58 42 l 1
 58 43 l 1
59 42 m 1
 58 42 l 1
 58 41 l 1
 60 41 l 1
 60 43 l 1
 59 43 l 1
 59 42 l 1
63 43 m 1
 61 43 l 1
 61 41 l 1
 63 41 l 1
 63 43 l 1
63 39 m 1
 61 39 l 1
 61 37 l 1
 63 37 l 1
 63 39 l 1
63 35 m 1
 61 35 l 1
 61 33 l 1
 63 33 l 1
 63 35 l 1
63 31 m 1
 61 31 l 1
 61 29 l 1
 63 29 l 1
 63 31 l 1
31 27 m 1
 29 27 l 1
 29 25 l 1
 31 25 l 1
 31 27 l 1
41 27 m 1
 39 27 l 1
 39 25 l 1
 41 25 l 1
 41 27 l 1
44 27 m 1
 42 27 l 1
 42 25 l 1
 43 25 l 1
 43 26 l 1
 44 26 l 1
 44 27 l 1
46 27 m 1
 45 27 l 1
 45 26 l 1
 44 26 l 1
 44 25 l 1
 46 25 l 1
 46 27 l 1
49 27 m 1
 47 27 l 1
 47 25 l 1
 49 25 l 1
 49 27 l 1
63 27 m 1
 61 27 l 1
 61 25 l 1
 63 25 l 1
 63 27 l 1
EndSplineSet
EndChar

StartChar: custom_2_7_0_0_4
Encoding: 28072 28072 8104
Width: 70
Flags: H
LayerCount: 2
Fore
SplineSet
23 43 m 1
 21 43 l 1
 21 41 l 1
 23 41 l 1
 23 43 l 1
26 43 m 1
 24 43 l 1
 24 41 l 1
 25 41 l 1
 25 42 l 1
 26 42 l 1
 26 43 l 1
27 42 m 1
 26 42 l 1
 26 41 l 1
 28 41 l 1
 28 43 l 1
 27 43 l 1
 27 42 l 1
31 43 m 1
 29 43 l 1
 29 41 l 1
 31 41 l 1
 31 43 l 1
31 39 m 1
 29 39 l 1
 29 37 l 1
 31 37 l 1
 31 39 l 1
31 35 m 1
 29 35 l 1
 29 33 l 1
 31 33 l 1
 31 35 l 1
36 37 m 1
 34 37 l 1
 34 35 l 1
 36 35 l 1
 36 37 l 1
31 31 m 1
 29 31 l 1
 29 29 l 1
 31 29 l 1
 31 31 l 1
36 33 m 1
 34 33 l 1
 34 31 l 1
 36 31 l 1
 36 33 l 1
41 43 m 1
 39 43 l 1
 39 41 l 1
 41 41 l 1
 41 43 l 1
44 43 m 1
 42 43 l 1
 42 41 l 1
 43 41 l 1
 43 42 l 1
 44 42 l 1
 44 43 l 1
46 43 m 1
 45 43 l 1
 45 42 l 1
 44 42 l 1
 44 41 l 1
 46 41 l 1
 46 43 l 1
49 43 m 1
 47 43 l 1
 47 41 l 1
 49 41 l 1
 49 43 l 1
49 39 m 1
 47 39 l 1
 47 37 l 1
 49 37 l 1
 49 39 l 1
41 35 m 1
 39 35 l 1
 39 33 l 1
 41 33 l 1
 41 35 l 1
43 35 m 1
 42 35 l 1
 42 33 l 1
 44 33 l 1
 44 34 l 1
 43 34 l 1
 43 35 l 1
41 31 m 1
 39 31 l 1
 39 29 l 1
 41 29 l 1
 41 31 l 1
46 35 m 1
 44 35 l 1
 44 34 l 1
 45 34 l 1
 45 33 l 1
 46 33 l 1
 46 35 l 1
49 35 m 1
 47 35 l 1
 47 33 l 1
 49 33 l 1
 49 35 l 1
55 43 m 1
 53 43 l 1
 53 41 l 1
 55 41 l 1
 55 43 l 1
58 43 m 1
 56 43 l 1
 56 41 l 1
 57 41 l 1
 57 42 l 1
 58 42 l 1
 58 43 l 1
59 42 m 1
 58 42 l 1
 58 41 l 1
 60 41 l 1
 60 43 l 1
 59 43 l 1
 59 42 l 1
63 43 m 1
 61 43 l 1
 61 41 l 1
 63 41 l 1
 63 43 l 1
63 39 m 1
 61 39 l 1
 61 37 l 1
 63 37 l 1
 63 39 l 1
63 35 m 1
 61 35 l 1
 61 33 l 1
 63 33 l 1
 63 35 l 1
63 31 m 1
 61 31 l 1
 61 29 l 1
 63 29 l 1
 63 31 l 1
31 27 m 1
 29 27 l 1
 29 25 l 1
 31 25 l 1
 31 27 l 1
41 27 m 1
 39 27 l 1
 39 25 l 1
 41 25 l 1
 41 27 l 1
44 27 m 1
 42 27 l 1
 42 25 l 1
 43 25 l 1
 43 26 l 1
 44 26 l 1
 44 27 l 1
46 27 m 1
 45 27 l 1
 45 26 l 1
 44 26 l 1
 44 25 l 1
 46 25 l 1
 46 27 l 1
49 27 m 1
 47 27 l 1
 47 25 l 1
 49 25 l 1
 49 27 l 1
63 27 m 1
 61 27 l 1
 61 25 l 1
 63 25 l 1
 63 27 l 1
EndSplineSet
EndChar

StartChar: custom_2_7_0_0_5
Encoding: 28073 28073 8105
Width: 70
Flags: H
LayerCount: 2
Fore
SplineSet
23 43 m 1
 21 43 l 1
 21 41 l 1
 23 41 l 1
 23 43 l 1
26 43 m 1
 24 43 l 1
 24 41 l 1
 25 41 l 1
 25 42 l 1
 26 42 l 1
 26 43 l 1
27 42 m 1
 26 42 l 1
 26 41 l 1
 28 41 l 1
 28 43 l 1
 27 43 l 1
 27 42 l 1
31 43 m 1
 29 43 l 1
 29 41 l 1
 31 41 l 1
 31 43 l 1
31 39 m 1
 29 39 l 1
 29 37 l 1
 31 37 l 1
 31 39 l 1
31 35 m 1
 29 35 l 1
 29 33 l 1
 31 33 l 1
 31 35 l 1
36 37 m 1
 34 37 l 1
 34 35 l 1
 36 35 l 1
 36 37 l 1
31 31 m 1
 29 31 l 1
 29 29 l 1
 31 29 l 1
 31 31 l 1
36 33 m 1
 34 33 l 1
 34 31 l 1
 36 31 l 1
 36 33 l 1
41 43 m 1
 39 43 l 1
 39 41 l 1
 41 41 l 1
 41 43 l 1
44 43 m 1
 42 43 l 1
 42 41 l 1
 43 41 l 1
 43 42 l 1
 44 42 l 1
 44 43 l 1
46 43 m 1
 45 43 l 1
 45 42 l 1
 44 42 l 1
 44 41 l 1
 46 41 l 1
 46 43 l 1
49 43 m 1
 47 43 l 1
 47 41 l 1
 49 41 l 1
 49 43 l 1
49 39 m 1
 47 39 l 1
 47 37 l 1
 49 37 l 1
 49 39 l 1
41 35 m 1
 39 35 l 1
 39 33 l 1
 41 33 l 1
 41 35 l 1
43 35 m 1
 42 35 l 1
 42 33 l 1
 44 33 l 1
 44 34 l 1
 43 34 l 1
 43 35 l 1
41 31 m 1
 39 31 l 1
 39 29 l 1
 41 29 l 1
 41 31 l 1
46 35 m 1
 44 35 l 1
 44 34 l 1
 45 34 l 1
 45 33 l 1
 46 33 l 1
 46 35 l 1
49 35 m 1
 47 35 l 1
 47 33 l 1
 49 33 l 1
 49 35 l 1
55 43 m 1
 53 43 l 1
 53 41 l 1
 55 41 l 1
 55 43 l 1
58 43 m 1
 56 43 l 1
 56 41 l 1
 57 41 l 1
 57 42 l 1
 58 42 l 1
 58 43 l 1
59 42 m 1
 58 42 l 1
 58 41 l 1
 60 41 l 1
 60 43 l 1
 59 43 l 1
 59 42 l 1
63 43 m 1
 61 43 l 1
 61 41 l 1
 63 41 l 1
 63 43 l 1
63 39 m 1
 61 39 l 1
 61 37 l 1
 63 37 l 1
 63 39 l 1
63 35 m 1
 61 35 l 1
 61 33 l 1
 63 33 l 1
 63 35 l 1
63 31 m 1
 61 31 l 1
 61 29 l 1
 63 29 l 1
 63 31 l 1
31 27 m 1
 29 27 l 1
 29 25 l 1
 31 25 l 1
 31 27 l 1
41 27 m 1
 39 27 l 1
 39 25 l 1
 41 25 l 1
 41 27 l 1
44 27 m 1
 42 27 l 1
 42 25 l 1
 43 25 l 1
 43 26 l 1
 44 26 l 1
 44 27 l 1
46 27 m 1
 45 27 l 1
 45 26 l 1
 44 26 l 1
 44 25 l 1
 46 25 l 1
 46 27 l 1
49 27 m 1
 47 27 l 1
 47 25 l 1
 49 25 l 1
 49 27 l 1
63 27 m 1
 61 27 l 1
 61 25 l 1
 63 25 l 1
 63 27 l 1
EndSplineSet
EndChar

StartChar: custom_2_7_0_0_6
Encoding: 28074 28074 8106
Width: 70
Flags: H
LayerCount: 2
Fore
SplineSet
23 43 m 1
 21 43 l 1
 21 41 l 1
 23 41 l 1
 23 43 l 1
26 43 m 1
 24 43 l 1
 24 41 l 1
 25 41 l 1
 25 42 l 1
 26 42 l 1
 26 43 l 1
27 42 m 1
 26 42 l 1
 26 41 l 1
 28 41 l 1
 28 43 l 1
 27 43 l 1
 27 42 l 1
31 43 m 1
 29 43 l 1
 29 41 l 1
 31 41 l 1
 31 43 l 1
31 39 m 1
 29 39 l 1
 29 37 l 1
 31 37 l 1
 31 39 l 1
31 35 m 1
 29 35 l 1
 29 33 l 1
 31 33 l 1
 31 35 l 1
36 37 m 1
 34 37 l 1
 34 35 l 1
 36 35 l 1
 36 37 l 1
31 31 m 1
 29 31 l 1
 29 29 l 1
 31 29 l 1
 31 31 l 1
36 33 m 1
 34 33 l 1
 34 31 l 1
 36 31 l 1
 36 33 l 1
41 43 m 1
 39 43 l 1
 39 41 l 1
 41 41 l 1
 41 43 l 1
44 43 m 1
 42 43 l 1
 42 41 l 1
 43 41 l 1
 43 42 l 1
 44 42 l 1
 44 43 l 1
46 43 m 1
 45 43 l 1
 45 42 l 1
 44 42 l 1
 44 41 l 1
 46 41 l 1
 46 43 l 1
49 43 m 1
 47 43 l 1
 47 41 l 1
 49 41 l 1
 49 43 l 1
49 39 m 1
 47 39 l 1
 47 37 l 1
 49 37 l 1
 49 39 l 1
41 35 m 1
 39 35 l 1
 39 33 l 1
 41 33 l 1
 41 35 l 1
43 35 m 1
 42 35 l 1
 42 33 l 1
 44 33 l 1
 44 34 l 1
 43 34 l 1
 43 35 l 1
41 31 m 1
 39 31 l 1
 39 29 l 1
 41 29 l 1
 41 31 l 1
46 35 m 1
 44 35 l 1
 44 34 l 1
 45 34 l 1
 45 33 l 1
 46 33 l 1
 46 35 l 1
49 35 m 1
 47 35 l 1
 47 33 l 1
 49 33 l 1
 49 35 l 1
55 43 m 1
 53 43 l 1
 53 41 l 1
 55 41 l 1
 55 43 l 1
58 43 m 1
 56 43 l 1
 56 41 l 1
 57 41 l 1
 57 42 l 1
 58 42 l 1
 58 43 l 1
59 42 m 1
 58 42 l 1
 58 41 l 1
 60 41 l 1
 60 43 l 1
 59 43 l 1
 59 42 l 1
63 43 m 1
 61 43 l 1
 61 41 l 1
 63 41 l 1
 63 43 l 1
63 39 m 1
 61 39 l 1
 61 37 l 1
 63 37 l 1
 63 39 l 1
63 35 m 1
 61 35 l 1
 61 33 l 1
 63 33 l 1
 63 35 l 1
63 31 m 1
 61 31 l 1
 61 29 l 1
 63 29 l 1
 63 31 l 1
31 27 m 1
 29 27 l 1
 29 25 l 1
 31 25 l 1
 31 27 l 1
41 27 m 1
 39 27 l 1
 39 25 l 1
 41 25 l 1
 41 27 l 1
44 27 m 1
 42 27 l 1
 42 25 l 1
 43 25 l 1
 43 26 l 1
 44 26 l 1
 44 27 l 1
46 27 m 1
 45 27 l 1
 45 26 l 1
 44 26 l 1
 44 25 l 1
 46 25 l 1
 46 27 l 1
49 27 m 1
 47 27 l 1
 47 25 l 1
 49 25 l 1
 49 27 l 1
63 27 m 1
 61 27 l 1
 61 25 l 1
 63 25 l 1
 63 27 l 1
EndSplineSet
EndChar

StartChar: custom_2_7_0_0_7
Encoding: 28075 28075 8107
Width: 70
Flags: H
LayerCount: 2
Fore
SplineSet
23 43 m 1
 21 43 l 1
 21 41 l 1
 23 41 l 1
 23 43 l 1
26 43 m 1
 24 43 l 1
 24 41 l 1
 25 41 l 1
 25 42 l 1
 26 42 l 1
 26 43 l 1
27 42 m 1
 26 42 l 1
 26 41 l 1
 28 41 l 1
 28 43 l 1
 27 43 l 1
 27 42 l 1
31 43 m 1
 29 43 l 1
 29 41 l 1
 31 41 l 1
 31 43 l 1
31 39 m 1
 29 39 l 1
 29 37 l 1
 31 37 l 1
 31 39 l 1
31 35 m 1
 29 35 l 1
 29 33 l 1
 31 33 l 1
 31 35 l 1
36 37 m 1
 34 37 l 1
 34 35 l 1
 36 35 l 1
 36 37 l 1
31 31 m 1
 29 31 l 1
 29 29 l 1
 31 29 l 1
 31 31 l 1
36 33 m 1
 34 33 l 1
 34 31 l 1
 36 31 l 1
 36 33 l 1
41 43 m 1
 39 43 l 1
 39 41 l 1
 41 41 l 1
 41 43 l 1
44 43 m 1
 42 43 l 1
 42 41 l 1
 43 41 l 1
 43 42 l 1
 44 42 l 1
 44 43 l 1
46 43 m 1
 45 43 l 1
 45 42 l 1
 44 42 l 1
 44 41 l 1
 46 41 l 1
 46 43 l 1
49 43 m 1
 47 43 l 1
 47 41 l 1
 49 41 l 1
 49 43 l 1
49 39 m 1
 47 39 l 1
 47 37 l 1
 49 37 l 1
 49 39 l 1
41 35 m 1
 39 35 l 1
 39 33 l 1
 41 33 l 1
 41 35 l 1
43 35 m 1
 42 35 l 1
 42 33 l 1
 44 33 l 1
 44 34 l 1
 43 34 l 1
 43 35 l 1
41 31 m 1
 39 31 l 1
 39 29 l 1
 41 29 l 1
 41 31 l 1
46 35 m 1
 44 35 l 1
 44 34 l 1
 45 34 l 1
 45 33 l 1
 46 33 l 1
 46 35 l 1
49 35 m 1
 47 35 l 1
 47 33 l 1
 49 33 l 1
 49 35 l 1
55 43 m 1
 53 43 l 1
 53 41 l 1
 55 41 l 1
 55 43 l 1
58 43 m 1
 56 43 l 1
 56 41 l 1
 57 41 l 1
 57 42 l 1
 58 42 l 1
 58 43 l 1
59 42 m 1
 58 42 l 1
 58 41 l 1
 60 41 l 1
 60 43 l 1
 59 43 l 1
 59 42 l 1
63 43 m 1
 61 43 l 1
 61 41 l 1
 63 41 l 1
 63 43 l 1
63 39 m 1
 61 39 l 1
 61 37 l 1
 63 37 l 1
 63 39 l 1
63 35 m 1
 61 35 l 1
 61 33 l 1
 63 33 l 1
 63 35 l 1
63 31 m 1
 61 31 l 1
 61 29 l 1
 63 29 l 1
 63 31 l 1
31 27 m 1
 29 27 l 1
 29 25 l 1
 31 25 l 1
 31 27 l 1
41 27 m 1
 39 27 l 1
 39 25 l 1
 41 25 l 1
 41 27 l 1
44 27 m 1
 42 27 l 1
 42 25 l 1
 43 25 l 1
 43 26 l 1
 44 26 l 1
 44 27 l 1
46 27 m 1
 45 27 l 1
 45 26 l 1
 44 26 l 1
 44 25 l 1
 46 25 l 1
 46 27 l 1
49 27 m 1
 47 27 l 1
 47 25 l 1
 49 25 l 1
 49 27 l 1
63 27 m 1
 61 27 l 1
 61 25 l 1
 63 25 l 1
 63 27 l 1
EndSplineSet
EndChar

StartChar: custom_2_7_0_0_8
Encoding: 28076 28076 8108
Width: 70
Flags: H
LayerCount: 2
Fore
SplineSet
23 43 m 1
 21 43 l 1
 21 41 l 1
 23 41 l 1
 23 43 l 1
26 43 m 1
 24 43 l 1
 24 41 l 1
 25 41 l 1
 25 42 l 1
 26 42 l 1
 26 43 l 1
27 42 m 1
 26 42 l 1
 26 41 l 1
 28 41 l 1
 28 43 l 1
 27 43 l 1
 27 42 l 1
31 43 m 1
 29 43 l 1
 29 41 l 1
 31 41 l 1
 31 43 l 1
31 39 m 1
 29 39 l 1
 29 37 l 1
 31 37 l 1
 31 39 l 1
31 35 m 1
 29 35 l 1
 29 33 l 1
 31 33 l 1
 31 35 l 1
36 37 m 1
 34 37 l 1
 34 35 l 1
 36 35 l 1
 36 37 l 1
31 31 m 1
 29 31 l 1
 29 29 l 1
 31 29 l 1
 31 31 l 1
36 33 m 1
 34 33 l 1
 34 31 l 1
 36 31 l 1
 36 33 l 1
41 43 m 1
 39 43 l 1
 39 41 l 1
 41 41 l 1
 41 43 l 1
44 43 m 1
 42 43 l 1
 42 41 l 1
 43 41 l 1
 43 42 l 1
 44 42 l 1
 44 43 l 1
46 43 m 1
 45 43 l 1
 45 42 l 1
 44 42 l 1
 44 41 l 1
 46 41 l 1
 46 43 l 1
49 43 m 1
 47 43 l 1
 47 41 l 1
 49 41 l 1
 49 43 l 1
49 39 m 1
 47 39 l 1
 47 37 l 1
 49 37 l 1
 49 39 l 1
41 35 m 1
 39 35 l 1
 39 33 l 1
 41 33 l 1
 41 35 l 1
43 35 m 1
 42 35 l 1
 42 33 l 1
 44 33 l 1
 44 34 l 1
 43 34 l 1
 43 35 l 1
41 31 m 1
 39 31 l 1
 39 29 l 1
 41 29 l 1
 41 31 l 1
46 35 m 1
 44 35 l 1
 44 34 l 1
 45 34 l 1
 45 33 l 1
 46 33 l 1
 46 35 l 1
49 35 m 1
 47 35 l 1
 47 33 l 1
 49 33 l 1
 49 35 l 1
55 43 m 1
 53 43 l 1
 53 41 l 1
 55 41 l 1
 55 43 l 1
58 43 m 1
 56 43 l 1
 56 41 l 1
 57 41 l 1
 57 42 l 1
 58 42 l 1
 58 43 l 1
59 42 m 1
 58 42 l 1
 58 41 l 1
 60 41 l 1
 60 43 l 1
 59 43 l 1
 59 42 l 1
63 43 m 1
 61 43 l 1
 61 41 l 1
 63 41 l 1
 63 43 l 1
63 39 m 1
 61 39 l 1
 61 37 l 1
 63 37 l 1
 63 39 l 1
63 35 m 1
 61 35 l 1
 61 33 l 1
 63 33 l 1
 63 35 l 1
63 31 m 1
 61 31 l 1
 61 29 l 1
 63 29 l 1
 63 31 l 1
31 27 m 1
 29 27 l 1
 29 25 l 1
 31 25 l 1
 31 27 l 1
41 27 m 1
 39 27 l 1
 39 25 l 1
 41 25 l 1
 41 27 l 1
44 27 m 1
 42 27 l 1
 42 25 l 1
 43 25 l 1
 43 26 l 1
 44 26 l 1
 44 27 l 1
46 27 m 1
 45 27 l 1
 45 26 l 1
 44 26 l 1
 44 25 l 1
 46 25 l 1
 46 27 l 1
49 27 m 1
 47 27 l 1
 47 25 l 1
 49 25 l 1
 49 27 l 1
63 27 m 1
 61 27 l 1
 61 25 l 1
 63 25 l 1
 63 27 l 1
EndSplineSet
EndChar

StartChar: custom_2_7_0_0_9
Encoding: 28077 28077 8109
Width: 70
Flags: H
LayerCount: 2
Fore
SplineSet
23 43 m 1
 21 43 l 1
 21 41 l 1
 23 41 l 1
 23 43 l 1
26 43 m 1
 24 43 l 1
 24 41 l 1
 25 41 l 1
 25 42 l 1
 26 42 l 1
 26 43 l 1
27 42 m 1
 26 42 l 1
 26 41 l 1
 28 41 l 1
 28 43 l 1
 27 43 l 1
 27 42 l 1
31 43 m 1
 29 43 l 1
 29 41 l 1
 31 41 l 1
 31 43 l 1
31 39 m 1
 29 39 l 1
 29 37 l 1
 31 37 l 1
 31 39 l 1
31 35 m 1
 29 35 l 1
 29 33 l 1
 31 33 l 1
 31 35 l 1
36 37 m 1
 34 37 l 1
 34 35 l 1
 36 35 l 1
 36 37 l 1
31 31 m 1
 29 31 l 1
 29 29 l 1
 31 29 l 1
 31 31 l 1
36 33 m 1
 34 33 l 1
 34 31 l 1
 36 31 l 1
 36 33 l 1
41 43 m 1
 39 43 l 1
 39 41 l 1
 41 41 l 1
 41 43 l 1
44 43 m 1
 42 43 l 1
 42 41 l 1
 43 41 l 1
 43 42 l 1
 44 42 l 1
 44 43 l 1
46 43 m 1
 45 43 l 1
 45 42 l 1
 44 42 l 1
 44 41 l 1
 46 41 l 1
 46 43 l 1
49 43 m 1
 47 43 l 1
 47 41 l 1
 49 41 l 1
 49 43 l 1
49 39 m 1
 47 39 l 1
 47 37 l 1
 49 37 l 1
 49 39 l 1
41 35 m 1
 39 35 l 1
 39 33 l 1
 41 33 l 1
 41 35 l 1
43 35 m 1
 42 35 l 1
 42 33 l 1
 44 33 l 1
 44 34 l 1
 43 34 l 1
 43 35 l 1
41 31 m 1
 39 31 l 1
 39 29 l 1
 41 29 l 1
 41 31 l 1
46 35 m 1
 44 35 l 1
 44 34 l 1
 45 34 l 1
 45 33 l 1
 46 33 l 1
 46 35 l 1
49 35 m 1
 47 35 l 1
 47 33 l 1
 49 33 l 1
 49 35 l 1
55 43 m 1
 53 43 l 1
 53 41 l 1
 55 41 l 1
 55 43 l 1
58 43 m 1
 56 43 l 1
 56 41 l 1
 57 41 l 1
 57 42 l 1
 58 42 l 1
 58 43 l 1
59 42 m 1
 58 42 l 1
 58 41 l 1
 60 41 l 1
 60 43 l 1
 59 43 l 1
 59 42 l 1
63 43 m 1
 61 43 l 1
 61 41 l 1
 63 41 l 1
 63 43 l 1
63 39 m 1
 61 39 l 1
 61 37 l 1
 63 37 l 1
 63 39 l 1
63 35 m 1
 61 35 l 1
 61 33 l 1
 63 33 l 1
 63 35 l 1
63 31 m 1
 61 31 l 1
 61 29 l 1
 63 29 l 1
 63 31 l 1
31 27 m 1
 29 27 l 1
 29 25 l 1
 31 25 l 1
 31 27 l 1
41 27 m 1
 39 27 l 1
 39 25 l 1
 41 25 l 1
 41 27 l 1
44 27 m 1
 42 27 l 1
 42 25 l 1
 43 25 l 1
 43 26 l 1
 44 26 l 1
 44 27 l 1
46 27 m 1
 45 27 l 1
 45 26 l 1
 44 26 l 1
 44 25 l 1
 46 25 l 1
 46 27 l 1
49 27 m 1
 47 27 l 1
 47 25 l 1
 49 25 l 1
 49 27 l 1
63 27 m 1
 61 27 l 1
 61 25 l 1
 63 25 l 1
 63 27 l 1
EndSplineSet
EndChar

StartChar: custom_2_7_0_1_0
Encoding: 28078 28078 8110
Width: 70
Flags: H
LayerCount: 2
Fore
SplineSet
23 43 m 1
 21 43 l 1
 21 41 l 1
 23 41 l 1
 23 43 l 1
26 43 m 1
 24 43 l 1
 24 41 l 1
 25 41 l 1
 25 42 l 1
 26 42 l 1
 26 43 l 1
27 42 m 1
 26 42 l 1
 26 41 l 1
 28 41 l 1
 28 43 l 1
 27 43 l 1
 27 42 l 1
31 43 m 1
 29 43 l 1
 29 41 l 1
 31 41 l 1
 31 43 l 1
31 39 m 1
 29 39 l 1
 29 37 l 1
 31 37 l 1
 31 39 l 1
31 35 m 1
 29 35 l 1
 29 33 l 1
 31 33 l 1
 31 35 l 1
36 37 m 1
 34 37 l 1
 34 35 l 1
 36 35 l 1
 36 37 l 1
31 31 m 1
 29 31 l 1
 29 29 l 1
 31 29 l 1
 31 31 l 1
36 33 m 1
 34 33 l 1
 34 31 l 1
 36 31 l 1
 36 33 l 1
41 43 m 1
 39 43 l 1
 39 41 l 1
 41 41 l 1
 41 43 l 1
44 43 m 1
 42 43 l 1
 42 41 l 1
 43 41 l 1
 43 42 l 1
 44 42 l 1
 44 43 l 1
46 43 m 1
 45 43 l 1
 45 42 l 1
 44 42 l 1
 44 41 l 1
 46 41 l 1
 46 43 l 1
49 43 m 1
 47 43 l 1
 47 41 l 1
 49 41 l 1
 49 43 l 1
49 39 m 1
 47 39 l 1
 47 37 l 1
 49 37 l 1
 49 39 l 1
41 35 m 1
 39 35 l 1
 39 33 l 1
 41 33 l 1
 41 35 l 1
43 35 m 1
 42 35 l 1
 42 33 l 1
 44 33 l 1
 44 34 l 1
 43 34 l 1
 43 35 l 1
41 31 m 1
 39 31 l 1
 39 29 l 1
 41 29 l 1
 41 31 l 1
46 35 m 1
 44 35 l 1
 44 34 l 1
 45 34 l 1
 45 33 l 1
 46 33 l 1
 46 35 l 1
49 35 m 1
 47 35 l 1
 47 33 l 1
 49 33 l 1
 49 35 l 1
55 43 m 1
 53 43 l 1
 53 41 l 1
 55 41 l 1
 55 43 l 1
58 43 m 1
 56 43 l 1
 56 41 l 1
 57 41 l 1
 57 42 l 1
 58 42 l 1
 58 43 l 1
59 42 m 1
 58 42 l 1
 58 41 l 1
 60 41 l 1
 60 43 l 1
 59 43 l 1
 59 42 l 1
63 43 m 1
 61 43 l 1
 61 41 l 1
 63 41 l 1
 63 43 l 1
63 39 m 1
 61 39 l 1
 61 37 l 1
 63 37 l 1
 63 39 l 1
63 35 m 1
 61 35 l 1
 61 33 l 1
 63 33 l 1
 63 35 l 1
63 31 m 1
 61 31 l 1
 61 29 l 1
 63 29 l 1
 63 31 l 1
31 27 m 1
 29 27 l 1
 29 25 l 1
 31 25 l 1
 31 27 l 1
41 27 m 1
 39 27 l 1
 39 25 l 1
 41 25 l 1
 41 27 l 1
44 27 m 1
 42 27 l 1
 42 25 l 1
 43 25 l 1
 43 26 l 1
 44 26 l 1
 44 27 l 1
46 27 m 1
 45 27 l 1
 45 26 l 1
 44 26 l 1
 44 25 l 1
 46 25 l 1
 46 27 l 1
49 27 m 1
 47 27 l 1
 47 25 l 1
 49 25 l 1
 49 27 l 1
63 27 m 1
 61 27 l 1
 61 25 l 1
 63 25 l 1
 63 27 l 1
EndSplineSet
EndChar

StartChar: custom_2_7_0_1_1
Encoding: 28079 28079 8111
Width: 70
Flags: H
LayerCount: 2
Fore
SplineSet
23 43 m 1
 21 43 l 1
 21 41 l 1
 23 41 l 1
 23 43 l 1
26 43 m 1
 24 43 l 1
 24 41 l 1
 25 41 l 1
 25 42 l 1
 26 42 l 1
 26 43 l 1
27 42 m 1
 26 42 l 1
 26 41 l 1
 28 41 l 1
 28 43 l 1
 27 43 l 1
 27 42 l 1
31 43 m 1
 29 43 l 1
 29 41 l 1
 31 41 l 1
 31 43 l 1
31 39 m 1
 29 39 l 1
 29 37 l 1
 31 37 l 1
 31 39 l 1
31 35 m 1
 29 35 l 1
 29 33 l 1
 31 33 l 1
 31 35 l 1
36 37 m 1
 34 37 l 1
 34 35 l 1
 36 35 l 1
 36 37 l 1
31 31 m 1
 29 31 l 1
 29 29 l 1
 31 29 l 1
 31 31 l 1
36 33 m 1
 34 33 l 1
 34 31 l 1
 36 31 l 1
 36 33 l 1
41 43 m 1
 39 43 l 1
 39 41 l 1
 41 41 l 1
 41 43 l 1
44 43 m 1
 42 43 l 1
 42 41 l 1
 43 41 l 1
 43 42 l 1
 44 42 l 1
 44 43 l 1
46 43 m 1
 45 43 l 1
 45 42 l 1
 44 42 l 1
 44 41 l 1
 46 41 l 1
 46 43 l 1
49 43 m 1
 47 43 l 1
 47 41 l 1
 49 41 l 1
 49 43 l 1
49 39 m 1
 47 39 l 1
 47 37 l 1
 49 37 l 1
 49 39 l 1
41 35 m 1
 39 35 l 1
 39 33 l 1
 41 33 l 1
 41 35 l 1
43 35 m 1
 42 35 l 1
 42 33 l 1
 44 33 l 1
 44 34 l 1
 43 34 l 1
 43 35 l 1
41 31 m 1
 39 31 l 1
 39 29 l 1
 41 29 l 1
 41 31 l 1
46 35 m 1
 44 35 l 1
 44 34 l 1
 45 34 l 1
 45 33 l 1
 46 33 l 1
 46 35 l 1
49 35 m 1
 47 35 l 1
 47 33 l 1
 49 33 l 1
 49 35 l 1
55 43 m 1
 53 43 l 1
 53 41 l 1
 55 41 l 1
 55 43 l 1
58 43 m 1
 56 43 l 1
 56 41 l 1
 57 41 l 1
 57 42 l 1
 58 42 l 1
 58 43 l 1
59 42 m 1
 58 42 l 1
 58 41 l 1
 60 41 l 1
 60 43 l 1
 59 43 l 1
 59 42 l 1
63 43 m 1
 61 43 l 1
 61 41 l 1
 63 41 l 1
 63 43 l 1
63 39 m 1
 61 39 l 1
 61 37 l 1
 63 37 l 1
 63 39 l 1
63 35 m 1
 61 35 l 1
 61 33 l 1
 63 33 l 1
 63 35 l 1
63 31 m 1
 61 31 l 1
 61 29 l 1
 63 29 l 1
 63 31 l 1
31 27 m 1
 29 27 l 1
 29 25 l 1
 31 25 l 1
 31 27 l 1
41 27 m 1
 39 27 l 1
 39 25 l 1
 41 25 l 1
 41 27 l 1
44 27 m 1
 42 27 l 1
 42 25 l 1
 43 25 l 1
 43 26 l 1
 44 26 l 1
 44 27 l 1
46 27 m 1
 45 27 l 1
 45 26 l 1
 44 26 l 1
 44 25 l 1
 46 25 l 1
 46 27 l 1
49 27 m 1
 47 27 l 1
 47 25 l 1
 49 25 l 1
 49 27 l 1
63 27 m 1
 61 27 l 1
 61 25 l 1
 63 25 l 1
 63 27 l 1
EndSplineSet
EndChar

StartChar: custom_2_7_0_1_2
Encoding: 28080 28080 8112
Width: 70
Flags: H
LayerCount: 2
Fore
SplineSet
23 43 m 1
 21 43 l 1
 21 41 l 1
 23 41 l 1
 23 43 l 1
26 43 m 1
 24 43 l 1
 24 41 l 1
 25 41 l 1
 25 42 l 1
 26 42 l 1
 26 43 l 1
27 42 m 1
 26 42 l 1
 26 41 l 1
 28 41 l 1
 28 43 l 1
 27 43 l 1
 27 42 l 1
31 43 m 1
 29 43 l 1
 29 41 l 1
 31 41 l 1
 31 43 l 1
31 39 m 1
 29 39 l 1
 29 37 l 1
 31 37 l 1
 31 39 l 1
31 35 m 1
 29 35 l 1
 29 33 l 1
 31 33 l 1
 31 35 l 1
36 37 m 1
 34 37 l 1
 34 35 l 1
 36 35 l 1
 36 37 l 1
31 31 m 1
 29 31 l 1
 29 29 l 1
 31 29 l 1
 31 31 l 1
36 33 m 1
 34 33 l 1
 34 31 l 1
 36 31 l 1
 36 33 l 1
41 43 m 1
 39 43 l 1
 39 41 l 1
 41 41 l 1
 41 43 l 1
44 43 m 1
 42 43 l 1
 42 41 l 1
 43 41 l 1
 43 42 l 1
 44 42 l 1
 44 43 l 1
46 43 m 1
 45 43 l 1
 45 42 l 1
 44 42 l 1
 44 41 l 1
 46 41 l 1
 46 43 l 1
49 43 m 1
 47 43 l 1
 47 41 l 1
 49 41 l 1
 49 43 l 1
49 39 m 1
 47 39 l 1
 47 37 l 1
 49 37 l 1
 49 39 l 1
41 35 m 1
 39 35 l 1
 39 33 l 1
 41 33 l 1
 41 35 l 1
43 35 m 1
 42 35 l 1
 42 33 l 1
 44 33 l 1
 44 34 l 1
 43 34 l 1
 43 35 l 1
41 31 m 1
 39 31 l 1
 39 29 l 1
 41 29 l 1
 41 31 l 1
46 35 m 1
 44 35 l 1
 44 34 l 1
 45 34 l 1
 45 33 l 1
 46 33 l 1
 46 35 l 1
49 35 m 1
 47 35 l 1
 47 33 l 1
 49 33 l 1
 49 35 l 1
55 43 m 1
 53 43 l 1
 53 41 l 1
 55 41 l 1
 55 43 l 1
58 43 m 1
 56 43 l 1
 56 41 l 1
 57 41 l 1
 57 42 l 1
 58 42 l 1
 58 43 l 1
59 42 m 1
 58 42 l 1
 58 41 l 1
 60 41 l 1
 60 43 l 1
 59 43 l 1
 59 42 l 1
63 43 m 1
 61 43 l 1
 61 41 l 1
 63 41 l 1
 63 43 l 1
63 39 m 1
 61 39 l 1
 61 37 l 1
 63 37 l 1
 63 39 l 1
63 35 m 1
 61 35 l 1
 61 33 l 1
 63 33 l 1
 63 35 l 1
63 31 m 1
 61 31 l 1
 61 29 l 1
 63 29 l 1
 63 31 l 1
31 27 m 1
 29 27 l 1
 29 25 l 1
 31 25 l 1
 31 27 l 1
41 27 m 1
 39 27 l 1
 39 25 l 1
 41 25 l 1
 41 27 l 1
44 27 m 1
 42 27 l 1
 42 25 l 1
 43 25 l 1
 43 26 l 1
 44 26 l 1
 44 27 l 1
46 27 m 1
 45 27 l 1
 45 26 l 1
 44 26 l 1
 44 25 l 1
 46 25 l 1
 46 27 l 1
49 27 m 1
 47 27 l 1
 47 25 l 1
 49 25 l 1
 49 27 l 1
63 27 m 1
 61 27 l 1
 61 25 l 1
 63 25 l 1
 63 27 l 1
EndSplineSet
EndChar

StartChar: custom_2_7_0_1_3
Encoding: 28081 28081 8113
Width: 70
Flags: H
LayerCount: 2
Fore
SplineSet
23 43 m 1
 21 43 l 1
 21 41 l 1
 23 41 l 1
 23 43 l 1
26 43 m 1
 24 43 l 1
 24 41 l 1
 25 41 l 1
 25 42 l 1
 26 42 l 1
 26 43 l 1
27 42 m 1
 26 42 l 1
 26 41 l 1
 28 41 l 1
 28 43 l 1
 27 43 l 1
 27 42 l 1
31 43 m 1
 29 43 l 1
 29 41 l 1
 31 41 l 1
 31 43 l 1
31 39 m 1
 29 39 l 1
 29 37 l 1
 31 37 l 1
 31 39 l 1
31 35 m 1
 29 35 l 1
 29 33 l 1
 31 33 l 1
 31 35 l 1
36 37 m 1
 34 37 l 1
 34 35 l 1
 36 35 l 1
 36 37 l 1
31 31 m 1
 29 31 l 1
 29 29 l 1
 31 29 l 1
 31 31 l 1
36 33 m 1
 34 33 l 1
 34 31 l 1
 36 31 l 1
 36 33 l 1
41 43 m 1
 39 43 l 1
 39 41 l 1
 41 41 l 1
 41 43 l 1
44 43 m 1
 42 43 l 1
 42 41 l 1
 43 41 l 1
 43 42 l 1
 44 42 l 1
 44 43 l 1
46 43 m 1
 45 43 l 1
 45 42 l 1
 44 42 l 1
 44 41 l 1
 46 41 l 1
 46 43 l 1
49 43 m 1
 47 43 l 1
 47 41 l 1
 49 41 l 1
 49 43 l 1
49 39 m 1
 47 39 l 1
 47 37 l 1
 49 37 l 1
 49 39 l 1
41 35 m 1
 39 35 l 1
 39 33 l 1
 41 33 l 1
 41 35 l 1
43 35 m 1
 42 35 l 1
 42 33 l 1
 44 33 l 1
 44 34 l 1
 43 34 l 1
 43 35 l 1
41 31 m 1
 39 31 l 1
 39 29 l 1
 41 29 l 1
 41 31 l 1
46 35 m 1
 44 35 l 1
 44 34 l 1
 45 34 l 1
 45 33 l 1
 46 33 l 1
 46 35 l 1
49 35 m 1
 47 35 l 1
 47 33 l 1
 49 33 l 1
 49 35 l 1
55 43 m 1
 53 43 l 1
 53 41 l 1
 55 41 l 1
 55 43 l 1
58 43 m 1
 56 43 l 1
 56 41 l 1
 57 41 l 1
 57 42 l 1
 58 42 l 1
 58 43 l 1
59 42 m 1
 58 42 l 1
 58 41 l 1
 60 41 l 1
 60 43 l 1
 59 43 l 1
 59 42 l 1
63 43 m 1
 61 43 l 1
 61 41 l 1
 63 41 l 1
 63 43 l 1
63 39 m 1
 61 39 l 1
 61 37 l 1
 63 37 l 1
 63 39 l 1
63 35 m 1
 61 35 l 1
 61 33 l 1
 63 33 l 1
 63 35 l 1
63 31 m 1
 61 31 l 1
 61 29 l 1
 63 29 l 1
 63 31 l 1
31 27 m 1
 29 27 l 1
 29 25 l 1
 31 25 l 1
 31 27 l 1
41 27 m 1
 39 27 l 1
 39 25 l 1
 41 25 l 1
 41 27 l 1
44 27 m 1
 42 27 l 1
 42 25 l 1
 43 25 l 1
 43 26 l 1
 44 26 l 1
 44 27 l 1
46 27 m 1
 45 27 l 1
 45 26 l 1
 44 26 l 1
 44 25 l 1
 46 25 l 1
 46 27 l 1
49 27 m 1
 47 27 l 1
 47 25 l 1
 49 25 l 1
 49 27 l 1
63 27 m 1
 61 27 l 1
 61 25 l 1
 63 25 l 1
 63 27 l 1
EndSplineSet
EndChar

StartChar: custom_2_7_0_1_4
Encoding: 28082 28082 8114
Width: 70
Flags: H
LayerCount: 2
Fore
SplineSet
23 43 m 1
 21 43 l 1
 21 41 l 1
 23 41 l 1
 23 43 l 1
26 43 m 1
 24 43 l 1
 24 41 l 1
 25 41 l 1
 25 42 l 1
 26 42 l 1
 26 43 l 1
27 42 m 1
 26 42 l 1
 26 41 l 1
 28 41 l 1
 28 43 l 1
 27 43 l 1
 27 42 l 1
31 43 m 1
 29 43 l 1
 29 41 l 1
 31 41 l 1
 31 43 l 1
31 39 m 1
 29 39 l 1
 29 37 l 1
 31 37 l 1
 31 39 l 1
31 35 m 1
 29 35 l 1
 29 33 l 1
 31 33 l 1
 31 35 l 1
36 37 m 1
 34 37 l 1
 34 35 l 1
 36 35 l 1
 36 37 l 1
31 31 m 1
 29 31 l 1
 29 29 l 1
 31 29 l 1
 31 31 l 1
36 33 m 1
 34 33 l 1
 34 31 l 1
 36 31 l 1
 36 33 l 1
41 43 m 1
 39 43 l 1
 39 41 l 1
 41 41 l 1
 41 43 l 1
44 43 m 1
 42 43 l 1
 42 41 l 1
 43 41 l 1
 43 42 l 1
 44 42 l 1
 44 43 l 1
46 43 m 1
 45 43 l 1
 45 42 l 1
 44 42 l 1
 44 41 l 1
 46 41 l 1
 46 43 l 1
49 43 m 1
 47 43 l 1
 47 41 l 1
 49 41 l 1
 49 43 l 1
49 39 m 1
 47 39 l 1
 47 37 l 1
 49 37 l 1
 49 39 l 1
41 35 m 1
 39 35 l 1
 39 33 l 1
 41 33 l 1
 41 35 l 1
43 35 m 1
 42 35 l 1
 42 33 l 1
 44 33 l 1
 44 34 l 1
 43 34 l 1
 43 35 l 1
41 31 m 1
 39 31 l 1
 39 29 l 1
 41 29 l 1
 41 31 l 1
46 35 m 1
 44 35 l 1
 44 34 l 1
 45 34 l 1
 45 33 l 1
 46 33 l 1
 46 35 l 1
49 35 m 1
 47 35 l 1
 47 33 l 1
 49 33 l 1
 49 35 l 1
55 43 m 1
 53 43 l 1
 53 41 l 1
 55 41 l 1
 55 43 l 1
58 43 m 1
 56 43 l 1
 56 41 l 1
 57 41 l 1
 57 42 l 1
 58 42 l 1
 58 43 l 1
59 42 m 1
 58 42 l 1
 58 41 l 1
 60 41 l 1
 60 43 l 1
 59 43 l 1
 59 42 l 1
63 43 m 1
 61 43 l 1
 61 41 l 1
 63 41 l 1
 63 43 l 1
63 39 m 1
 61 39 l 1
 61 37 l 1
 63 37 l 1
 63 39 l 1
63 35 m 1
 61 35 l 1
 61 33 l 1
 63 33 l 1
 63 35 l 1
63 31 m 1
 61 31 l 1
 61 29 l 1
 63 29 l 1
 63 31 l 1
31 27 m 1
 29 27 l 1
 29 25 l 1
 31 25 l 1
 31 27 l 1
41 27 m 1
 39 27 l 1
 39 25 l 1
 41 25 l 1
 41 27 l 1
44 27 m 1
 42 27 l 1
 42 25 l 1
 43 25 l 1
 43 26 l 1
 44 26 l 1
 44 27 l 1
46 27 m 1
 45 27 l 1
 45 26 l 1
 44 26 l 1
 44 25 l 1
 46 25 l 1
 46 27 l 1
49 27 m 1
 47 27 l 1
 47 25 l 1
 49 25 l 1
 49 27 l 1
63 27 m 1
 61 27 l 1
 61 25 l 1
 63 25 l 1
 63 27 l 1
EndSplineSet
EndChar

StartChar: custom_2_7_0_1_5
Encoding: 28083 28083 8115
Width: 70
Flags: H
LayerCount: 2
Fore
SplineSet
23 43 m 1
 21 43 l 1
 21 41 l 1
 23 41 l 1
 23 43 l 1
26 43 m 1
 24 43 l 1
 24 41 l 1
 25 41 l 1
 25 42 l 1
 26 42 l 1
 26 43 l 1
27 42 m 1
 26 42 l 1
 26 41 l 1
 28 41 l 1
 28 43 l 1
 27 43 l 1
 27 42 l 1
31 43 m 1
 29 43 l 1
 29 41 l 1
 31 41 l 1
 31 43 l 1
31 39 m 1
 29 39 l 1
 29 37 l 1
 31 37 l 1
 31 39 l 1
31 35 m 1
 29 35 l 1
 29 33 l 1
 31 33 l 1
 31 35 l 1
36 37 m 1
 34 37 l 1
 34 35 l 1
 36 35 l 1
 36 37 l 1
31 31 m 1
 29 31 l 1
 29 29 l 1
 31 29 l 1
 31 31 l 1
36 33 m 1
 34 33 l 1
 34 31 l 1
 36 31 l 1
 36 33 l 1
41 43 m 1
 39 43 l 1
 39 41 l 1
 41 41 l 1
 41 43 l 1
44 43 m 1
 42 43 l 1
 42 41 l 1
 43 41 l 1
 43 42 l 1
 44 42 l 1
 44 43 l 1
46 43 m 1
 45 43 l 1
 45 42 l 1
 44 42 l 1
 44 41 l 1
 46 41 l 1
 46 43 l 1
49 43 m 1
 47 43 l 1
 47 41 l 1
 49 41 l 1
 49 43 l 1
49 39 m 1
 47 39 l 1
 47 37 l 1
 49 37 l 1
 49 39 l 1
41 35 m 1
 39 35 l 1
 39 33 l 1
 41 33 l 1
 41 35 l 1
43 35 m 1
 42 35 l 1
 42 33 l 1
 44 33 l 1
 44 34 l 1
 43 34 l 1
 43 35 l 1
41 31 m 1
 39 31 l 1
 39 29 l 1
 41 29 l 1
 41 31 l 1
46 35 m 1
 44 35 l 1
 44 34 l 1
 45 34 l 1
 45 33 l 1
 46 33 l 1
 46 35 l 1
49 35 m 1
 47 35 l 1
 47 33 l 1
 49 33 l 1
 49 35 l 1
55 43 m 1
 53 43 l 1
 53 41 l 1
 55 41 l 1
 55 43 l 1
58 43 m 1
 56 43 l 1
 56 41 l 1
 57 41 l 1
 57 42 l 1
 58 42 l 1
 58 43 l 1
59 42 m 1
 58 42 l 1
 58 41 l 1
 60 41 l 1
 60 43 l 1
 59 43 l 1
 59 42 l 1
63 43 m 1
 61 43 l 1
 61 41 l 1
 63 41 l 1
 63 43 l 1
63 39 m 1
 61 39 l 1
 61 37 l 1
 63 37 l 1
 63 39 l 1
63 35 m 1
 61 35 l 1
 61 33 l 1
 63 33 l 1
 63 35 l 1
63 31 m 1
 61 31 l 1
 61 29 l 1
 63 29 l 1
 63 31 l 1
31 27 m 1
 29 27 l 1
 29 25 l 1
 31 25 l 1
 31 27 l 1
41 27 m 1
 39 27 l 1
 39 25 l 1
 41 25 l 1
 41 27 l 1
44 27 m 1
 42 27 l 1
 42 25 l 1
 43 25 l 1
 43 26 l 1
 44 26 l 1
 44 27 l 1
46 27 m 1
 45 27 l 1
 45 26 l 1
 44 26 l 1
 44 25 l 1
 46 25 l 1
 46 27 l 1
49 27 m 1
 47 27 l 1
 47 25 l 1
 49 25 l 1
 49 27 l 1
63 27 m 1
 61 27 l 1
 61 25 l 1
 63 25 l 1
 63 27 l 1
EndSplineSet
EndChar

StartChar: custom_2_7_0_1_6
Encoding: 28084 28084 8116
Width: 70
Flags: H
LayerCount: 2
Fore
SplineSet
23 43 m 1
 21 43 l 1
 21 41 l 1
 23 41 l 1
 23 43 l 1
26 43 m 1
 24 43 l 1
 24 41 l 1
 25 41 l 1
 25 42 l 1
 26 42 l 1
 26 43 l 1
27 42 m 1
 26 42 l 1
 26 41 l 1
 28 41 l 1
 28 43 l 1
 27 43 l 1
 27 42 l 1
31 43 m 1
 29 43 l 1
 29 41 l 1
 31 41 l 1
 31 43 l 1
31 39 m 1
 29 39 l 1
 29 37 l 1
 31 37 l 1
 31 39 l 1
31 35 m 1
 29 35 l 1
 29 33 l 1
 31 33 l 1
 31 35 l 1
36 37 m 1
 34 37 l 1
 34 35 l 1
 36 35 l 1
 36 37 l 1
31 31 m 1
 29 31 l 1
 29 29 l 1
 31 29 l 1
 31 31 l 1
36 33 m 1
 34 33 l 1
 34 31 l 1
 36 31 l 1
 36 33 l 1
41 43 m 1
 39 43 l 1
 39 41 l 1
 41 41 l 1
 41 43 l 1
44 43 m 1
 42 43 l 1
 42 41 l 1
 43 41 l 1
 43 42 l 1
 44 42 l 1
 44 43 l 1
46 43 m 1
 45 43 l 1
 45 42 l 1
 44 42 l 1
 44 41 l 1
 46 41 l 1
 46 43 l 1
49 43 m 1
 47 43 l 1
 47 41 l 1
 49 41 l 1
 49 43 l 1
49 39 m 1
 47 39 l 1
 47 37 l 1
 49 37 l 1
 49 39 l 1
41 35 m 1
 39 35 l 1
 39 33 l 1
 41 33 l 1
 41 35 l 1
43 35 m 1
 42 35 l 1
 42 33 l 1
 44 33 l 1
 44 34 l 1
 43 34 l 1
 43 35 l 1
41 31 m 1
 39 31 l 1
 39 29 l 1
 41 29 l 1
 41 31 l 1
46 35 m 1
 44 35 l 1
 44 34 l 1
 45 34 l 1
 45 33 l 1
 46 33 l 1
 46 35 l 1
49 35 m 1
 47 35 l 1
 47 33 l 1
 49 33 l 1
 49 35 l 1
55 43 m 1
 53 43 l 1
 53 41 l 1
 55 41 l 1
 55 43 l 1
58 43 m 1
 56 43 l 1
 56 41 l 1
 57 41 l 1
 57 42 l 1
 58 42 l 1
 58 43 l 1
59 42 m 1
 58 42 l 1
 58 41 l 1
 60 41 l 1
 60 43 l 1
 59 43 l 1
 59 42 l 1
63 43 m 1
 61 43 l 1
 61 41 l 1
 63 41 l 1
 63 43 l 1
63 39 m 1
 61 39 l 1
 61 37 l 1
 63 37 l 1
 63 39 l 1
63 35 m 1
 61 35 l 1
 61 33 l 1
 63 33 l 1
 63 35 l 1
63 31 m 1
 61 31 l 1
 61 29 l 1
 63 29 l 1
 63 31 l 1
31 27 m 1
 29 27 l 1
 29 25 l 1
 31 25 l 1
 31 27 l 1
41 27 m 1
 39 27 l 1
 39 25 l 1
 41 25 l 1
 41 27 l 1
44 27 m 1
 42 27 l 1
 42 25 l 1
 43 25 l 1
 43 26 l 1
 44 26 l 1
 44 27 l 1
46 27 m 1
 45 27 l 1
 45 26 l 1
 44 26 l 1
 44 25 l 1
 46 25 l 1
 46 27 l 1
49 27 m 1
 47 27 l 1
 47 25 l 1
 49 25 l 1
 49 27 l 1
63 27 m 1
 61 27 l 1
 61 25 l 1
 63 25 l 1
 63 27 l 1
EndSplineSet
EndChar

StartChar: custom_2_7_0_1_7
Encoding: 28085 28085 8117
Width: 70
Flags: H
LayerCount: 2
Fore
SplineSet
23 43 m 1
 21 43 l 1
 21 41 l 1
 23 41 l 1
 23 43 l 1
26 43 m 1
 24 43 l 1
 24 41 l 1
 25 41 l 1
 25 42 l 1
 26 42 l 1
 26 43 l 1
27 42 m 1
 26 42 l 1
 26 41 l 1
 28 41 l 1
 28 43 l 1
 27 43 l 1
 27 42 l 1
31 43 m 1
 29 43 l 1
 29 41 l 1
 31 41 l 1
 31 43 l 1
31 39 m 1
 29 39 l 1
 29 37 l 1
 31 37 l 1
 31 39 l 1
31 35 m 1
 29 35 l 1
 29 33 l 1
 31 33 l 1
 31 35 l 1
36 37 m 1
 34 37 l 1
 34 35 l 1
 36 35 l 1
 36 37 l 1
31 31 m 1
 29 31 l 1
 29 29 l 1
 31 29 l 1
 31 31 l 1
36 33 m 1
 34 33 l 1
 34 31 l 1
 36 31 l 1
 36 33 l 1
41 43 m 1
 39 43 l 1
 39 41 l 1
 41 41 l 1
 41 43 l 1
44 43 m 1
 42 43 l 1
 42 41 l 1
 43 41 l 1
 43 42 l 1
 44 42 l 1
 44 43 l 1
46 43 m 1
 45 43 l 1
 45 42 l 1
 44 42 l 1
 44 41 l 1
 46 41 l 1
 46 43 l 1
49 43 m 1
 47 43 l 1
 47 41 l 1
 49 41 l 1
 49 43 l 1
49 39 m 1
 47 39 l 1
 47 37 l 1
 49 37 l 1
 49 39 l 1
41 35 m 1
 39 35 l 1
 39 33 l 1
 41 33 l 1
 41 35 l 1
43 35 m 1
 42 35 l 1
 42 33 l 1
 44 33 l 1
 44 34 l 1
 43 34 l 1
 43 35 l 1
41 31 m 1
 39 31 l 1
 39 29 l 1
 41 29 l 1
 41 31 l 1
46 35 m 1
 44 35 l 1
 44 34 l 1
 45 34 l 1
 45 33 l 1
 46 33 l 1
 46 35 l 1
49 35 m 1
 47 35 l 1
 47 33 l 1
 49 33 l 1
 49 35 l 1
55 43 m 1
 53 43 l 1
 53 41 l 1
 55 41 l 1
 55 43 l 1
58 43 m 1
 56 43 l 1
 56 41 l 1
 57 41 l 1
 57 42 l 1
 58 42 l 1
 58 43 l 1
59 42 m 1
 58 42 l 1
 58 41 l 1
 60 41 l 1
 60 43 l 1
 59 43 l 1
 59 42 l 1
63 43 m 1
 61 43 l 1
 61 41 l 1
 63 41 l 1
 63 43 l 1
63 39 m 1
 61 39 l 1
 61 37 l 1
 63 37 l 1
 63 39 l 1
63 35 m 1
 61 35 l 1
 61 33 l 1
 63 33 l 1
 63 35 l 1
63 31 m 1
 61 31 l 1
 61 29 l 1
 63 29 l 1
 63 31 l 1
31 27 m 1
 29 27 l 1
 29 25 l 1
 31 25 l 1
 31 27 l 1
41 27 m 1
 39 27 l 1
 39 25 l 1
 41 25 l 1
 41 27 l 1
44 27 m 1
 42 27 l 1
 42 25 l 1
 43 25 l 1
 43 26 l 1
 44 26 l 1
 44 27 l 1
46 27 m 1
 45 27 l 1
 45 26 l 1
 44 26 l 1
 44 25 l 1
 46 25 l 1
 46 27 l 1
49 27 m 1
 47 27 l 1
 47 25 l 1
 49 25 l 1
 49 27 l 1
63 27 m 1
 61 27 l 1
 61 25 l 1
 63 25 l 1
 63 27 l 1
EndSplineSet
EndChar

StartChar: custom_2_7_0_1_8
Encoding: 28086 28086 8118
Width: 70
Flags: H
LayerCount: 2
Fore
SplineSet
23 43 m 1
 21 43 l 1
 21 41 l 1
 23 41 l 1
 23 43 l 1
26 43 m 1
 24 43 l 1
 24 41 l 1
 25 41 l 1
 25 42 l 1
 26 42 l 1
 26 43 l 1
27 42 m 1
 26 42 l 1
 26 41 l 1
 28 41 l 1
 28 43 l 1
 27 43 l 1
 27 42 l 1
31 43 m 1
 29 43 l 1
 29 41 l 1
 31 41 l 1
 31 43 l 1
31 39 m 1
 29 39 l 1
 29 37 l 1
 31 37 l 1
 31 39 l 1
31 35 m 1
 29 35 l 1
 29 33 l 1
 31 33 l 1
 31 35 l 1
36 37 m 1
 34 37 l 1
 34 35 l 1
 36 35 l 1
 36 37 l 1
31 31 m 1
 29 31 l 1
 29 29 l 1
 31 29 l 1
 31 31 l 1
36 33 m 1
 34 33 l 1
 34 31 l 1
 36 31 l 1
 36 33 l 1
41 43 m 1
 39 43 l 1
 39 41 l 1
 41 41 l 1
 41 43 l 1
44 43 m 1
 42 43 l 1
 42 41 l 1
 43 41 l 1
 43 42 l 1
 44 42 l 1
 44 43 l 1
46 43 m 1
 45 43 l 1
 45 42 l 1
 44 42 l 1
 44 41 l 1
 46 41 l 1
 46 43 l 1
49 43 m 1
 47 43 l 1
 47 41 l 1
 49 41 l 1
 49 43 l 1
49 39 m 1
 47 39 l 1
 47 37 l 1
 49 37 l 1
 49 39 l 1
41 35 m 1
 39 35 l 1
 39 33 l 1
 41 33 l 1
 41 35 l 1
43 35 m 1
 42 35 l 1
 42 33 l 1
 44 33 l 1
 44 34 l 1
 43 34 l 1
 43 35 l 1
41 31 m 1
 39 31 l 1
 39 29 l 1
 41 29 l 1
 41 31 l 1
46 35 m 1
 44 35 l 1
 44 34 l 1
 45 34 l 1
 45 33 l 1
 46 33 l 1
 46 35 l 1
49 35 m 1
 47 35 l 1
 47 33 l 1
 49 33 l 1
 49 35 l 1
55 43 m 1
 53 43 l 1
 53 41 l 1
 55 41 l 1
 55 43 l 1
58 43 m 1
 56 43 l 1
 56 41 l 1
 57 41 l 1
 57 42 l 1
 58 42 l 1
 58 43 l 1
59 42 m 1
 58 42 l 1
 58 41 l 1
 60 41 l 1
 60 43 l 1
 59 43 l 1
 59 42 l 1
63 43 m 1
 61 43 l 1
 61 41 l 1
 63 41 l 1
 63 43 l 1
63 39 m 1
 61 39 l 1
 61 37 l 1
 63 37 l 1
 63 39 l 1
63 35 m 1
 61 35 l 1
 61 33 l 1
 63 33 l 1
 63 35 l 1
63 31 m 1
 61 31 l 1
 61 29 l 1
 63 29 l 1
 63 31 l 1
31 27 m 1
 29 27 l 1
 29 25 l 1
 31 25 l 1
 31 27 l 1
41 27 m 1
 39 27 l 1
 39 25 l 1
 41 25 l 1
 41 27 l 1
44 27 m 1
 42 27 l 1
 42 25 l 1
 43 25 l 1
 43 26 l 1
 44 26 l 1
 44 27 l 1
46 27 m 1
 45 27 l 1
 45 26 l 1
 44 26 l 1
 44 25 l 1
 46 25 l 1
 46 27 l 1
49 27 m 1
 47 27 l 1
 47 25 l 1
 49 25 l 1
 49 27 l 1
63 27 m 1
 61 27 l 1
 61 25 l 1
 63 25 l 1
 63 27 l 1
EndSplineSet
EndChar

StartChar: custom_2_7_0_1_9
Encoding: 28087 28087 8119
Width: 70
Flags: H
LayerCount: 2
Fore
SplineSet
23 43 m 1
 21 43 l 1
 21 41 l 1
 23 41 l 1
 23 43 l 1
26 43 m 1
 24 43 l 1
 24 41 l 1
 25 41 l 1
 25 42 l 1
 26 42 l 1
 26 43 l 1
27 42 m 1
 26 42 l 1
 26 41 l 1
 28 41 l 1
 28 43 l 1
 27 43 l 1
 27 42 l 1
31 43 m 1
 29 43 l 1
 29 41 l 1
 31 41 l 1
 31 43 l 1
31 39 m 1
 29 39 l 1
 29 37 l 1
 31 37 l 1
 31 39 l 1
31 35 m 1
 29 35 l 1
 29 33 l 1
 31 33 l 1
 31 35 l 1
36 37 m 1
 34 37 l 1
 34 35 l 1
 36 35 l 1
 36 37 l 1
31 31 m 1
 29 31 l 1
 29 29 l 1
 31 29 l 1
 31 31 l 1
36 33 m 1
 34 33 l 1
 34 31 l 1
 36 31 l 1
 36 33 l 1
41 43 m 1
 39 43 l 1
 39 41 l 1
 41 41 l 1
 41 43 l 1
44 43 m 1
 42 43 l 1
 42 41 l 1
 43 41 l 1
 43 42 l 1
 44 42 l 1
 44 43 l 1
46 43 m 1
 45 43 l 1
 45 42 l 1
 44 42 l 1
 44 41 l 1
 46 41 l 1
 46 43 l 1
49 43 m 1
 47 43 l 1
 47 41 l 1
 49 41 l 1
 49 43 l 1
49 39 m 1
 47 39 l 1
 47 37 l 1
 49 37 l 1
 49 39 l 1
41 35 m 1
 39 35 l 1
 39 33 l 1
 41 33 l 1
 41 35 l 1
43 35 m 1
 42 35 l 1
 42 33 l 1
 44 33 l 1
 44 34 l 1
 43 34 l 1
 43 35 l 1
41 31 m 1
 39 31 l 1
 39 29 l 1
 41 29 l 1
 41 31 l 1
46 35 m 1
 44 35 l 1
 44 34 l 1
 45 34 l 1
 45 33 l 1
 46 33 l 1
 46 35 l 1
49 35 m 1
 47 35 l 1
 47 33 l 1
 49 33 l 1
 49 35 l 1
55 43 m 1
 53 43 l 1
 53 41 l 1
 55 41 l 1
 55 43 l 1
58 43 m 1
 56 43 l 1
 56 41 l 1
 57 41 l 1
 57 42 l 1
 58 42 l 1
 58 43 l 1
59 42 m 1
 58 42 l 1
 58 41 l 1
 60 41 l 1
 60 43 l 1
 59 43 l 1
 59 42 l 1
63 43 m 1
 61 43 l 1
 61 41 l 1
 63 41 l 1
 63 43 l 1
63 39 m 1
 61 39 l 1
 61 37 l 1
 63 37 l 1
 63 39 l 1
63 35 m 1
 61 35 l 1
 61 33 l 1
 63 33 l 1
 63 35 l 1
63 31 m 1
 61 31 l 1
 61 29 l 1
 63 29 l 1
 63 31 l 1
31 27 m 1
 29 27 l 1
 29 25 l 1
 31 25 l 1
 31 27 l 1
41 27 m 1
 39 27 l 1
 39 25 l 1
 41 25 l 1
 41 27 l 1
44 27 m 1
 42 27 l 1
 42 25 l 1
 43 25 l 1
 43 26 l 1
 44 26 l 1
 44 27 l 1
46 27 m 1
 45 27 l 1
 45 26 l 1
 44 26 l 1
 44 25 l 1
 46 25 l 1
 46 27 l 1
49 27 m 1
 47 27 l 1
 47 25 l 1
 49 25 l 1
 49 27 l 1
63 27 m 1
 61 27 l 1
 61 25 l 1
 63 25 l 1
 63 27 l 1
EndSplineSet
EndChar

StartChar: custom_2_7_0_2_0
Encoding: 28088 28088 8120
Width: 70
Flags: H
LayerCount: 2
Fore
SplineSet
23 43 m 1
 21 43 l 1
 21 41 l 1
 23 41 l 1
 23 43 l 1
26 43 m 1
 24 43 l 1
 24 41 l 1
 25 41 l 1
 25 42 l 1
 26 42 l 1
 26 43 l 1
27 42 m 1
 26 42 l 1
 26 41 l 1
 28 41 l 1
 28 43 l 1
 27 43 l 1
 27 42 l 1
31 43 m 1
 29 43 l 1
 29 41 l 1
 31 41 l 1
 31 43 l 1
31 39 m 1
 29 39 l 1
 29 37 l 1
 31 37 l 1
 31 39 l 1
31 35 m 1
 29 35 l 1
 29 33 l 1
 31 33 l 1
 31 35 l 1
36 37 m 1
 34 37 l 1
 34 35 l 1
 36 35 l 1
 36 37 l 1
31 31 m 1
 29 31 l 1
 29 29 l 1
 31 29 l 1
 31 31 l 1
36 33 m 1
 34 33 l 1
 34 31 l 1
 36 31 l 1
 36 33 l 1
41 43 m 1
 39 43 l 1
 39 41 l 1
 41 41 l 1
 41 43 l 1
44 43 m 1
 42 43 l 1
 42 41 l 1
 43 41 l 1
 43 42 l 1
 44 42 l 1
 44 43 l 1
46 43 m 1
 45 43 l 1
 45 42 l 1
 44 42 l 1
 44 41 l 1
 46 41 l 1
 46 43 l 1
49 43 m 1
 47 43 l 1
 47 41 l 1
 49 41 l 1
 49 43 l 1
49 39 m 1
 47 39 l 1
 47 37 l 1
 49 37 l 1
 49 39 l 1
41 35 m 1
 39 35 l 1
 39 33 l 1
 41 33 l 1
 41 35 l 1
43 35 m 1
 42 35 l 1
 42 33 l 1
 44 33 l 1
 44 34 l 1
 43 34 l 1
 43 35 l 1
41 31 m 1
 39 31 l 1
 39 29 l 1
 41 29 l 1
 41 31 l 1
46 35 m 1
 44 35 l 1
 44 34 l 1
 45 34 l 1
 45 33 l 1
 46 33 l 1
 46 35 l 1
49 35 m 1
 47 35 l 1
 47 33 l 1
 49 33 l 1
 49 35 l 1
55 43 m 1
 53 43 l 1
 53 41 l 1
 55 41 l 1
 55 43 l 1
58 43 m 1
 56 43 l 1
 56 41 l 1
 57 41 l 1
 57 42 l 1
 58 42 l 1
 58 43 l 1
59 42 m 1
 58 42 l 1
 58 41 l 1
 60 41 l 1
 60 43 l 1
 59 43 l 1
 59 42 l 1
63 43 m 1
 61 43 l 1
 61 41 l 1
 63 41 l 1
 63 43 l 1
63 39 m 1
 61 39 l 1
 61 37 l 1
 63 37 l 1
 63 39 l 1
63 35 m 1
 61 35 l 1
 61 33 l 1
 63 33 l 1
 63 35 l 1
63 31 m 1
 61 31 l 1
 61 29 l 1
 63 29 l 1
 63 31 l 1
31 27 m 1
 29 27 l 1
 29 25 l 1
 31 25 l 1
 31 27 l 1
41 27 m 1
 39 27 l 1
 39 25 l 1
 41 25 l 1
 41 27 l 1
44 27 m 1
 42 27 l 1
 42 25 l 1
 43 25 l 1
 43 26 l 1
 44 26 l 1
 44 27 l 1
46 27 m 1
 45 27 l 1
 45 26 l 1
 44 26 l 1
 44 25 l 1
 46 25 l 1
 46 27 l 1
49 27 m 1
 47 27 l 1
 47 25 l 1
 49 25 l 1
 49 27 l 1
63 27 m 1
 61 27 l 1
 61 25 l 1
 63 25 l 1
 63 27 l 1
EndSplineSet
EndChar

StartChar: custom_2_7_0_2_1
Encoding: 28089 28089 8121
Width: 70
Flags: H
LayerCount: 2
Fore
SplineSet
23 43 m 1
 21 43 l 1
 21 41 l 1
 23 41 l 1
 23 43 l 1
26 43 m 1
 24 43 l 1
 24 41 l 1
 25 41 l 1
 25 42 l 1
 26 42 l 1
 26 43 l 1
27 42 m 1
 26 42 l 1
 26 41 l 1
 28 41 l 1
 28 43 l 1
 27 43 l 1
 27 42 l 1
31 43 m 1
 29 43 l 1
 29 41 l 1
 31 41 l 1
 31 43 l 1
31 39 m 1
 29 39 l 1
 29 37 l 1
 31 37 l 1
 31 39 l 1
31 35 m 1
 29 35 l 1
 29 33 l 1
 31 33 l 1
 31 35 l 1
36 37 m 1
 34 37 l 1
 34 35 l 1
 36 35 l 1
 36 37 l 1
31 31 m 1
 29 31 l 1
 29 29 l 1
 31 29 l 1
 31 31 l 1
36 33 m 1
 34 33 l 1
 34 31 l 1
 36 31 l 1
 36 33 l 1
41 43 m 1
 39 43 l 1
 39 41 l 1
 41 41 l 1
 41 43 l 1
44 43 m 1
 42 43 l 1
 42 41 l 1
 43 41 l 1
 43 42 l 1
 44 42 l 1
 44 43 l 1
46 43 m 1
 45 43 l 1
 45 42 l 1
 44 42 l 1
 44 41 l 1
 46 41 l 1
 46 43 l 1
49 43 m 1
 47 43 l 1
 47 41 l 1
 49 41 l 1
 49 43 l 1
49 39 m 1
 47 39 l 1
 47 37 l 1
 49 37 l 1
 49 39 l 1
41 35 m 1
 39 35 l 1
 39 33 l 1
 41 33 l 1
 41 35 l 1
43 35 m 1
 42 35 l 1
 42 33 l 1
 44 33 l 1
 44 34 l 1
 43 34 l 1
 43 35 l 1
41 31 m 1
 39 31 l 1
 39 29 l 1
 41 29 l 1
 41 31 l 1
46 35 m 1
 44 35 l 1
 44 34 l 1
 45 34 l 1
 45 33 l 1
 46 33 l 1
 46 35 l 1
49 35 m 1
 47 35 l 1
 47 33 l 1
 49 33 l 1
 49 35 l 1
55 43 m 1
 53 43 l 1
 53 41 l 1
 55 41 l 1
 55 43 l 1
58 43 m 1
 56 43 l 1
 56 41 l 1
 57 41 l 1
 57 42 l 1
 58 42 l 1
 58 43 l 1
59 42 m 1
 58 42 l 1
 58 41 l 1
 60 41 l 1
 60 43 l 1
 59 43 l 1
 59 42 l 1
63 43 m 1
 61 43 l 1
 61 41 l 1
 63 41 l 1
 63 43 l 1
63 39 m 1
 61 39 l 1
 61 37 l 1
 63 37 l 1
 63 39 l 1
63 35 m 1
 61 35 l 1
 61 33 l 1
 63 33 l 1
 63 35 l 1
63 31 m 1
 61 31 l 1
 61 29 l 1
 63 29 l 1
 63 31 l 1
31 27 m 1
 29 27 l 1
 29 25 l 1
 31 25 l 1
 31 27 l 1
41 27 m 1
 39 27 l 1
 39 25 l 1
 41 25 l 1
 41 27 l 1
44 27 m 1
 42 27 l 1
 42 25 l 1
 43 25 l 1
 43 26 l 1
 44 26 l 1
 44 27 l 1
46 27 m 1
 45 27 l 1
 45 26 l 1
 44 26 l 1
 44 25 l 1
 46 25 l 1
 46 27 l 1
49 27 m 1
 47 27 l 1
 47 25 l 1
 49 25 l 1
 49 27 l 1
63 27 m 1
 61 27 l 1
 61 25 l 1
 63 25 l 1
 63 27 l 1
EndSplineSet
EndChar

StartChar: custom_2_7_0_2_2
Encoding: 28090 28090 8122
Width: 70
Flags: H
LayerCount: 2
Fore
SplineSet
23 43 m 1
 21 43 l 1
 21 41 l 1
 23 41 l 1
 23 43 l 1
26 43 m 1
 24 43 l 1
 24 41 l 1
 25 41 l 1
 25 42 l 1
 26 42 l 1
 26 43 l 1
27 42 m 1
 26 42 l 1
 26 41 l 1
 28 41 l 1
 28 43 l 1
 27 43 l 1
 27 42 l 1
31 43 m 1
 29 43 l 1
 29 41 l 1
 31 41 l 1
 31 43 l 1
31 39 m 1
 29 39 l 1
 29 37 l 1
 31 37 l 1
 31 39 l 1
31 35 m 1
 29 35 l 1
 29 33 l 1
 31 33 l 1
 31 35 l 1
36 37 m 1
 34 37 l 1
 34 35 l 1
 36 35 l 1
 36 37 l 1
31 31 m 1
 29 31 l 1
 29 29 l 1
 31 29 l 1
 31 31 l 1
36 33 m 1
 34 33 l 1
 34 31 l 1
 36 31 l 1
 36 33 l 1
41 43 m 1
 39 43 l 1
 39 41 l 1
 41 41 l 1
 41 43 l 1
44 43 m 1
 42 43 l 1
 42 41 l 1
 43 41 l 1
 43 42 l 1
 44 42 l 1
 44 43 l 1
46 43 m 1
 45 43 l 1
 45 42 l 1
 44 42 l 1
 44 41 l 1
 46 41 l 1
 46 43 l 1
49 43 m 1
 47 43 l 1
 47 41 l 1
 49 41 l 1
 49 43 l 1
49 39 m 1
 47 39 l 1
 47 37 l 1
 49 37 l 1
 49 39 l 1
41 35 m 1
 39 35 l 1
 39 33 l 1
 41 33 l 1
 41 35 l 1
43 35 m 1
 42 35 l 1
 42 33 l 1
 44 33 l 1
 44 34 l 1
 43 34 l 1
 43 35 l 1
41 31 m 1
 39 31 l 1
 39 29 l 1
 41 29 l 1
 41 31 l 1
46 35 m 1
 44 35 l 1
 44 34 l 1
 45 34 l 1
 45 33 l 1
 46 33 l 1
 46 35 l 1
49 35 m 1
 47 35 l 1
 47 33 l 1
 49 33 l 1
 49 35 l 1
55 43 m 1
 53 43 l 1
 53 41 l 1
 55 41 l 1
 55 43 l 1
58 43 m 1
 56 43 l 1
 56 41 l 1
 57 41 l 1
 57 42 l 1
 58 42 l 1
 58 43 l 1
59 42 m 1
 58 42 l 1
 58 41 l 1
 60 41 l 1
 60 43 l 1
 59 43 l 1
 59 42 l 1
63 43 m 1
 61 43 l 1
 61 41 l 1
 63 41 l 1
 63 43 l 1
63 39 m 1
 61 39 l 1
 61 37 l 1
 63 37 l 1
 63 39 l 1
63 35 m 1
 61 35 l 1
 61 33 l 1
 63 33 l 1
 63 35 l 1
63 31 m 1
 61 31 l 1
 61 29 l 1
 63 29 l 1
 63 31 l 1
31 27 m 1
 29 27 l 1
 29 25 l 1
 31 25 l 1
 31 27 l 1
41 27 m 1
 39 27 l 1
 39 25 l 1
 41 25 l 1
 41 27 l 1
44 27 m 1
 42 27 l 1
 42 25 l 1
 43 25 l 1
 43 26 l 1
 44 26 l 1
 44 27 l 1
46 27 m 1
 45 27 l 1
 45 26 l 1
 44 26 l 1
 44 25 l 1
 46 25 l 1
 46 27 l 1
49 27 m 1
 47 27 l 1
 47 25 l 1
 49 25 l 1
 49 27 l 1
63 27 m 1
 61 27 l 1
 61 25 l 1
 63 25 l 1
 63 27 l 1
EndSplineSet
EndChar

StartChar: custom_2_7_0_2_3
Encoding: 28091 28091 8123
Width: 70
Flags: H
LayerCount: 2
Fore
SplineSet
23 43 m 1
 21 43 l 1
 21 41 l 1
 23 41 l 1
 23 43 l 1
26 43 m 1
 24 43 l 1
 24 41 l 1
 25 41 l 1
 25 42 l 1
 26 42 l 1
 26 43 l 1
27 42 m 1
 26 42 l 1
 26 41 l 1
 28 41 l 1
 28 43 l 1
 27 43 l 1
 27 42 l 1
31 43 m 1
 29 43 l 1
 29 41 l 1
 31 41 l 1
 31 43 l 1
31 39 m 1
 29 39 l 1
 29 37 l 1
 31 37 l 1
 31 39 l 1
31 35 m 1
 29 35 l 1
 29 33 l 1
 31 33 l 1
 31 35 l 1
36 37 m 1
 34 37 l 1
 34 35 l 1
 36 35 l 1
 36 37 l 1
31 31 m 1
 29 31 l 1
 29 29 l 1
 31 29 l 1
 31 31 l 1
36 33 m 1
 34 33 l 1
 34 31 l 1
 36 31 l 1
 36 33 l 1
41 43 m 1
 39 43 l 1
 39 41 l 1
 41 41 l 1
 41 43 l 1
44 43 m 1
 42 43 l 1
 42 41 l 1
 43 41 l 1
 43 42 l 1
 44 42 l 1
 44 43 l 1
46 43 m 1
 45 43 l 1
 45 42 l 1
 44 42 l 1
 44 41 l 1
 46 41 l 1
 46 43 l 1
49 43 m 1
 47 43 l 1
 47 41 l 1
 49 41 l 1
 49 43 l 1
49 39 m 1
 47 39 l 1
 47 37 l 1
 49 37 l 1
 49 39 l 1
41 35 m 1
 39 35 l 1
 39 33 l 1
 41 33 l 1
 41 35 l 1
43 35 m 1
 42 35 l 1
 42 33 l 1
 44 33 l 1
 44 34 l 1
 43 34 l 1
 43 35 l 1
41 31 m 1
 39 31 l 1
 39 29 l 1
 41 29 l 1
 41 31 l 1
46 35 m 1
 44 35 l 1
 44 34 l 1
 45 34 l 1
 45 33 l 1
 46 33 l 1
 46 35 l 1
49 35 m 1
 47 35 l 1
 47 33 l 1
 49 33 l 1
 49 35 l 1
55 43 m 1
 53 43 l 1
 53 41 l 1
 55 41 l 1
 55 43 l 1
58 43 m 1
 56 43 l 1
 56 41 l 1
 57 41 l 1
 57 42 l 1
 58 42 l 1
 58 43 l 1
59 42 m 1
 58 42 l 1
 58 41 l 1
 60 41 l 1
 60 43 l 1
 59 43 l 1
 59 42 l 1
63 43 m 1
 61 43 l 1
 61 41 l 1
 63 41 l 1
 63 43 l 1
63 39 m 1
 61 39 l 1
 61 37 l 1
 63 37 l 1
 63 39 l 1
63 35 m 1
 61 35 l 1
 61 33 l 1
 63 33 l 1
 63 35 l 1
63 31 m 1
 61 31 l 1
 61 29 l 1
 63 29 l 1
 63 31 l 1
31 27 m 1
 29 27 l 1
 29 25 l 1
 31 25 l 1
 31 27 l 1
41 27 m 1
 39 27 l 1
 39 25 l 1
 41 25 l 1
 41 27 l 1
44 27 m 1
 42 27 l 1
 42 25 l 1
 43 25 l 1
 43 26 l 1
 44 26 l 1
 44 27 l 1
46 27 m 1
 45 27 l 1
 45 26 l 1
 44 26 l 1
 44 25 l 1
 46 25 l 1
 46 27 l 1
49 27 m 1
 47 27 l 1
 47 25 l 1
 49 25 l 1
 49 27 l 1
63 27 m 1
 61 27 l 1
 61 25 l 1
 63 25 l 1
 63 27 l 1
EndSplineSet
EndChar

StartChar: custom_2_7_0_2_4
Encoding: 28092 28092 8124
Width: 70
Flags: H
LayerCount: 2
Fore
SplineSet
23 43 m 1
 21 43 l 1
 21 41 l 1
 23 41 l 1
 23 43 l 1
26 43 m 1
 24 43 l 1
 24 41 l 1
 25 41 l 1
 25 42 l 1
 26 42 l 1
 26 43 l 1
27 42 m 1
 26 42 l 1
 26 41 l 1
 28 41 l 1
 28 43 l 1
 27 43 l 1
 27 42 l 1
31 43 m 1
 29 43 l 1
 29 41 l 1
 31 41 l 1
 31 43 l 1
31 39 m 1
 29 39 l 1
 29 37 l 1
 31 37 l 1
 31 39 l 1
31 35 m 1
 29 35 l 1
 29 33 l 1
 31 33 l 1
 31 35 l 1
36 37 m 1
 34 37 l 1
 34 35 l 1
 36 35 l 1
 36 37 l 1
31 31 m 1
 29 31 l 1
 29 29 l 1
 31 29 l 1
 31 31 l 1
36 33 m 1
 34 33 l 1
 34 31 l 1
 36 31 l 1
 36 33 l 1
41 43 m 1
 39 43 l 1
 39 41 l 1
 41 41 l 1
 41 43 l 1
44 43 m 1
 42 43 l 1
 42 41 l 1
 43 41 l 1
 43 42 l 1
 44 42 l 1
 44 43 l 1
46 43 m 1
 45 43 l 1
 45 42 l 1
 44 42 l 1
 44 41 l 1
 46 41 l 1
 46 43 l 1
49 43 m 1
 47 43 l 1
 47 41 l 1
 49 41 l 1
 49 43 l 1
49 39 m 1
 47 39 l 1
 47 37 l 1
 49 37 l 1
 49 39 l 1
41 35 m 1
 39 35 l 1
 39 33 l 1
 41 33 l 1
 41 35 l 1
43 35 m 1
 42 35 l 1
 42 33 l 1
 44 33 l 1
 44 34 l 1
 43 34 l 1
 43 35 l 1
41 31 m 1
 39 31 l 1
 39 29 l 1
 41 29 l 1
 41 31 l 1
46 35 m 1
 44 35 l 1
 44 34 l 1
 45 34 l 1
 45 33 l 1
 46 33 l 1
 46 35 l 1
49 35 m 1
 47 35 l 1
 47 33 l 1
 49 33 l 1
 49 35 l 1
55 43 m 1
 53 43 l 1
 53 41 l 1
 55 41 l 1
 55 43 l 1
58 43 m 1
 56 43 l 1
 56 41 l 1
 57 41 l 1
 57 42 l 1
 58 42 l 1
 58 43 l 1
59 42 m 1
 58 42 l 1
 58 41 l 1
 60 41 l 1
 60 43 l 1
 59 43 l 1
 59 42 l 1
63 43 m 1
 61 43 l 1
 61 41 l 1
 63 41 l 1
 63 43 l 1
63 39 m 1
 61 39 l 1
 61 37 l 1
 63 37 l 1
 63 39 l 1
63 35 m 1
 61 35 l 1
 61 33 l 1
 63 33 l 1
 63 35 l 1
63 31 m 1
 61 31 l 1
 61 29 l 1
 63 29 l 1
 63 31 l 1
31 27 m 1
 29 27 l 1
 29 25 l 1
 31 25 l 1
 31 27 l 1
41 27 m 1
 39 27 l 1
 39 25 l 1
 41 25 l 1
 41 27 l 1
44 27 m 1
 42 27 l 1
 42 25 l 1
 43 25 l 1
 43 26 l 1
 44 26 l 1
 44 27 l 1
46 27 m 1
 45 27 l 1
 45 26 l 1
 44 26 l 1
 44 25 l 1
 46 25 l 1
 46 27 l 1
49 27 m 1
 47 27 l 1
 47 25 l 1
 49 25 l 1
 49 27 l 1
63 27 m 1
 61 27 l 1
 61 25 l 1
 63 25 l 1
 63 27 l 1
EndSplineSet
EndChar

StartChar: custom_2_7_0_2_5
Encoding: 28093 28093 8125
Width: 70
Flags: H
LayerCount: 2
Fore
SplineSet
23 43 m 1
 21 43 l 1
 21 41 l 1
 23 41 l 1
 23 43 l 1
26 43 m 1
 24 43 l 1
 24 41 l 1
 25 41 l 1
 25 42 l 1
 26 42 l 1
 26 43 l 1
27 42 m 1
 26 42 l 1
 26 41 l 1
 28 41 l 1
 28 43 l 1
 27 43 l 1
 27 42 l 1
31 43 m 1
 29 43 l 1
 29 41 l 1
 31 41 l 1
 31 43 l 1
31 39 m 1
 29 39 l 1
 29 37 l 1
 31 37 l 1
 31 39 l 1
31 35 m 1
 29 35 l 1
 29 33 l 1
 31 33 l 1
 31 35 l 1
36 37 m 1
 34 37 l 1
 34 35 l 1
 36 35 l 1
 36 37 l 1
31 31 m 1
 29 31 l 1
 29 29 l 1
 31 29 l 1
 31 31 l 1
36 33 m 1
 34 33 l 1
 34 31 l 1
 36 31 l 1
 36 33 l 1
41 43 m 1
 39 43 l 1
 39 41 l 1
 41 41 l 1
 41 43 l 1
44 43 m 1
 42 43 l 1
 42 41 l 1
 43 41 l 1
 43 42 l 1
 44 42 l 1
 44 43 l 1
46 43 m 1
 45 43 l 1
 45 42 l 1
 44 42 l 1
 44 41 l 1
 46 41 l 1
 46 43 l 1
49 43 m 1
 47 43 l 1
 47 41 l 1
 49 41 l 1
 49 43 l 1
49 39 m 1
 47 39 l 1
 47 37 l 1
 49 37 l 1
 49 39 l 1
41 35 m 1
 39 35 l 1
 39 33 l 1
 41 33 l 1
 41 35 l 1
43 35 m 1
 42 35 l 1
 42 33 l 1
 44 33 l 1
 44 34 l 1
 43 34 l 1
 43 35 l 1
41 31 m 1
 39 31 l 1
 39 29 l 1
 41 29 l 1
 41 31 l 1
46 35 m 1
 44 35 l 1
 44 34 l 1
 45 34 l 1
 45 33 l 1
 46 33 l 1
 46 35 l 1
49 35 m 1
 47 35 l 1
 47 33 l 1
 49 33 l 1
 49 35 l 1
55 43 m 1
 53 43 l 1
 53 41 l 1
 55 41 l 1
 55 43 l 1
58 43 m 1
 56 43 l 1
 56 41 l 1
 57 41 l 1
 57 42 l 1
 58 42 l 1
 58 43 l 1
59 42 m 1
 58 42 l 1
 58 41 l 1
 60 41 l 1
 60 43 l 1
 59 43 l 1
 59 42 l 1
63 43 m 1
 61 43 l 1
 61 41 l 1
 63 41 l 1
 63 43 l 1
63 39 m 1
 61 39 l 1
 61 37 l 1
 63 37 l 1
 63 39 l 1
63 35 m 1
 61 35 l 1
 61 33 l 1
 63 33 l 1
 63 35 l 1
63 31 m 1
 61 31 l 1
 61 29 l 1
 63 29 l 1
 63 31 l 1
31 27 m 1
 29 27 l 1
 29 25 l 1
 31 25 l 1
 31 27 l 1
41 27 m 1
 39 27 l 1
 39 25 l 1
 41 25 l 1
 41 27 l 1
44 27 m 1
 42 27 l 1
 42 25 l 1
 43 25 l 1
 43 26 l 1
 44 26 l 1
 44 27 l 1
46 27 m 1
 45 27 l 1
 45 26 l 1
 44 26 l 1
 44 25 l 1
 46 25 l 1
 46 27 l 1
49 27 m 1
 47 27 l 1
 47 25 l 1
 49 25 l 1
 49 27 l 1
63 27 m 1
 61 27 l 1
 61 25 l 1
 63 25 l 1
 63 27 l 1
EndSplineSet
EndChar

StartChar: custom_2_7_0_2_6
Encoding: 28094 28094 8126
Width: 70
Flags: H
LayerCount: 2
Fore
SplineSet
23 43 m 1
 21 43 l 1
 21 41 l 1
 23 41 l 1
 23 43 l 1
26 43 m 1
 24 43 l 1
 24 41 l 1
 25 41 l 1
 25 42 l 1
 26 42 l 1
 26 43 l 1
27 42 m 1
 26 42 l 1
 26 41 l 1
 28 41 l 1
 28 43 l 1
 27 43 l 1
 27 42 l 1
31 43 m 1
 29 43 l 1
 29 41 l 1
 31 41 l 1
 31 43 l 1
31 39 m 1
 29 39 l 1
 29 37 l 1
 31 37 l 1
 31 39 l 1
31 35 m 1
 29 35 l 1
 29 33 l 1
 31 33 l 1
 31 35 l 1
36 37 m 1
 34 37 l 1
 34 35 l 1
 36 35 l 1
 36 37 l 1
31 31 m 1
 29 31 l 1
 29 29 l 1
 31 29 l 1
 31 31 l 1
36 33 m 1
 34 33 l 1
 34 31 l 1
 36 31 l 1
 36 33 l 1
41 43 m 1
 39 43 l 1
 39 41 l 1
 41 41 l 1
 41 43 l 1
44 43 m 1
 42 43 l 1
 42 41 l 1
 43 41 l 1
 43 42 l 1
 44 42 l 1
 44 43 l 1
46 43 m 1
 45 43 l 1
 45 42 l 1
 44 42 l 1
 44 41 l 1
 46 41 l 1
 46 43 l 1
49 43 m 1
 47 43 l 1
 47 41 l 1
 49 41 l 1
 49 43 l 1
49 39 m 1
 47 39 l 1
 47 37 l 1
 49 37 l 1
 49 39 l 1
41 35 m 1
 39 35 l 1
 39 33 l 1
 41 33 l 1
 41 35 l 1
43 35 m 1
 42 35 l 1
 42 33 l 1
 44 33 l 1
 44 34 l 1
 43 34 l 1
 43 35 l 1
41 31 m 1
 39 31 l 1
 39 29 l 1
 41 29 l 1
 41 31 l 1
46 35 m 1
 44 35 l 1
 44 34 l 1
 45 34 l 1
 45 33 l 1
 46 33 l 1
 46 35 l 1
49 35 m 1
 47 35 l 1
 47 33 l 1
 49 33 l 1
 49 35 l 1
55 43 m 1
 53 43 l 1
 53 41 l 1
 55 41 l 1
 55 43 l 1
58 43 m 1
 56 43 l 1
 56 41 l 1
 57 41 l 1
 57 42 l 1
 58 42 l 1
 58 43 l 1
59 42 m 1
 58 42 l 1
 58 41 l 1
 60 41 l 1
 60 43 l 1
 59 43 l 1
 59 42 l 1
63 43 m 1
 61 43 l 1
 61 41 l 1
 63 41 l 1
 63 43 l 1
63 39 m 1
 61 39 l 1
 61 37 l 1
 63 37 l 1
 63 39 l 1
63 35 m 1
 61 35 l 1
 61 33 l 1
 63 33 l 1
 63 35 l 1
63 31 m 1
 61 31 l 1
 61 29 l 1
 63 29 l 1
 63 31 l 1
31 27 m 1
 29 27 l 1
 29 25 l 1
 31 25 l 1
 31 27 l 1
41 27 m 1
 39 27 l 1
 39 25 l 1
 41 25 l 1
 41 27 l 1
44 27 m 1
 42 27 l 1
 42 25 l 1
 43 25 l 1
 43 26 l 1
 44 26 l 1
 44 27 l 1
46 27 m 1
 45 27 l 1
 45 26 l 1
 44 26 l 1
 44 25 l 1
 46 25 l 1
 46 27 l 1
49 27 m 1
 47 27 l 1
 47 25 l 1
 49 25 l 1
 49 27 l 1
63 27 m 1
 61 27 l 1
 61 25 l 1
 63 25 l 1
 63 27 l 1
EndSplineSet
EndChar

StartChar: custom_2_7_0_2_7
Encoding: 28095 28095 8127
Width: 70
Flags: H
LayerCount: 2
Fore
SplineSet
23 43 m 1
 21 43 l 1
 21 41 l 1
 23 41 l 1
 23 43 l 1
26 43 m 1
 24 43 l 1
 24 41 l 1
 25 41 l 1
 25 42 l 1
 26 42 l 1
 26 43 l 1
27 42 m 1
 26 42 l 1
 26 41 l 1
 28 41 l 1
 28 43 l 1
 27 43 l 1
 27 42 l 1
31 43 m 1
 29 43 l 1
 29 41 l 1
 31 41 l 1
 31 43 l 1
31 39 m 1
 29 39 l 1
 29 37 l 1
 31 37 l 1
 31 39 l 1
31 35 m 1
 29 35 l 1
 29 33 l 1
 31 33 l 1
 31 35 l 1
36 37 m 1
 34 37 l 1
 34 35 l 1
 36 35 l 1
 36 37 l 1
31 31 m 1
 29 31 l 1
 29 29 l 1
 31 29 l 1
 31 31 l 1
36 33 m 1
 34 33 l 1
 34 31 l 1
 36 31 l 1
 36 33 l 1
41 43 m 1
 39 43 l 1
 39 41 l 1
 41 41 l 1
 41 43 l 1
44 43 m 1
 42 43 l 1
 42 41 l 1
 43 41 l 1
 43 42 l 1
 44 42 l 1
 44 43 l 1
46 43 m 1
 45 43 l 1
 45 42 l 1
 44 42 l 1
 44 41 l 1
 46 41 l 1
 46 43 l 1
49 43 m 1
 47 43 l 1
 47 41 l 1
 49 41 l 1
 49 43 l 1
49 39 m 1
 47 39 l 1
 47 37 l 1
 49 37 l 1
 49 39 l 1
41 35 m 1
 39 35 l 1
 39 33 l 1
 41 33 l 1
 41 35 l 1
43 35 m 1
 42 35 l 1
 42 33 l 1
 44 33 l 1
 44 34 l 1
 43 34 l 1
 43 35 l 1
41 31 m 1
 39 31 l 1
 39 29 l 1
 41 29 l 1
 41 31 l 1
46 35 m 1
 44 35 l 1
 44 34 l 1
 45 34 l 1
 45 33 l 1
 46 33 l 1
 46 35 l 1
49 35 m 1
 47 35 l 1
 47 33 l 1
 49 33 l 1
 49 35 l 1
55 43 m 1
 53 43 l 1
 53 41 l 1
 55 41 l 1
 55 43 l 1
58 43 m 1
 56 43 l 1
 56 41 l 1
 57 41 l 1
 57 42 l 1
 58 42 l 1
 58 43 l 1
59 42 m 1
 58 42 l 1
 58 41 l 1
 60 41 l 1
 60 43 l 1
 59 43 l 1
 59 42 l 1
63 43 m 1
 61 43 l 1
 61 41 l 1
 63 41 l 1
 63 43 l 1
63 39 m 1
 61 39 l 1
 61 37 l 1
 63 37 l 1
 63 39 l 1
63 35 m 1
 61 35 l 1
 61 33 l 1
 63 33 l 1
 63 35 l 1
63 31 m 1
 61 31 l 1
 61 29 l 1
 63 29 l 1
 63 31 l 1
31 27 m 1
 29 27 l 1
 29 25 l 1
 31 25 l 1
 31 27 l 1
41 27 m 1
 39 27 l 1
 39 25 l 1
 41 25 l 1
 41 27 l 1
44 27 m 1
 42 27 l 1
 42 25 l 1
 43 25 l 1
 43 26 l 1
 44 26 l 1
 44 27 l 1
46 27 m 1
 45 27 l 1
 45 26 l 1
 44 26 l 1
 44 25 l 1
 46 25 l 1
 46 27 l 1
49 27 m 1
 47 27 l 1
 47 25 l 1
 49 25 l 1
 49 27 l 1
63 27 m 1
 61 27 l 1
 61 25 l 1
 63 25 l 1
 63 27 l 1
EndSplineSet
EndChar

StartChar: custom_2_7_0_2_8
Encoding: 28096 28096 8128
Width: 70
Flags: H
LayerCount: 2
Fore
SplineSet
23 43 m 1
 21 43 l 1
 21 41 l 1
 23 41 l 1
 23 43 l 1
26 43 m 1
 24 43 l 1
 24 41 l 1
 25 41 l 1
 25 42 l 1
 26 42 l 1
 26 43 l 1
27 42 m 1
 26 42 l 1
 26 41 l 1
 28 41 l 1
 28 43 l 1
 27 43 l 1
 27 42 l 1
31 43 m 1
 29 43 l 1
 29 41 l 1
 31 41 l 1
 31 43 l 1
31 39 m 1
 29 39 l 1
 29 37 l 1
 31 37 l 1
 31 39 l 1
31 35 m 1
 29 35 l 1
 29 33 l 1
 31 33 l 1
 31 35 l 1
36 37 m 1
 34 37 l 1
 34 35 l 1
 36 35 l 1
 36 37 l 1
31 31 m 1
 29 31 l 1
 29 29 l 1
 31 29 l 1
 31 31 l 1
36 33 m 1
 34 33 l 1
 34 31 l 1
 36 31 l 1
 36 33 l 1
41 43 m 1
 39 43 l 1
 39 41 l 1
 41 41 l 1
 41 43 l 1
44 43 m 1
 42 43 l 1
 42 41 l 1
 43 41 l 1
 43 42 l 1
 44 42 l 1
 44 43 l 1
46 43 m 1
 45 43 l 1
 45 42 l 1
 44 42 l 1
 44 41 l 1
 46 41 l 1
 46 43 l 1
49 43 m 1
 47 43 l 1
 47 41 l 1
 49 41 l 1
 49 43 l 1
49 39 m 1
 47 39 l 1
 47 37 l 1
 49 37 l 1
 49 39 l 1
41 35 m 1
 39 35 l 1
 39 33 l 1
 41 33 l 1
 41 35 l 1
43 35 m 1
 42 35 l 1
 42 33 l 1
 44 33 l 1
 44 34 l 1
 43 34 l 1
 43 35 l 1
41 31 m 1
 39 31 l 1
 39 29 l 1
 41 29 l 1
 41 31 l 1
46 35 m 1
 44 35 l 1
 44 34 l 1
 45 34 l 1
 45 33 l 1
 46 33 l 1
 46 35 l 1
49 35 m 1
 47 35 l 1
 47 33 l 1
 49 33 l 1
 49 35 l 1
55 43 m 1
 53 43 l 1
 53 41 l 1
 55 41 l 1
 55 43 l 1
58 43 m 1
 56 43 l 1
 56 41 l 1
 57 41 l 1
 57 42 l 1
 58 42 l 1
 58 43 l 1
59 42 m 1
 58 42 l 1
 58 41 l 1
 60 41 l 1
 60 43 l 1
 59 43 l 1
 59 42 l 1
63 43 m 1
 61 43 l 1
 61 41 l 1
 63 41 l 1
 63 43 l 1
63 39 m 1
 61 39 l 1
 61 37 l 1
 63 37 l 1
 63 39 l 1
63 35 m 1
 61 35 l 1
 61 33 l 1
 63 33 l 1
 63 35 l 1
63 31 m 1
 61 31 l 1
 61 29 l 1
 63 29 l 1
 63 31 l 1
31 27 m 1
 29 27 l 1
 29 25 l 1
 31 25 l 1
 31 27 l 1
41 27 m 1
 39 27 l 1
 39 25 l 1
 41 25 l 1
 41 27 l 1
44 27 m 1
 42 27 l 1
 42 25 l 1
 43 25 l 1
 43 26 l 1
 44 26 l 1
 44 27 l 1
46 27 m 1
 45 27 l 1
 45 26 l 1
 44 26 l 1
 44 25 l 1
 46 25 l 1
 46 27 l 1
49 27 m 1
 47 27 l 1
 47 25 l 1
 49 25 l 1
 49 27 l 1
63 27 m 1
 61 27 l 1
 61 25 l 1
 63 25 l 1
 63 27 l 1
EndSplineSet
EndChar

StartChar: custom_2_7_0_2_9
Encoding: 28097 28097 8129
Width: 70
Flags: H
LayerCount: 2
Fore
SplineSet
23 43 m 1
 21 43 l 1
 21 41 l 1
 23 41 l 1
 23 43 l 1
26 43 m 1
 24 43 l 1
 24 41 l 1
 25 41 l 1
 25 42 l 1
 26 42 l 1
 26 43 l 1
27 42 m 1
 26 42 l 1
 26 41 l 1
 28 41 l 1
 28 43 l 1
 27 43 l 1
 27 42 l 1
31 43 m 1
 29 43 l 1
 29 41 l 1
 31 41 l 1
 31 43 l 1
31 39 m 1
 29 39 l 1
 29 37 l 1
 31 37 l 1
 31 39 l 1
31 35 m 1
 29 35 l 1
 29 33 l 1
 31 33 l 1
 31 35 l 1
36 37 m 1
 34 37 l 1
 34 35 l 1
 36 35 l 1
 36 37 l 1
31 31 m 1
 29 31 l 1
 29 29 l 1
 31 29 l 1
 31 31 l 1
36 33 m 1
 34 33 l 1
 34 31 l 1
 36 31 l 1
 36 33 l 1
41 43 m 1
 39 43 l 1
 39 41 l 1
 41 41 l 1
 41 43 l 1
44 43 m 1
 42 43 l 1
 42 41 l 1
 43 41 l 1
 43 42 l 1
 44 42 l 1
 44 43 l 1
46 43 m 1
 45 43 l 1
 45 42 l 1
 44 42 l 1
 44 41 l 1
 46 41 l 1
 46 43 l 1
49 43 m 1
 47 43 l 1
 47 41 l 1
 49 41 l 1
 49 43 l 1
49 39 m 1
 47 39 l 1
 47 37 l 1
 49 37 l 1
 49 39 l 1
41 35 m 1
 39 35 l 1
 39 33 l 1
 41 33 l 1
 41 35 l 1
43 35 m 1
 42 35 l 1
 42 33 l 1
 44 33 l 1
 44 34 l 1
 43 34 l 1
 43 35 l 1
41 31 m 1
 39 31 l 1
 39 29 l 1
 41 29 l 1
 41 31 l 1
46 35 m 1
 44 35 l 1
 44 34 l 1
 45 34 l 1
 45 33 l 1
 46 33 l 1
 46 35 l 1
49 35 m 1
 47 35 l 1
 47 33 l 1
 49 33 l 1
 49 35 l 1
55 43 m 1
 53 43 l 1
 53 41 l 1
 55 41 l 1
 55 43 l 1
58 43 m 1
 56 43 l 1
 56 41 l 1
 57 41 l 1
 57 42 l 1
 58 42 l 1
 58 43 l 1
59 42 m 1
 58 42 l 1
 58 41 l 1
 60 41 l 1
 60 43 l 1
 59 43 l 1
 59 42 l 1
63 43 m 1
 61 43 l 1
 61 41 l 1
 63 41 l 1
 63 43 l 1
63 39 m 1
 61 39 l 1
 61 37 l 1
 63 37 l 1
 63 39 l 1
63 35 m 1
 61 35 l 1
 61 33 l 1
 63 33 l 1
 63 35 l 1
63 31 m 1
 61 31 l 1
 61 29 l 1
 63 29 l 1
 63 31 l 1
31 27 m 1
 29 27 l 1
 29 25 l 1
 31 25 l 1
 31 27 l 1
41 27 m 1
 39 27 l 1
 39 25 l 1
 41 25 l 1
 41 27 l 1
44 27 m 1
 42 27 l 1
 42 25 l 1
 43 25 l 1
 43 26 l 1
 44 26 l 1
 44 27 l 1
46 27 m 1
 45 27 l 1
 45 26 l 1
 44 26 l 1
 44 25 l 1
 46 25 l 1
 46 27 l 1
49 27 m 1
 47 27 l 1
 47 25 l 1
 49 25 l 1
 49 27 l 1
63 27 m 1
 61 27 l 1
 61 25 l 1
 63 25 l 1
 63 27 l 1
EndSplineSet
EndChar

StartChar: custom_2_7_0_3_0
Encoding: 28098 28098 8130
Width: 70
Flags: H
LayerCount: 2
Fore
SplineSet
23 43 m 1
 21 43 l 1
 21 41 l 1
 23 41 l 1
 23 43 l 1
26 43 m 1
 24 43 l 1
 24 41 l 1
 25 41 l 1
 25 42 l 1
 26 42 l 1
 26 43 l 1
27 42 m 1
 26 42 l 1
 26 41 l 1
 28 41 l 1
 28 43 l 1
 27 43 l 1
 27 42 l 1
31 43 m 1
 29 43 l 1
 29 41 l 1
 31 41 l 1
 31 43 l 1
31 39 m 1
 29 39 l 1
 29 37 l 1
 31 37 l 1
 31 39 l 1
31 35 m 1
 29 35 l 1
 29 33 l 1
 31 33 l 1
 31 35 l 1
36 37 m 1
 34 37 l 1
 34 35 l 1
 36 35 l 1
 36 37 l 1
31 31 m 1
 29 31 l 1
 29 29 l 1
 31 29 l 1
 31 31 l 1
36 33 m 1
 34 33 l 1
 34 31 l 1
 36 31 l 1
 36 33 l 1
41 43 m 1
 39 43 l 1
 39 41 l 1
 41 41 l 1
 41 43 l 1
44 43 m 1
 42 43 l 1
 42 41 l 1
 43 41 l 1
 43 42 l 1
 44 42 l 1
 44 43 l 1
46 43 m 1
 45 43 l 1
 45 42 l 1
 44 42 l 1
 44 41 l 1
 46 41 l 1
 46 43 l 1
49 43 m 1
 47 43 l 1
 47 41 l 1
 49 41 l 1
 49 43 l 1
49 39 m 1
 47 39 l 1
 47 37 l 1
 49 37 l 1
 49 39 l 1
41 35 m 1
 39 35 l 1
 39 33 l 1
 41 33 l 1
 41 35 l 1
43 35 m 1
 42 35 l 1
 42 33 l 1
 44 33 l 1
 44 34 l 1
 43 34 l 1
 43 35 l 1
41 31 m 1
 39 31 l 1
 39 29 l 1
 41 29 l 1
 41 31 l 1
46 35 m 1
 44 35 l 1
 44 34 l 1
 45 34 l 1
 45 33 l 1
 46 33 l 1
 46 35 l 1
49 35 m 1
 47 35 l 1
 47 33 l 1
 49 33 l 1
 49 35 l 1
55 43 m 1
 53 43 l 1
 53 41 l 1
 55 41 l 1
 55 43 l 1
58 43 m 1
 56 43 l 1
 56 41 l 1
 57 41 l 1
 57 42 l 1
 58 42 l 1
 58 43 l 1
59 42 m 1
 58 42 l 1
 58 41 l 1
 60 41 l 1
 60 43 l 1
 59 43 l 1
 59 42 l 1
63 43 m 1
 61 43 l 1
 61 41 l 1
 63 41 l 1
 63 43 l 1
63 39 m 1
 61 39 l 1
 61 37 l 1
 63 37 l 1
 63 39 l 1
63 35 m 1
 61 35 l 1
 61 33 l 1
 63 33 l 1
 63 35 l 1
63 31 m 1
 61 31 l 1
 61 29 l 1
 63 29 l 1
 63 31 l 1
31 27 m 1
 29 27 l 1
 29 25 l 1
 31 25 l 1
 31 27 l 1
41 27 m 1
 39 27 l 1
 39 25 l 1
 41 25 l 1
 41 27 l 1
44 27 m 1
 42 27 l 1
 42 25 l 1
 43 25 l 1
 43 26 l 1
 44 26 l 1
 44 27 l 1
46 27 m 1
 45 27 l 1
 45 26 l 1
 44 26 l 1
 44 25 l 1
 46 25 l 1
 46 27 l 1
49 27 m 1
 47 27 l 1
 47 25 l 1
 49 25 l 1
 49 27 l 1
63 27 m 1
 61 27 l 1
 61 25 l 1
 63 25 l 1
 63 27 l 1
EndSplineSet
EndChar

StartChar: custom_2_7_0_3_1
Encoding: 28099 28099 8131
Width: 70
Flags: H
LayerCount: 2
Fore
SplineSet
23 43 m 1
 21 43 l 1
 21 41 l 1
 23 41 l 1
 23 43 l 1
26 43 m 1
 24 43 l 1
 24 41 l 1
 25 41 l 1
 25 42 l 1
 26 42 l 1
 26 43 l 1
27 42 m 1
 26 42 l 1
 26 41 l 1
 28 41 l 1
 28 43 l 1
 27 43 l 1
 27 42 l 1
31 43 m 1
 29 43 l 1
 29 41 l 1
 31 41 l 1
 31 43 l 1
31 39 m 1
 29 39 l 1
 29 37 l 1
 31 37 l 1
 31 39 l 1
31 35 m 1
 29 35 l 1
 29 33 l 1
 31 33 l 1
 31 35 l 1
36 37 m 1
 34 37 l 1
 34 35 l 1
 36 35 l 1
 36 37 l 1
31 31 m 1
 29 31 l 1
 29 29 l 1
 31 29 l 1
 31 31 l 1
36 33 m 1
 34 33 l 1
 34 31 l 1
 36 31 l 1
 36 33 l 1
41 43 m 1
 39 43 l 1
 39 41 l 1
 41 41 l 1
 41 43 l 1
44 43 m 1
 42 43 l 1
 42 41 l 1
 43 41 l 1
 43 42 l 1
 44 42 l 1
 44 43 l 1
46 43 m 1
 45 43 l 1
 45 42 l 1
 44 42 l 1
 44 41 l 1
 46 41 l 1
 46 43 l 1
49 43 m 1
 47 43 l 1
 47 41 l 1
 49 41 l 1
 49 43 l 1
49 39 m 1
 47 39 l 1
 47 37 l 1
 49 37 l 1
 49 39 l 1
41 35 m 1
 39 35 l 1
 39 33 l 1
 41 33 l 1
 41 35 l 1
43 35 m 1
 42 35 l 1
 42 33 l 1
 44 33 l 1
 44 34 l 1
 43 34 l 1
 43 35 l 1
41 31 m 1
 39 31 l 1
 39 29 l 1
 41 29 l 1
 41 31 l 1
46 35 m 1
 44 35 l 1
 44 34 l 1
 45 34 l 1
 45 33 l 1
 46 33 l 1
 46 35 l 1
49 35 m 1
 47 35 l 1
 47 33 l 1
 49 33 l 1
 49 35 l 1
55 43 m 1
 53 43 l 1
 53 41 l 1
 55 41 l 1
 55 43 l 1
58 43 m 1
 56 43 l 1
 56 41 l 1
 57 41 l 1
 57 42 l 1
 58 42 l 1
 58 43 l 1
59 42 m 1
 58 42 l 1
 58 41 l 1
 60 41 l 1
 60 43 l 1
 59 43 l 1
 59 42 l 1
63 43 m 1
 61 43 l 1
 61 41 l 1
 63 41 l 1
 63 43 l 1
63 39 m 1
 61 39 l 1
 61 37 l 1
 63 37 l 1
 63 39 l 1
63 35 m 1
 61 35 l 1
 61 33 l 1
 63 33 l 1
 63 35 l 1
63 31 m 1
 61 31 l 1
 61 29 l 1
 63 29 l 1
 63 31 l 1
31 27 m 1
 29 27 l 1
 29 25 l 1
 31 25 l 1
 31 27 l 1
41 27 m 1
 39 27 l 1
 39 25 l 1
 41 25 l 1
 41 27 l 1
44 27 m 1
 42 27 l 1
 42 25 l 1
 43 25 l 1
 43 26 l 1
 44 26 l 1
 44 27 l 1
46 27 m 1
 45 27 l 1
 45 26 l 1
 44 26 l 1
 44 25 l 1
 46 25 l 1
 46 27 l 1
49 27 m 1
 47 27 l 1
 47 25 l 1
 49 25 l 1
 49 27 l 1
63 27 m 1
 61 27 l 1
 61 25 l 1
 63 25 l 1
 63 27 l 1
EndSplineSet
EndChar

StartChar: custom_2_7_0_3_2
Encoding: 28100 28100 8132
Width: 70
Flags: H
LayerCount: 2
Fore
SplineSet
23 43 m 1
 21 43 l 1
 21 41 l 1
 23 41 l 1
 23 43 l 1
26 43 m 1
 24 43 l 1
 24 41 l 1
 25 41 l 1
 25 42 l 1
 26 42 l 1
 26 43 l 1
27 42 m 1
 26 42 l 1
 26 41 l 1
 28 41 l 1
 28 43 l 1
 27 43 l 1
 27 42 l 1
31 43 m 1
 29 43 l 1
 29 41 l 1
 31 41 l 1
 31 43 l 1
31 39 m 1
 29 39 l 1
 29 37 l 1
 31 37 l 1
 31 39 l 1
31 35 m 1
 29 35 l 1
 29 33 l 1
 31 33 l 1
 31 35 l 1
36 37 m 1
 34 37 l 1
 34 35 l 1
 36 35 l 1
 36 37 l 1
31 31 m 1
 29 31 l 1
 29 29 l 1
 31 29 l 1
 31 31 l 1
36 33 m 1
 34 33 l 1
 34 31 l 1
 36 31 l 1
 36 33 l 1
41 43 m 1
 39 43 l 1
 39 41 l 1
 41 41 l 1
 41 43 l 1
44 43 m 1
 42 43 l 1
 42 41 l 1
 43 41 l 1
 43 42 l 1
 44 42 l 1
 44 43 l 1
46 43 m 1
 45 43 l 1
 45 42 l 1
 44 42 l 1
 44 41 l 1
 46 41 l 1
 46 43 l 1
49 43 m 1
 47 43 l 1
 47 41 l 1
 49 41 l 1
 49 43 l 1
49 39 m 1
 47 39 l 1
 47 37 l 1
 49 37 l 1
 49 39 l 1
41 35 m 1
 39 35 l 1
 39 33 l 1
 41 33 l 1
 41 35 l 1
43 35 m 1
 42 35 l 1
 42 33 l 1
 44 33 l 1
 44 34 l 1
 43 34 l 1
 43 35 l 1
41 31 m 1
 39 31 l 1
 39 29 l 1
 41 29 l 1
 41 31 l 1
46 35 m 1
 44 35 l 1
 44 34 l 1
 45 34 l 1
 45 33 l 1
 46 33 l 1
 46 35 l 1
49 35 m 1
 47 35 l 1
 47 33 l 1
 49 33 l 1
 49 35 l 1
55 43 m 1
 53 43 l 1
 53 41 l 1
 55 41 l 1
 55 43 l 1
58 43 m 1
 56 43 l 1
 56 41 l 1
 57 41 l 1
 57 42 l 1
 58 42 l 1
 58 43 l 1
59 42 m 1
 58 42 l 1
 58 41 l 1
 60 41 l 1
 60 43 l 1
 59 43 l 1
 59 42 l 1
63 43 m 1
 61 43 l 1
 61 41 l 1
 63 41 l 1
 63 43 l 1
63 39 m 1
 61 39 l 1
 61 37 l 1
 63 37 l 1
 63 39 l 1
63 35 m 1
 61 35 l 1
 61 33 l 1
 63 33 l 1
 63 35 l 1
63 31 m 1
 61 31 l 1
 61 29 l 1
 63 29 l 1
 63 31 l 1
31 27 m 1
 29 27 l 1
 29 25 l 1
 31 25 l 1
 31 27 l 1
41 27 m 1
 39 27 l 1
 39 25 l 1
 41 25 l 1
 41 27 l 1
44 27 m 1
 42 27 l 1
 42 25 l 1
 43 25 l 1
 43 26 l 1
 44 26 l 1
 44 27 l 1
46 27 m 1
 45 27 l 1
 45 26 l 1
 44 26 l 1
 44 25 l 1
 46 25 l 1
 46 27 l 1
49 27 m 1
 47 27 l 1
 47 25 l 1
 49 25 l 1
 49 27 l 1
63 27 m 1
 61 27 l 1
 61 25 l 1
 63 25 l 1
 63 27 l 1
EndSplineSet
EndChar

StartChar: custom_2_7_0_3_3
Encoding: 28101 28101 8133
Width: 70
Flags: H
LayerCount: 2
Fore
SplineSet
23 43 m 1
 21 43 l 1
 21 41 l 1
 23 41 l 1
 23 43 l 1
26 43 m 1
 24 43 l 1
 24 41 l 1
 25 41 l 1
 25 42 l 1
 26 42 l 1
 26 43 l 1
27 42 m 1
 26 42 l 1
 26 41 l 1
 28 41 l 1
 28 43 l 1
 27 43 l 1
 27 42 l 1
31 43 m 1
 29 43 l 1
 29 41 l 1
 31 41 l 1
 31 43 l 1
31 39 m 1
 29 39 l 1
 29 37 l 1
 31 37 l 1
 31 39 l 1
31 35 m 1
 29 35 l 1
 29 33 l 1
 31 33 l 1
 31 35 l 1
36 37 m 1
 34 37 l 1
 34 35 l 1
 36 35 l 1
 36 37 l 1
31 31 m 1
 29 31 l 1
 29 29 l 1
 31 29 l 1
 31 31 l 1
36 33 m 1
 34 33 l 1
 34 31 l 1
 36 31 l 1
 36 33 l 1
41 43 m 1
 39 43 l 1
 39 41 l 1
 41 41 l 1
 41 43 l 1
44 43 m 1
 42 43 l 1
 42 41 l 1
 43 41 l 1
 43 42 l 1
 44 42 l 1
 44 43 l 1
46 43 m 1
 45 43 l 1
 45 42 l 1
 44 42 l 1
 44 41 l 1
 46 41 l 1
 46 43 l 1
49 43 m 1
 47 43 l 1
 47 41 l 1
 49 41 l 1
 49 43 l 1
49 39 m 1
 47 39 l 1
 47 37 l 1
 49 37 l 1
 49 39 l 1
41 35 m 1
 39 35 l 1
 39 33 l 1
 41 33 l 1
 41 35 l 1
43 35 m 1
 42 35 l 1
 42 33 l 1
 44 33 l 1
 44 34 l 1
 43 34 l 1
 43 35 l 1
41 31 m 1
 39 31 l 1
 39 29 l 1
 41 29 l 1
 41 31 l 1
46 35 m 1
 44 35 l 1
 44 34 l 1
 45 34 l 1
 45 33 l 1
 46 33 l 1
 46 35 l 1
49 35 m 1
 47 35 l 1
 47 33 l 1
 49 33 l 1
 49 35 l 1
55 43 m 1
 53 43 l 1
 53 41 l 1
 55 41 l 1
 55 43 l 1
58 43 m 1
 56 43 l 1
 56 41 l 1
 57 41 l 1
 57 42 l 1
 58 42 l 1
 58 43 l 1
59 42 m 1
 58 42 l 1
 58 41 l 1
 60 41 l 1
 60 43 l 1
 59 43 l 1
 59 42 l 1
63 43 m 1
 61 43 l 1
 61 41 l 1
 63 41 l 1
 63 43 l 1
63 39 m 1
 61 39 l 1
 61 37 l 1
 63 37 l 1
 63 39 l 1
63 35 m 1
 61 35 l 1
 61 33 l 1
 63 33 l 1
 63 35 l 1
63 31 m 1
 61 31 l 1
 61 29 l 1
 63 29 l 1
 63 31 l 1
31 27 m 1
 29 27 l 1
 29 25 l 1
 31 25 l 1
 31 27 l 1
41 27 m 1
 39 27 l 1
 39 25 l 1
 41 25 l 1
 41 27 l 1
44 27 m 1
 42 27 l 1
 42 25 l 1
 43 25 l 1
 43 26 l 1
 44 26 l 1
 44 27 l 1
46 27 m 1
 45 27 l 1
 45 26 l 1
 44 26 l 1
 44 25 l 1
 46 25 l 1
 46 27 l 1
49 27 m 1
 47 27 l 1
 47 25 l 1
 49 25 l 1
 49 27 l 1
63 27 m 1
 61 27 l 1
 61 25 l 1
 63 25 l 1
 63 27 l 1
EndSplineSet
EndChar

StartChar: custom_2_7_0_3_4
Encoding: 28102 28102 8134
Width: 70
Flags: H
LayerCount: 2
Fore
SplineSet
23 43 m 1
 21 43 l 1
 21 41 l 1
 23 41 l 1
 23 43 l 1
26 43 m 1
 24 43 l 1
 24 41 l 1
 25 41 l 1
 25 42 l 1
 26 42 l 1
 26 43 l 1
27 42 m 1
 26 42 l 1
 26 41 l 1
 28 41 l 1
 28 43 l 1
 27 43 l 1
 27 42 l 1
31 43 m 1
 29 43 l 1
 29 41 l 1
 31 41 l 1
 31 43 l 1
31 39 m 1
 29 39 l 1
 29 37 l 1
 31 37 l 1
 31 39 l 1
31 35 m 1
 29 35 l 1
 29 33 l 1
 31 33 l 1
 31 35 l 1
36 37 m 1
 34 37 l 1
 34 35 l 1
 36 35 l 1
 36 37 l 1
31 31 m 1
 29 31 l 1
 29 29 l 1
 31 29 l 1
 31 31 l 1
36 33 m 1
 34 33 l 1
 34 31 l 1
 36 31 l 1
 36 33 l 1
41 43 m 1
 39 43 l 1
 39 41 l 1
 41 41 l 1
 41 43 l 1
44 43 m 1
 42 43 l 1
 42 41 l 1
 43 41 l 1
 43 42 l 1
 44 42 l 1
 44 43 l 1
46 43 m 1
 45 43 l 1
 45 42 l 1
 44 42 l 1
 44 41 l 1
 46 41 l 1
 46 43 l 1
49 43 m 1
 47 43 l 1
 47 41 l 1
 49 41 l 1
 49 43 l 1
49 39 m 1
 47 39 l 1
 47 37 l 1
 49 37 l 1
 49 39 l 1
41 35 m 1
 39 35 l 1
 39 33 l 1
 41 33 l 1
 41 35 l 1
43 35 m 1
 42 35 l 1
 42 33 l 1
 44 33 l 1
 44 34 l 1
 43 34 l 1
 43 35 l 1
41 31 m 1
 39 31 l 1
 39 29 l 1
 41 29 l 1
 41 31 l 1
46 35 m 1
 44 35 l 1
 44 34 l 1
 45 34 l 1
 45 33 l 1
 46 33 l 1
 46 35 l 1
49 35 m 1
 47 35 l 1
 47 33 l 1
 49 33 l 1
 49 35 l 1
55 43 m 1
 53 43 l 1
 53 41 l 1
 55 41 l 1
 55 43 l 1
58 43 m 1
 56 43 l 1
 56 41 l 1
 57 41 l 1
 57 42 l 1
 58 42 l 1
 58 43 l 1
59 42 m 1
 58 42 l 1
 58 41 l 1
 60 41 l 1
 60 43 l 1
 59 43 l 1
 59 42 l 1
63 43 m 1
 61 43 l 1
 61 41 l 1
 63 41 l 1
 63 43 l 1
63 39 m 1
 61 39 l 1
 61 37 l 1
 63 37 l 1
 63 39 l 1
63 35 m 1
 61 35 l 1
 61 33 l 1
 63 33 l 1
 63 35 l 1
63 31 m 1
 61 31 l 1
 61 29 l 1
 63 29 l 1
 63 31 l 1
31 27 m 1
 29 27 l 1
 29 25 l 1
 31 25 l 1
 31 27 l 1
41 27 m 1
 39 27 l 1
 39 25 l 1
 41 25 l 1
 41 27 l 1
44 27 m 1
 42 27 l 1
 42 25 l 1
 43 25 l 1
 43 26 l 1
 44 26 l 1
 44 27 l 1
46 27 m 1
 45 27 l 1
 45 26 l 1
 44 26 l 1
 44 25 l 1
 46 25 l 1
 46 27 l 1
49 27 m 1
 47 27 l 1
 47 25 l 1
 49 25 l 1
 49 27 l 1
63 27 m 1
 61 27 l 1
 61 25 l 1
 63 25 l 1
 63 27 l 1
EndSplineSet
EndChar

StartChar: custom_2_7_0_3_5
Encoding: 28103 28103 8135
Width: 70
Flags: H
LayerCount: 2
Fore
SplineSet
23 43 m 1
 21 43 l 1
 21 41 l 1
 23 41 l 1
 23 43 l 1
26 43 m 1
 24 43 l 1
 24 41 l 1
 25 41 l 1
 25 42 l 1
 26 42 l 1
 26 43 l 1
27 42 m 1
 26 42 l 1
 26 41 l 1
 28 41 l 1
 28 43 l 1
 27 43 l 1
 27 42 l 1
31 43 m 1
 29 43 l 1
 29 41 l 1
 31 41 l 1
 31 43 l 1
31 39 m 1
 29 39 l 1
 29 37 l 1
 31 37 l 1
 31 39 l 1
31 35 m 1
 29 35 l 1
 29 33 l 1
 31 33 l 1
 31 35 l 1
36 37 m 1
 34 37 l 1
 34 35 l 1
 36 35 l 1
 36 37 l 1
31 31 m 1
 29 31 l 1
 29 29 l 1
 31 29 l 1
 31 31 l 1
36 33 m 1
 34 33 l 1
 34 31 l 1
 36 31 l 1
 36 33 l 1
41 43 m 1
 39 43 l 1
 39 41 l 1
 41 41 l 1
 41 43 l 1
44 43 m 1
 42 43 l 1
 42 41 l 1
 43 41 l 1
 43 42 l 1
 44 42 l 1
 44 43 l 1
46 43 m 1
 45 43 l 1
 45 42 l 1
 44 42 l 1
 44 41 l 1
 46 41 l 1
 46 43 l 1
49 43 m 1
 47 43 l 1
 47 41 l 1
 49 41 l 1
 49 43 l 1
49 39 m 1
 47 39 l 1
 47 37 l 1
 49 37 l 1
 49 39 l 1
41 35 m 1
 39 35 l 1
 39 33 l 1
 41 33 l 1
 41 35 l 1
43 35 m 1
 42 35 l 1
 42 33 l 1
 44 33 l 1
 44 34 l 1
 43 34 l 1
 43 35 l 1
41 31 m 1
 39 31 l 1
 39 29 l 1
 41 29 l 1
 41 31 l 1
46 35 m 1
 44 35 l 1
 44 34 l 1
 45 34 l 1
 45 33 l 1
 46 33 l 1
 46 35 l 1
49 35 m 1
 47 35 l 1
 47 33 l 1
 49 33 l 1
 49 35 l 1
55 43 m 1
 53 43 l 1
 53 41 l 1
 55 41 l 1
 55 43 l 1
58 43 m 1
 56 43 l 1
 56 41 l 1
 57 41 l 1
 57 42 l 1
 58 42 l 1
 58 43 l 1
59 42 m 1
 58 42 l 1
 58 41 l 1
 60 41 l 1
 60 43 l 1
 59 43 l 1
 59 42 l 1
63 43 m 1
 61 43 l 1
 61 41 l 1
 63 41 l 1
 63 43 l 1
63 39 m 1
 61 39 l 1
 61 37 l 1
 63 37 l 1
 63 39 l 1
63 35 m 1
 61 35 l 1
 61 33 l 1
 63 33 l 1
 63 35 l 1
63 31 m 1
 61 31 l 1
 61 29 l 1
 63 29 l 1
 63 31 l 1
31 27 m 1
 29 27 l 1
 29 25 l 1
 31 25 l 1
 31 27 l 1
41 27 m 1
 39 27 l 1
 39 25 l 1
 41 25 l 1
 41 27 l 1
44 27 m 1
 42 27 l 1
 42 25 l 1
 43 25 l 1
 43 26 l 1
 44 26 l 1
 44 27 l 1
46 27 m 1
 45 27 l 1
 45 26 l 1
 44 26 l 1
 44 25 l 1
 46 25 l 1
 46 27 l 1
49 27 m 1
 47 27 l 1
 47 25 l 1
 49 25 l 1
 49 27 l 1
63 27 m 1
 61 27 l 1
 61 25 l 1
 63 25 l 1
 63 27 l 1
EndSplineSet
EndChar

StartChar: custom_2_7_0_3_6
Encoding: 28104 28104 8136
Width: 70
Flags: H
LayerCount: 2
Fore
SplineSet
23 43 m 1
 21 43 l 1
 21 41 l 1
 23 41 l 1
 23 43 l 1
26 43 m 1
 24 43 l 1
 24 41 l 1
 25 41 l 1
 25 42 l 1
 26 42 l 1
 26 43 l 1
27 42 m 1
 26 42 l 1
 26 41 l 1
 28 41 l 1
 28 43 l 1
 27 43 l 1
 27 42 l 1
31 43 m 1
 29 43 l 1
 29 41 l 1
 31 41 l 1
 31 43 l 1
31 39 m 1
 29 39 l 1
 29 37 l 1
 31 37 l 1
 31 39 l 1
31 35 m 1
 29 35 l 1
 29 33 l 1
 31 33 l 1
 31 35 l 1
36 37 m 1
 34 37 l 1
 34 35 l 1
 36 35 l 1
 36 37 l 1
31 31 m 1
 29 31 l 1
 29 29 l 1
 31 29 l 1
 31 31 l 1
36 33 m 1
 34 33 l 1
 34 31 l 1
 36 31 l 1
 36 33 l 1
41 43 m 1
 39 43 l 1
 39 41 l 1
 41 41 l 1
 41 43 l 1
44 43 m 1
 42 43 l 1
 42 41 l 1
 43 41 l 1
 43 42 l 1
 44 42 l 1
 44 43 l 1
46 43 m 1
 45 43 l 1
 45 42 l 1
 44 42 l 1
 44 41 l 1
 46 41 l 1
 46 43 l 1
49 43 m 1
 47 43 l 1
 47 41 l 1
 49 41 l 1
 49 43 l 1
49 39 m 1
 47 39 l 1
 47 37 l 1
 49 37 l 1
 49 39 l 1
41 35 m 1
 39 35 l 1
 39 33 l 1
 41 33 l 1
 41 35 l 1
43 35 m 1
 42 35 l 1
 42 33 l 1
 44 33 l 1
 44 34 l 1
 43 34 l 1
 43 35 l 1
41 31 m 1
 39 31 l 1
 39 29 l 1
 41 29 l 1
 41 31 l 1
46 35 m 1
 44 35 l 1
 44 34 l 1
 45 34 l 1
 45 33 l 1
 46 33 l 1
 46 35 l 1
49 35 m 1
 47 35 l 1
 47 33 l 1
 49 33 l 1
 49 35 l 1
55 43 m 1
 53 43 l 1
 53 41 l 1
 55 41 l 1
 55 43 l 1
58 43 m 1
 56 43 l 1
 56 41 l 1
 57 41 l 1
 57 42 l 1
 58 42 l 1
 58 43 l 1
59 42 m 1
 58 42 l 1
 58 41 l 1
 60 41 l 1
 60 43 l 1
 59 43 l 1
 59 42 l 1
63 43 m 1
 61 43 l 1
 61 41 l 1
 63 41 l 1
 63 43 l 1
63 39 m 1
 61 39 l 1
 61 37 l 1
 63 37 l 1
 63 39 l 1
63 35 m 1
 61 35 l 1
 61 33 l 1
 63 33 l 1
 63 35 l 1
63 31 m 1
 61 31 l 1
 61 29 l 1
 63 29 l 1
 63 31 l 1
31 27 m 1
 29 27 l 1
 29 25 l 1
 31 25 l 1
 31 27 l 1
41 27 m 1
 39 27 l 1
 39 25 l 1
 41 25 l 1
 41 27 l 1
44 27 m 1
 42 27 l 1
 42 25 l 1
 43 25 l 1
 43 26 l 1
 44 26 l 1
 44 27 l 1
46 27 m 1
 45 27 l 1
 45 26 l 1
 44 26 l 1
 44 25 l 1
 46 25 l 1
 46 27 l 1
49 27 m 1
 47 27 l 1
 47 25 l 1
 49 25 l 1
 49 27 l 1
63 27 m 1
 61 27 l 1
 61 25 l 1
 63 25 l 1
 63 27 l 1
EndSplineSet
EndChar

StartChar: custom_2_7_0_3_7
Encoding: 28105 28105 8137
Width: 70
Flags: H
LayerCount: 2
Fore
SplineSet
23 43 m 1
 21 43 l 1
 21 41 l 1
 23 41 l 1
 23 43 l 1
26 43 m 1
 24 43 l 1
 24 41 l 1
 25 41 l 1
 25 42 l 1
 26 42 l 1
 26 43 l 1
27 42 m 1
 26 42 l 1
 26 41 l 1
 28 41 l 1
 28 43 l 1
 27 43 l 1
 27 42 l 1
31 43 m 1
 29 43 l 1
 29 41 l 1
 31 41 l 1
 31 43 l 1
31 39 m 1
 29 39 l 1
 29 37 l 1
 31 37 l 1
 31 39 l 1
31 35 m 1
 29 35 l 1
 29 33 l 1
 31 33 l 1
 31 35 l 1
36 37 m 1
 34 37 l 1
 34 35 l 1
 36 35 l 1
 36 37 l 1
31 31 m 1
 29 31 l 1
 29 29 l 1
 31 29 l 1
 31 31 l 1
36 33 m 1
 34 33 l 1
 34 31 l 1
 36 31 l 1
 36 33 l 1
41 43 m 1
 39 43 l 1
 39 41 l 1
 41 41 l 1
 41 43 l 1
44 43 m 1
 42 43 l 1
 42 41 l 1
 43 41 l 1
 43 42 l 1
 44 42 l 1
 44 43 l 1
46 43 m 1
 45 43 l 1
 45 42 l 1
 44 42 l 1
 44 41 l 1
 46 41 l 1
 46 43 l 1
49 43 m 1
 47 43 l 1
 47 41 l 1
 49 41 l 1
 49 43 l 1
49 39 m 1
 47 39 l 1
 47 37 l 1
 49 37 l 1
 49 39 l 1
41 35 m 1
 39 35 l 1
 39 33 l 1
 41 33 l 1
 41 35 l 1
43 35 m 1
 42 35 l 1
 42 33 l 1
 44 33 l 1
 44 34 l 1
 43 34 l 1
 43 35 l 1
41 31 m 1
 39 31 l 1
 39 29 l 1
 41 29 l 1
 41 31 l 1
46 35 m 1
 44 35 l 1
 44 34 l 1
 45 34 l 1
 45 33 l 1
 46 33 l 1
 46 35 l 1
49 35 m 1
 47 35 l 1
 47 33 l 1
 49 33 l 1
 49 35 l 1
55 43 m 1
 53 43 l 1
 53 41 l 1
 55 41 l 1
 55 43 l 1
58 43 m 1
 56 43 l 1
 56 41 l 1
 57 41 l 1
 57 42 l 1
 58 42 l 1
 58 43 l 1
59 42 m 1
 58 42 l 1
 58 41 l 1
 60 41 l 1
 60 43 l 1
 59 43 l 1
 59 42 l 1
63 43 m 1
 61 43 l 1
 61 41 l 1
 63 41 l 1
 63 43 l 1
63 39 m 1
 61 39 l 1
 61 37 l 1
 63 37 l 1
 63 39 l 1
63 35 m 1
 61 35 l 1
 61 33 l 1
 63 33 l 1
 63 35 l 1
63 31 m 1
 61 31 l 1
 61 29 l 1
 63 29 l 1
 63 31 l 1
31 27 m 1
 29 27 l 1
 29 25 l 1
 31 25 l 1
 31 27 l 1
41 27 m 1
 39 27 l 1
 39 25 l 1
 41 25 l 1
 41 27 l 1
44 27 m 1
 42 27 l 1
 42 25 l 1
 43 25 l 1
 43 26 l 1
 44 26 l 1
 44 27 l 1
46 27 m 1
 45 27 l 1
 45 26 l 1
 44 26 l 1
 44 25 l 1
 46 25 l 1
 46 27 l 1
49 27 m 1
 47 27 l 1
 47 25 l 1
 49 25 l 1
 49 27 l 1
63 27 m 1
 61 27 l 1
 61 25 l 1
 63 25 l 1
 63 27 l 1
EndSplineSet
EndChar

StartChar: custom_2_7_0_3_8
Encoding: 28106 28106 8138
Width: 70
Flags: H
LayerCount: 2
Fore
SplineSet
23 43 m 1
 21 43 l 1
 21 41 l 1
 23 41 l 1
 23 43 l 1
26 43 m 1
 24 43 l 1
 24 41 l 1
 25 41 l 1
 25 42 l 1
 26 42 l 1
 26 43 l 1
27 42 m 1
 26 42 l 1
 26 41 l 1
 28 41 l 1
 28 43 l 1
 27 43 l 1
 27 42 l 1
31 43 m 1
 29 43 l 1
 29 41 l 1
 31 41 l 1
 31 43 l 1
31 39 m 1
 29 39 l 1
 29 37 l 1
 31 37 l 1
 31 39 l 1
31 35 m 1
 29 35 l 1
 29 33 l 1
 31 33 l 1
 31 35 l 1
36 37 m 1
 34 37 l 1
 34 35 l 1
 36 35 l 1
 36 37 l 1
31 31 m 1
 29 31 l 1
 29 29 l 1
 31 29 l 1
 31 31 l 1
36 33 m 1
 34 33 l 1
 34 31 l 1
 36 31 l 1
 36 33 l 1
41 43 m 1
 39 43 l 1
 39 41 l 1
 41 41 l 1
 41 43 l 1
44 43 m 1
 42 43 l 1
 42 41 l 1
 43 41 l 1
 43 42 l 1
 44 42 l 1
 44 43 l 1
46 43 m 1
 45 43 l 1
 45 42 l 1
 44 42 l 1
 44 41 l 1
 46 41 l 1
 46 43 l 1
49 43 m 1
 47 43 l 1
 47 41 l 1
 49 41 l 1
 49 43 l 1
49 39 m 1
 47 39 l 1
 47 37 l 1
 49 37 l 1
 49 39 l 1
41 35 m 1
 39 35 l 1
 39 33 l 1
 41 33 l 1
 41 35 l 1
43 35 m 1
 42 35 l 1
 42 33 l 1
 44 33 l 1
 44 34 l 1
 43 34 l 1
 43 35 l 1
41 31 m 1
 39 31 l 1
 39 29 l 1
 41 29 l 1
 41 31 l 1
46 35 m 1
 44 35 l 1
 44 34 l 1
 45 34 l 1
 45 33 l 1
 46 33 l 1
 46 35 l 1
49 35 m 1
 47 35 l 1
 47 33 l 1
 49 33 l 1
 49 35 l 1
55 43 m 1
 53 43 l 1
 53 41 l 1
 55 41 l 1
 55 43 l 1
58 43 m 1
 56 43 l 1
 56 41 l 1
 57 41 l 1
 57 42 l 1
 58 42 l 1
 58 43 l 1
59 42 m 1
 58 42 l 1
 58 41 l 1
 60 41 l 1
 60 43 l 1
 59 43 l 1
 59 42 l 1
63 43 m 1
 61 43 l 1
 61 41 l 1
 63 41 l 1
 63 43 l 1
63 39 m 1
 61 39 l 1
 61 37 l 1
 63 37 l 1
 63 39 l 1
63 35 m 1
 61 35 l 1
 61 33 l 1
 63 33 l 1
 63 35 l 1
63 31 m 1
 61 31 l 1
 61 29 l 1
 63 29 l 1
 63 31 l 1
31 27 m 1
 29 27 l 1
 29 25 l 1
 31 25 l 1
 31 27 l 1
41 27 m 1
 39 27 l 1
 39 25 l 1
 41 25 l 1
 41 27 l 1
44 27 m 1
 42 27 l 1
 42 25 l 1
 43 25 l 1
 43 26 l 1
 44 26 l 1
 44 27 l 1
46 27 m 1
 45 27 l 1
 45 26 l 1
 44 26 l 1
 44 25 l 1
 46 25 l 1
 46 27 l 1
49 27 m 1
 47 27 l 1
 47 25 l 1
 49 25 l 1
 49 27 l 1
63 27 m 1
 61 27 l 1
 61 25 l 1
 63 25 l 1
 63 27 l 1
EndSplineSet
EndChar

StartChar: custom_2_7_0_3_9
Encoding: 28107 28107 8139
Width: 70
Flags: H
LayerCount: 2
Fore
SplineSet
23 43 m 1
 21 43 l 1
 21 41 l 1
 23 41 l 1
 23 43 l 1
26 43 m 1
 24 43 l 1
 24 41 l 1
 25 41 l 1
 25 42 l 1
 26 42 l 1
 26 43 l 1
27 42 m 1
 26 42 l 1
 26 41 l 1
 28 41 l 1
 28 43 l 1
 27 43 l 1
 27 42 l 1
31 43 m 1
 29 43 l 1
 29 41 l 1
 31 41 l 1
 31 43 l 1
31 39 m 1
 29 39 l 1
 29 37 l 1
 31 37 l 1
 31 39 l 1
31 35 m 1
 29 35 l 1
 29 33 l 1
 31 33 l 1
 31 35 l 1
36 37 m 1
 34 37 l 1
 34 35 l 1
 36 35 l 1
 36 37 l 1
31 31 m 1
 29 31 l 1
 29 29 l 1
 31 29 l 1
 31 31 l 1
36 33 m 1
 34 33 l 1
 34 31 l 1
 36 31 l 1
 36 33 l 1
41 43 m 1
 39 43 l 1
 39 41 l 1
 41 41 l 1
 41 43 l 1
44 43 m 1
 42 43 l 1
 42 41 l 1
 43 41 l 1
 43 42 l 1
 44 42 l 1
 44 43 l 1
46 43 m 1
 45 43 l 1
 45 42 l 1
 44 42 l 1
 44 41 l 1
 46 41 l 1
 46 43 l 1
49 43 m 1
 47 43 l 1
 47 41 l 1
 49 41 l 1
 49 43 l 1
49 39 m 1
 47 39 l 1
 47 37 l 1
 49 37 l 1
 49 39 l 1
41 35 m 1
 39 35 l 1
 39 33 l 1
 41 33 l 1
 41 35 l 1
43 35 m 1
 42 35 l 1
 42 33 l 1
 44 33 l 1
 44 34 l 1
 43 34 l 1
 43 35 l 1
41 31 m 1
 39 31 l 1
 39 29 l 1
 41 29 l 1
 41 31 l 1
46 35 m 1
 44 35 l 1
 44 34 l 1
 45 34 l 1
 45 33 l 1
 46 33 l 1
 46 35 l 1
49 35 m 1
 47 35 l 1
 47 33 l 1
 49 33 l 1
 49 35 l 1
55 43 m 1
 53 43 l 1
 53 41 l 1
 55 41 l 1
 55 43 l 1
58 43 m 1
 56 43 l 1
 56 41 l 1
 57 41 l 1
 57 42 l 1
 58 42 l 1
 58 43 l 1
59 42 m 1
 58 42 l 1
 58 41 l 1
 60 41 l 1
 60 43 l 1
 59 43 l 1
 59 42 l 1
63 43 m 1
 61 43 l 1
 61 41 l 1
 63 41 l 1
 63 43 l 1
63 39 m 1
 61 39 l 1
 61 37 l 1
 63 37 l 1
 63 39 l 1
63 35 m 1
 61 35 l 1
 61 33 l 1
 63 33 l 1
 63 35 l 1
63 31 m 1
 61 31 l 1
 61 29 l 1
 63 29 l 1
 63 31 l 1
31 27 m 1
 29 27 l 1
 29 25 l 1
 31 25 l 1
 31 27 l 1
41 27 m 1
 39 27 l 1
 39 25 l 1
 41 25 l 1
 41 27 l 1
44 27 m 1
 42 27 l 1
 42 25 l 1
 43 25 l 1
 43 26 l 1
 44 26 l 1
 44 27 l 1
46 27 m 1
 45 27 l 1
 45 26 l 1
 44 26 l 1
 44 25 l 1
 46 25 l 1
 46 27 l 1
49 27 m 1
 47 27 l 1
 47 25 l 1
 49 25 l 1
 49 27 l 1
63 27 m 1
 61 27 l 1
 61 25 l 1
 63 25 l 1
 63 27 l 1
EndSplineSet
EndChar

StartChar: custom_2_7_0_4_0
Encoding: 28108 28108 8140
Width: 70
Flags: H
LayerCount: 2
Fore
SplineSet
23 43 m 1
 21 43 l 1
 21 41 l 1
 23 41 l 1
 23 43 l 1
26 43 m 1
 24 43 l 1
 24 41 l 1
 25 41 l 1
 25 42 l 1
 26 42 l 1
 26 43 l 1
27 42 m 1
 26 42 l 1
 26 41 l 1
 28 41 l 1
 28 43 l 1
 27 43 l 1
 27 42 l 1
31 43 m 1
 29 43 l 1
 29 41 l 1
 31 41 l 1
 31 43 l 1
31 39 m 1
 29 39 l 1
 29 37 l 1
 31 37 l 1
 31 39 l 1
31 35 m 1
 29 35 l 1
 29 33 l 1
 31 33 l 1
 31 35 l 1
36 37 m 1
 34 37 l 1
 34 35 l 1
 36 35 l 1
 36 37 l 1
31 31 m 1
 29 31 l 1
 29 29 l 1
 31 29 l 1
 31 31 l 1
36 33 m 1
 34 33 l 1
 34 31 l 1
 36 31 l 1
 36 33 l 1
41 43 m 1
 39 43 l 1
 39 41 l 1
 41 41 l 1
 41 43 l 1
44 43 m 1
 42 43 l 1
 42 41 l 1
 43 41 l 1
 43 42 l 1
 44 42 l 1
 44 43 l 1
46 43 m 1
 45 43 l 1
 45 42 l 1
 44 42 l 1
 44 41 l 1
 46 41 l 1
 46 43 l 1
49 43 m 1
 47 43 l 1
 47 41 l 1
 49 41 l 1
 49 43 l 1
49 39 m 1
 47 39 l 1
 47 37 l 1
 49 37 l 1
 49 39 l 1
41 35 m 1
 39 35 l 1
 39 33 l 1
 41 33 l 1
 41 35 l 1
43 35 m 1
 42 35 l 1
 42 33 l 1
 44 33 l 1
 44 34 l 1
 43 34 l 1
 43 35 l 1
41 31 m 1
 39 31 l 1
 39 29 l 1
 41 29 l 1
 41 31 l 1
46 35 m 1
 44 35 l 1
 44 34 l 1
 45 34 l 1
 45 33 l 1
 46 33 l 1
 46 35 l 1
49 35 m 1
 47 35 l 1
 47 33 l 1
 49 33 l 1
 49 35 l 1
55 43 m 1
 53 43 l 1
 53 41 l 1
 55 41 l 1
 55 43 l 1
58 43 m 1
 56 43 l 1
 56 41 l 1
 57 41 l 1
 57 42 l 1
 58 42 l 1
 58 43 l 1
59 42 m 1
 58 42 l 1
 58 41 l 1
 60 41 l 1
 60 43 l 1
 59 43 l 1
 59 42 l 1
63 43 m 1
 61 43 l 1
 61 41 l 1
 63 41 l 1
 63 43 l 1
63 39 m 1
 61 39 l 1
 61 37 l 1
 63 37 l 1
 63 39 l 1
63 35 m 1
 61 35 l 1
 61 33 l 1
 63 33 l 1
 63 35 l 1
63 31 m 1
 61 31 l 1
 61 29 l 1
 63 29 l 1
 63 31 l 1
31 27 m 1
 29 27 l 1
 29 25 l 1
 31 25 l 1
 31 27 l 1
41 27 m 1
 39 27 l 1
 39 25 l 1
 41 25 l 1
 41 27 l 1
44 27 m 1
 42 27 l 1
 42 25 l 1
 43 25 l 1
 43 26 l 1
 44 26 l 1
 44 27 l 1
46 27 m 1
 45 27 l 1
 45 26 l 1
 44 26 l 1
 44 25 l 1
 46 25 l 1
 46 27 l 1
49 27 m 1
 47 27 l 1
 47 25 l 1
 49 25 l 1
 49 27 l 1
63 27 m 1
 61 27 l 1
 61 25 l 1
 63 25 l 1
 63 27 l 1
EndSplineSet
EndChar

StartChar: custom_2_7_0_4_1
Encoding: 28109 28109 8141
Width: 70
Flags: H
LayerCount: 2
Fore
SplineSet
23 43 m 1
 21 43 l 1
 21 41 l 1
 23 41 l 1
 23 43 l 1
26 43 m 1
 24 43 l 1
 24 41 l 1
 25 41 l 1
 25 42 l 1
 26 42 l 1
 26 43 l 1
27 42 m 1
 26 42 l 1
 26 41 l 1
 28 41 l 1
 28 43 l 1
 27 43 l 1
 27 42 l 1
31 43 m 1
 29 43 l 1
 29 41 l 1
 31 41 l 1
 31 43 l 1
31 39 m 1
 29 39 l 1
 29 37 l 1
 31 37 l 1
 31 39 l 1
31 35 m 1
 29 35 l 1
 29 33 l 1
 31 33 l 1
 31 35 l 1
36 37 m 1
 34 37 l 1
 34 35 l 1
 36 35 l 1
 36 37 l 1
31 31 m 1
 29 31 l 1
 29 29 l 1
 31 29 l 1
 31 31 l 1
36 33 m 1
 34 33 l 1
 34 31 l 1
 36 31 l 1
 36 33 l 1
41 43 m 1
 39 43 l 1
 39 41 l 1
 41 41 l 1
 41 43 l 1
44 43 m 1
 42 43 l 1
 42 41 l 1
 43 41 l 1
 43 42 l 1
 44 42 l 1
 44 43 l 1
46 43 m 1
 45 43 l 1
 45 42 l 1
 44 42 l 1
 44 41 l 1
 46 41 l 1
 46 43 l 1
49 43 m 1
 47 43 l 1
 47 41 l 1
 49 41 l 1
 49 43 l 1
49 39 m 1
 47 39 l 1
 47 37 l 1
 49 37 l 1
 49 39 l 1
41 35 m 1
 39 35 l 1
 39 33 l 1
 41 33 l 1
 41 35 l 1
43 35 m 1
 42 35 l 1
 42 33 l 1
 44 33 l 1
 44 34 l 1
 43 34 l 1
 43 35 l 1
41 31 m 1
 39 31 l 1
 39 29 l 1
 41 29 l 1
 41 31 l 1
46 35 m 1
 44 35 l 1
 44 34 l 1
 45 34 l 1
 45 33 l 1
 46 33 l 1
 46 35 l 1
49 35 m 1
 47 35 l 1
 47 33 l 1
 49 33 l 1
 49 35 l 1
55 43 m 1
 53 43 l 1
 53 41 l 1
 55 41 l 1
 55 43 l 1
58 43 m 1
 56 43 l 1
 56 41 l 1
 57 41 l 1
 57 42 l 1
 58 42 l 1
 58 43 l 1
59 42 m 1
 58 42 l 1
 58 41 l 1
 60 41 l 1
 60 43 l 1
 59 43 l 1
 59 42 l 1
63 43 m 1
 61 43 l 1
 61 41 l 1
 63 41 l 1
 63 43 l 1
63 39 m 1
 61 39 l 1
 61 37 l 1
 63 37 l 1
 63 39 l 1
63 35 m 1
 61 35 l 1
 61 33 l 1
 63 33 l 1
 63 35 l 1
63 31 m 1
 61 31 l 1
 61 29 l 1
 63 29 l 1
 63 31 l 1
31 27 m 1
 29 27 l 1
 29 25 l 1
 31 25 l 1
 31 27 l 1
41 27 m 1
 39 27 l 1
 39 25 l 1
 41 25 l 1
 41 27 l 1
44 27 m 1
 42 27 l 1
 42 25 l 1
 43 25 l 1
 43 26 l 1
 44 26 l 1
 44 27 l 1
46 27 m 1
 45 27 l 1
 45 26 l 1
 44 26 l 1
 44 25 l 1
 46 25 l 1
 46 27 l 1
49 27 m 1
 47 27 l 1
 47 25 l 1
 49 25 l 1
 49 27 l 1
63 27 m 1
 61 27 l 1
 61 25 l 1
 63 25 l 1
 63 27 l 1
EndSplineSet
EndChar

StartChar: custom_2_7_0_4_2
Encoding: 28110 28110 8142
Width: 70
Flags: H
LayerCount: 2
Fore
SplineSet
23 43 m 1
 21 43 l 1
 21 41 l 1
 23 41 l 1
 23 43 l 1
26 43 m 1
 24 43 l 1
 24 41 l 1
 25 41 l 1
 25 42 l 1
 26 42 l 1
 26 43 l 1
27 42 m 1
 26 42 l 1
 26 41 l 1
 28 41 l 1
 28 43 l 1
 27 43 l 1
 27 42 l 1
31 43 m 1
 29 43 l 1
 29 41 l 1
 31 41 l 1
 31 43 l 1
31 39 m 1
 29 39 l 1
 29 37 l 1
 31 37 l 1
 31 39 l 1
31 35 m 1
 29 35 l 1
 29 33 l 1
 31 33 l 1
 31 35 l 1
36 37 m 1
 34 37 l 1
 34 35 l 1
 36 35 l 1
 36 37 l 1
31 31 m 1
 29 31 l 1
 29 29 l 1
 31 29 l 1
 31 31 l 1
36 33 m 1
 34 33 l 1
 34 31 l 1
 36 31 l 1
 36 33 l 1
41 43 m 1
 39 43 l 1
 39 41 l 1
 41 41 l 1
 41 43 l 1
44 43 m 1
 42 43 l 1
 42 41 l 1
 43 41 l 1
 43 42 l 1
 44 42 l 1
 44 43 l 1
46 43 m 1
 45 43 l 1
 45 42 l 1
 44 42 l 1
 44 41 l 1
 46 41 l 1
 46 43 l 1
49 43 m 1
 47 43 l 1
 47 41 l 1
 49 41 l 1
 49 43 l 1
49 39 m 1
 47 39 l 1
 47 37 l 1
 49 37 l 1
 49 39 l 1
41 35 m 1
 39 35 l 1
 39 33 l 1
 41 33 l 1
 41 35 l 1
43 35 m 1
 42 35 l 1
 42 33 l 1
 44 33 l 1
 44 34 l 1
 43 34 l 1
 43 35 l 1
41 31 m 1
 39 31 l 1
 39 29 l 1
 41 29 l 1
 41 31 l 1
46 35 m 1
 44 35 l 1
 44 34 l 1
 45 34 l 1
 45 33 l 1
 46 33 l 1
 46 35 l 1
49 35 m 1
 47 35 l 1
 47 33 l 1
 49 33 l 1
 49 35 l 1
55 43 m 1
 53 43 l 1
 53 41 l 1
 55 41 l 1
 55 43 l 1
58 43 m 1
 56 43 l 1
 56 41 l 1
 57 41 l 1
 57 42 l 1
 58 42 l 1
 58 43 l 1
59 42 m 1
 58 42 l 1
 58 41 l 1
 60 41 l 1
 60 43 l 1
 59 43 l 1
 59 42 l 1
63 43 m 1
 61 43 l 1
 61 41 l 1
 63 41 l 1
 63 43 l 1
63 39 m 1
 61 39 l 1
 61 37 l 1
 63 37 l 1
 63 39 l 1
63 35 m 1
 61 35 l 1
 61 33 l 1
 63 33 l 1
 63 35 l 1
63 31 m 1
 61 31 l 1
 61 29 l 1
 63 29 l 1
 63 31 l 1
31 27 m 1
 29 27 l 1
 29 25 l 1
 31 25 l 1
 31 27 l 1
41 27 m 1
 39 27 l 1
 39 25 l 1
 41 25 l 1
 41 27 l 1
44 27 m 1
 42 27 l 1
 42 25 l 1
 43 25 l 1
 43 26 l 1
 44 26 l 1
 44 27 l 1
46 27 m 1
 45 27 l 1
 45 26 l 1
 44 26 l 1
 44 25 l 1
 46 25 l 1
 46 27 l 1
49 27 m 1
 47 27 l 1
 47 25 l 1
 49 25 l 1
 49 27 l 1
63 27 m 1
 61 27 l 1
 61 25 l 1
 63 25 l 1
 63 27 l 1
EndSplineSet
EndChar

StartChar: custom_2_7_0_4_3
Encoding: 28111 28111 8143
Width: 70
Flags: H
LayerCount: 2
Fore
SplineSet
23 43 m 1
 21 43 l 1
 21 41 l 1
 23 41 l 1
 23 43 l 1
26 43 m 1
 24 43 l 1
 24 41 l 1
 25 41 l 1
 25 42 l 1
 26 42 l 1
 26 43 l 1
27 42 m 1
 26 42 l 1
 26 41 l 1
 28 41 l 1
 28 43 l 1
 27 43 l 1
 27 42 l 1
31 43 m 1
 29 43 l 1
 29 41 l 1
 31 41 l 1
 31 43 l 1
31 39 m 1
 29 39 l 1
 29 37 l 1
 31 37 l 1
 31 39 l 1
31 35 m 1
 29 35 l 1
 29 33 l 1
 31 33 l 1
 31 35 l 1
36 37 m 1
 34 37 l 1
 34 35 l 1
 36 35 l 1
 36 37 l 1
31 31 m 1
 29 31 l 1
 29 29 l 1
 31 29 l 1
 31 31 l 1
36 33 m 1
 34 33 l 1
 34 31 l 1
 36 31 l 1
 36 33 l 1
41 43 m 1
 39 43 l 1
 39 41 l 1
 41 41 l 1
 41 43 l 1
44 43 m 1
 42 43 l 1
 42 41 l 1
 43 41 l 1
 43 42 l 1
 44 42 l 1
 44 43 l 1
46 43 m 1
 45 43 l 1
 45 42 l 1
 44 42 l 1
 44 41 l 1
 46 41 l 1
 46 43 l 1
49 43 m 1
 47 43 l 1
 47 41 l 1
 49 41 l 1
 49 43 l 1
49 39 m 1
 47 39 l 1
 47 37 l 1
 49 37 l 1
 49 39 l 1
41 35 m 1
 39 35 l 1
 39 33 l 1
 41 33 l 1
 41 35 l 1
43 35 m 1
 42 35 l 1
 42 33 l 1
 44 33 l 1
 44 34 l 1
 43 34 l 1
 43 35 l 1
41 31 m 1
 39 31 l 1
 39 29 l 1
 41 29 l 1
 41 31 l 1
46 35 m 1
 44 35 l 1
 44 34 l 1
 45 34 l 1
 45 33 l 1
 46 33 l 1
 46 35 l 1
49 35 m 1
 47 35 l 1
 47 33 l 1
 49 33 l 1
 49 35 l 1
55 43 m 1
 53 43 l 1
 53 41 l 1
 55 41 l 1
 55 43 l 1
58 43 m 1
 56 43 l 1
 56 41 l 1
 57 41 l 1
 57 42 l 1
 58 42 l 1
 58 43 l 1
59 42 m 1
 58 42 l 1
 58 41 l 1
 60 41 l 1
 60 43 l 1
 59 43 l 1
 59 42 l 1
63 43 m 1
 61 43 l 1
 61 41 l 1
 63 41 l 1
 63 43 l 1
63 39 m 1
 61 39 l 1
 61 37 l 1
 63 37 l 1
 63 39 l 1
63 35 m 1
 61 35 l 1
 61 33 l 1
 63 33 l 1
 63 35 l 1
63 31 m 1
 61 31 l 1
 61 29 l 1
 63 29 l 1
 63 31 l 1
31 27 m 1
 29 27 l 1
 29 25 l 1
 31 25 l 1
 31 27 l 1
41 27 m 1
 39 27 l 1
 39 25 l 1
 41 25 l 1
 41 27 l 1
44 27 m 1
 42 27 l 1
 42 25 l 1
 43 25 l 1
 43 26 l 1
 44 26 l 1
 44 27 l 1
46 27 m 1
 45 27 l 1
 45 26 l 1
 44 26 l 1
 44 25 l 1
 46 25 l 1
 46 27 l 1
49 27 m 1
 47 27 l 1
 47 25 l 1
 49 25 l 1
 49 27 l 1
63 27 m 1
 61 27 l 1
 61 25 l 1
 63 25 l 1
 63 27 l 1
EndSplineSet
EndChar

StartChar: custom_2_7_0_4_4
Encoding: 28112 28112 8144
Width: 70
Flags: H
LayerCount: 2
Fore
SplineSet
23 43 m 1
 21 43 l 1
 21 41 l 1
 23 41 l 1
 23 43 l 1
26 43 m 1
 24 43 l 1
 24 41 l 1
 25 41 l 1
 25 42 l 1
 26 42 l 1
 26 43 l 1
27 42 m 1
 26 42 l 1
 26 41 l 1
 28 41 l 1
 28 43 l 1
 27 43 l 1
 27 42 l 1
31 43 m 1
 29 43 l 1
 29 41 l 1
 31 41 l 1
 31 43 l 1
31 39 m 1
 29 39 l 1
 29 37 l 1
 31 37 l 1
 31 39 l 1
31 35 m 1
 29 35 l 1
 29 33 l 1
 31 33 l 1
 31 35 l 1
36 37 m 1
 34 37 l 1
 34 35 l 1
 36 35 l 1
 36 37 l 1
31 31 m 1
 29 31 l 1
 29 29 l 1
 31 29 l 1
 31 31 l 1
36 33 m 1
 34 33 l 1
 34 31 l 1
 36 31 l 1
 36 33 l 1
41 43 m 1
 39 43 l 1
 39 41 l 1
 41 41 l 1
 41 43 l 1
44 43 m 1
 42 43 l 1
 42 41 l 1
 43 41 l 1
 43 42 l 1
 44 42 l 1
 44 43 l 1
46 43 m 1
 45 43 l 1
 45 42 l 1
 44 42 l 1
 44 41 l 1
 46 41 l 1
 46 43 l 1
49 43 m 1
 47 43 l 1
 47 41 l 1
 49 41 l 1
 49 43 l 1
49 39 m 1
 47 39 l 1
 47 37 l 1
 49 37 l 1
 49 39 l 1
41 35 m 1
 39 35 l 1
 39 33 l 1
 41 33 l 1
 41 35 l 1
43 35 m 1
 42 35 l 1
 42 33 l 1
 44 33 l 1
 44 34 l 1
 43 34 l 1
 43 35 l 1
41 31 m 1
 39 31 l 1
 39 29 l 1
 41 29 l 1
 41 31 l 1
46 35 m 1
 44 35 l 1
 44 34 l 1
 45 34 l 1
 45 33 l 1
 46 33 l 1
 46 35 l 1
49 35 m 1
 47 35 l 1
 47 33 l 1
 49 33 l 1
 49 35 l 1
55 43 m 1
 53 43 l 1
 53 41 l 1
 55 41 l 1
 55 43 l 1
58 43 m 1
 56 43 l 1
 56 41 l 1
 57 41 l 1
 57 42 l 1
 58 42 l 1
 58 43 l 1
59 42 m 1
 58 42 l 1
 58 41 l 1
 60 41 l 1
 60 43 l 1
 59 43 l 1
 59 42 l 1
63 43 m 1
 61 43 l 1
 61 41 l 1
 63 41 l 1
 63 43 l 1
63 39 m 1
 61 39 l 1
 61 37 l 1
 63 37 l 1
 63 39 l 1
63 35 m 1
 61 35 l 1
 61 33 l 1
 63 33 l 1
 63 35 l 1
63 31 m 1
 61 31 l 1
 61 29 l 1
 63 29 l 1
 63 31 l 1
31 27 m 1
 29 27 l 1
 29 25 l 1
 31 25 l 1
 31 27 l 1
41 27 m 1
 39 27 l 1
 39 25 l 1
 41 25 l 1
 41 27 l 1
44 27 m 1
 42 27 l 1
 42 25 l 1
 43 25 l 1
 43 26 l 1
 44 26 l 1
 44 27 l 1
46 27 m 1
 45 27 l 1
 45 26 l 1
 44 26 l 1
 44 25 l 1
 46 25 l 1
 46 27 l 1
49 27 m 1
 47 27 l 1
 47 25 l 1
 49 25 l 1
 49 27 l 1
63 27 m 1
 61 27 l 1
 61 25 l 1
 63 25 l 1
 63 27 l 1
EndSplineSet
EndChar

StartChar: custom_2_7_0_4_5
Encoding: 28113 28113 8145
Width: 70
Flags: H
LayerCount: 2
Fore
SplineSet
23 43 m 1
 21 43 l 1
 21 41 l 1
 23 41 l 1
 23 43 l 1
26 43 m 1
 24 43 l 1
 24 41 l 1
 25 41 l 1
 25 42 l 1
 26 42 l 1
 26 43 l 1
27 42 m 1
 26 42 l 1
 26 41 l 1
 28 41 l 1
 28 43 l 1
 27 43 l 1
 27 42 l 1
31 43 m 1
 29 43 l 1
 29 41 l 1
 31 41 l 1
 31 43 l 1
31 39 m 1
 29 39 l 1
 29 37 l 1
 31 37 l 1
 31 39 l 1
31 35 m 1
 29 35 l 1
 29 33 l 1
 31 33 l 1
 31 35 l 1
36 37 m 1
 34 37 l 1
 34 35 l 1
 36 35 l 1
 36 37 l 1
31 31 m 1
 29 31 l 1
 29 29 l 1
 31 29 l 1
 31 31 l 1
36 33 m 1
 34 33 l 1
 34 31 l 1
 36 31 l 1
 36 33 l 1
41 43 m 1
 39 43 l 1
 39 41 l 1
 41 41 l 1
 41 43 l 1
44 43 m 1
 42 43 l 1
 42 41 l 1
 43 41 l 1
 43 42 l 1
 44 42 l 1
 44 43 l 1
46 43 m 1
 45 43 l 1
 45 42 l 1
 44 42 l 1
 44 41 l 1
 46 41 l 1
 46 43 l 1
49 43 m 1
 47 43 l 1
 47 41 l 1
 49 41 l 1
 49 43 l 1
49 39 m 1
 47 39 l 1
 47 37 l 1
 49 37 l 1
 49 39 l 1
41 35 m 1
 39 35 l 1
 39 33 l 1
 41 33 l 1
 41 35 l 1
43 35 m 1
 42 35 l 1
 42 33 l 1
 44 33 l 1
 44 34 l 1
 43 34 l 1
 43 35 l 1
41 31 m 1
 39 31 l 1
 39 29 l 1
 41 29 l 1
 41 31 l 1
46 35 m 1
 44 35 l 1
 44 34 l 1
 45 34 l 1
 45 33 l 1
 46 33 l 1
 46 35 l 1
49 35 m 1
 47 35 l 1
 47 33 l 1
 49 33 l 1
 49 35 l 1
55 43 m 1
 53 43 l 1
 53 41 l 1
 55 41 l 1
 55 43 l 1
58 43 m 1
 56 43 l 1
 56 41 l 1
 57 41 l 1
 57 42 l 1
 58 42 l 1
 58 43 l 1
59 42 m 1
 58 42 l 1
 58 41 l 1
 60 41 l 1
 60 43 l 1
 59 43 l 1
 59 42 l 1
63 43 m 1
 61 43 l 1
 61 41 l 1
 63 41 l 1
 63 43 l 1
63 39 m 1
 61 39 l 1
 61 37 l 1
 63 37 l 1
 63 39 l 1
63 35 m 1
 61 35 l 1
 61 33 l 1
 63 33 l 1
 63 35 l 1
63 31 m 1
 61 31 l 1
 61 29 l 1
 63 29 l 1
 63 31 l 1
31 27 m 1
 29 27 l 1
 29 25 l 1
 31 25 l 1
 31 27 l 1
41 27 m 1
 39 27 l 1
 39 25 l 1
 41 25 l 1
 41 27 l 1
44 27 m 1
 42 27 l 1
 42 25 l 1
 43 25 l 1
 43 26 l 1
 44 26 l 1
 44 27 l 1
46 27 m 1
 45 27 l 1
 45 26 l 1
 44 26 l 1
 44 25 l 1
 46 25 l 1
 46 27 l 1
49 27 m 1
 47 27 l 1
 47 25 l 1
 49 25 l 1
 49 27 l 1
63 27 m 1
 61 27 l 1
 61 25 l 1
 63 25 l 1
 63 27 l 1
EndSplineSet
EndChar

StartChar: custom_2_7_0_4_6
Encoding: 28114 28114 8146
Width: 70
Flags: H
LayerCount: 2
Fore
SplineSet
23 43 m 1
 21 43 l 1
 21 41 l 1
 23 41 l 1
 23 43 l 1
26 43 m 1
 24 43 l 1
 24 41 l 1
 25 41 l 1
 25 42 l 1
 26 42 l 1
 26 43 l 1
27 42 m 1
 26 42 l 1
 26 41 l 1
 28 41 l 1
 28 43 l 1
 27 43 l 1
 27 42 l 1
31 43 m 1
 29 43 l 1
 29 41 l 1
 31 41 l 1
 31 43 l 1
31 39 m 1
 29 39 l 1
 29 37 l 1
 31 37 l 1
 31 39 l 1
31 35 m 1
 29 35 l 1
 29 33 l 1
 31 33 l 1
 31 35 l 1
36 37 m 1
 34 37 l 1
 34 35 l 1
 36 35 l 1
 36 37 l 1
31 31 m 1
 29 31 l 1
 29 29 l 1
 31 29 l 1
 31 31 l 1
36 33 m 1
 34 33 l 1
 34 31 l 1
 36 31 l 1
 36 33 l 1
41 43 m 1
 39 43 l 1
 39 41 l 1
 41 41 l 1
 41 43 l 1
44 43 m 1
 42 43 l 1
 42 41 l 1
 43 41 l 1
 43 42 l 1
 44 42 l 1
 44 43 l 1
46 43 m 1
 45 43 l 1
 45 42 l 1
 44 42 l 1
 44 41 l 1
 46 41 l 1
 46 43 l 1
49 43 m 1
 47 43 l 1
 47 41 l 1
 49 41 l 1
 49 43 l 1
49 39 m 1
 47 39 l 1
 47 37 l 1
 49 37 l 1
 49 39 l 1
41 35 m 1
 39 35 l 1
 39 33 l 1
 41 33 l 1
 41 35 l 1
43 35 m 1
 42 35 l 1
 42 33 l 1
 44 33 l 1
 44 34 l 1
 43 34 l 1
 43 35 l 1
41 31 m 1
 39 31 l 1
 39 29 l 1
 41 29 l 1
 41 31 l 1
46 35 m 1
 44 35 l 1
 44 34 l 1
 45 34 l 1
 45 33 l 1
 46 33 l 1
 46 35 l 1
49 35 m 1
 47 35 l 1
 47 33 l 1
 49 33 l 1
 49 35 l 1
55 43 m 1
 53 43 l 1
 53 41 l 1
 55 41 l 1
 55 43 l 1
58 43 m 1
 56 43 l 1
 56 41 l 1
 57 41 l 1
 57 42 l 1
 58 42 l 1
 58 43 l 1
59 42 m 1
 58 42 l 1
 58 41 l 1
 60 41 l 1
 60 43 l 1
 59 43 l 1
 59 42 l 1
63 43 m 1
 61 43 l 1
 61 41 l 1
 63 41 l 1
 63 43 l 1
63 39 m 1
 61 39 l 1
 61 37 l 1
 63 37 l 1
 63 39 l 1
63 35 m 1
 61 35 l 1
 61 33 l 1
 63 33 l 1
 63 35 l 1
63 31 m 1
 61 31 l 1
 61 29 l 1
 63 29 l 1
 63 31 l 1
31 27 m 1
 29 27 l 1
 29 25 l 1
 31 25 l 1
 31 27 l 1
41 27 m 1
 39 27 l 1
 39 25 l 1
 41 25 l 1
 41 27 l 1
44 27 m 1
 42 27 l 1
 42 25 l 1
 43 25 l 1
 43 26 l 1
 44 26 l 1
 44 27 l 1
46 27 m 1
 45 27 l 1
 45 26 l 1
 44 26 l 1
 44 25 l 1
 46 25 l 1
 46 27 l 1
49 27 m 1
 47 27 l 1
 47 25 l 1
 49 25 l 1
 49 27 l 1
63 27 m 1
 61 27 l 1
 61 25 l 1
 63 25 l 1
 63 27 l 1
EndSplineSet
EndChar

StartChar: custom_2_7_0_4_7
Encoding: 28115 28115 8147
Width: 70
Flags: H
LayerCount: 2
Fore
SplineSet
23 43 m 1
 21 43 l 1
 21 41 l 1
 23 41 l 1
 23 43 l 1
26 43 m 1
 24 43 l 1
 24 41 l 1
 25 41 l 1
 25 42 l 1
 26 42 l 1
 26 43 l 1
27 42 m 1
 26 42 l 1
 26 41 l 1
 28 41 l 1
 28 43 l 1
 27 43 l 1
 27 42 l 1
31 43 m 1
 29 43 l 1
 29 41 l 1
 31 41 l 1
 31 43 l 1
31 39 m 1
 29 39 l 1
 29 37 l 1
 31 37 l 1
 31 39 l 1
31 35 m 1
 29 35 l 1
 29 33 l 1
 31 33 l 1
 31 35 l 1
36 37 m 1
 34 37 l 1
 34 35 l 1
 36 35 l 1
 36 37 l 1
31 31 m 1
 29 31 l 1
 29 29 l 1
 31 29 l 1
 31 31 l 1
36 33 m 1
 34 33 l 1
 34 31 l 1
 36 31 l 1
 36 33 l 1
41 43 m 1
 39 43 l 1
 39 41 l 1
 41 41 l 1
 41 43 l 1
44 43 m 1
 42 43 l 1
 42 41 l 1
 43 41 l 1
 43 42 l 1
 44 42 l 1
 44 43 l 1
46 43 m 1
 45 43 l 1
 45 42 l 1
 44 42 l 1
 44 41 l 1
 46 41 l 1
 46 43 l 1
49 43 m 1
 47 43 l 1
 47 41 l 1
 49 41 l 1
 49 43 l 1
49 39 m 1
 47 39 l 1
 47 37 l 1
 49 37 l 1
 49 39 l 1
41 35 m 1
 39 35 l 1
 39 33 l 1
 41 33 l 1
 41 35 l 1
43 35 m 1
 42 35 l 1
 42 33 l 1
 44 33 l 1
 44 34 l 1
 43 34 l 1
 43 35 l 1
41 31 m 1
 39 31 l 1
 39 29 l 1
 41 29 l 1
 41 31 l 1
46 35 m 1
 44 35 l 1
 44 34 l 1
 45 34 l 1
 45 33 l 1
 46 33 l 1
 46 35 l 1
49 35 m 1
 47 35 l 1
 47 33 l 1
 49 33 l 1
 49 35 l 1
55 43 m 1
 53 43 l 1
 53 41 l 1
 55 41 l 1
 55 43 l 1
58 43 m 1
 56 43 l 1
 56 41 l 1
 57 41 l 1
 57 42 l 1
 58 42 l 1
 58 43 l 1
59 42 m 1
 58 42 l 1
 58 41 l 1
 60 41 l 1
 60 43 l 1
 59 43 l 1
 59 42 l 1
63 43 m 1
 61 43 l 1
 61 41 l 1
 63 41 l 1
 63 43 l 1
63 39 m 1
 61 39 l 1
 61 37 l 1
 63 37 l 1
 63 39 l 1
63 35 m 1
 61 35 l 1
 61 33 l 1
 63 33 l 1
 63 35 l 1
63 31 m 1
 61 31 l 1
 61 29 l 1
 63 29 l 1
 63 31 l 1
31 27 m 1
 29 27 l 1
 29 25 l 1
 31 25 l 1
 31 27 l 1
41 27 m 1
 39 27 l 1
 39 25 l 1
 41 25 l 1
 41 27 l 1
44 27 m 1
 42 27 l 1
 42 25 l 1
 43 25 l 1
 43 26 l 1
 44 26 l 1
 44 27 l 1
46 27 m 1
 45 27 l 1
 45 26 l 1
 44 26 l 1
 44 25 l 1
 46 25 l 1
 46 27 l 1
49 27 m 1
 47 27 l 1
 47 25 l 1
 49 25 l 1
 49 27 l 1
63 27 m 1
 61 27 l 1
 61 25 l 1
 63 25 l 1
 63 27 l 1
EndSplineSet
EndChar

StartChar: custom_2_7_0_4_8
Encoding: 28116 28116 8148
Width: 70
Flags: H
LayerCount: 2
Fore
SplineSet
23 43 m 1
 21 43 l 1
 21 41 l 1
 23 41 l 1
 23 43 l 1
26 43 m 1
 24 43 l 1
 24 41 l 1
 25 41 l 1
 25 42 l 1
 26 42 l 1
 26 43 l 1
27 42 m 1
 26 42 l 1
 26 41 l 1
 28 41 l 1
 28 43 l 1
 27 43 l 1
 27 42 l 1
31 43 m 1
 29 43 l 1
 29 41 l 1
 31 41 l 1
 31 43 l 1
31 39 m 1
 29 39 l 1
 29 37 l 1
 31 37 l 1
 31 39 l 1
31 35 m 1
 29 35 l 1
 29 33 l 1
 31 33 l 1
 31 35 l 1
36 37 m 1
 34 37 l 1
 34 35 l 1
 36 35 l 1
 36 37 l 1
31 31 m 1
 29 31 l 1
 29 29 l 1
 31 29 l 1
 31 31 l 1
36 33 m 1
 34 33 l 1
 34 31 l 1
 36 31 l 1
 36 33 l 1
41 43 m 1
 39 43 l 1
 39 41 l 1
 41 41 l 1
 41 43 l 1
44 43 m 1
 42 43 l 1
 42 41 l 1
 43 41 l 1
 43 42 l 1
 44 42 l 1
 44 43 l 1
46 43 m 1
 45 43 l 1
 45 42 l 1
 44 42 l 1
 44 41 l 1
 46 41 l 1
 46 43 l 1
49 43 m 1
 47 43 l 1
 47 41 l 1
 49 41 l 1
 49 43 l 1
49 39 m 1
 47 39 l 1
 47 37 l 1
 49 37 l 1
 49 39 l 1
41 35 m 1
 39 35 l 1
 39 33 l 1
 41 33 l 1
 41 35 l 1
43 35 m 1
 42 35 l 1
 42 33 l 1
 44 33 l 1
 44 34 l 1
 43 34 l 1
 43 35 l 1
41 31 m 1
 39 31 l 1
 39 29 l 1
 41 29 l 1
 41 31 l 1
46 35 m 1
 44 35 l 1
 44 34 l 1
 45 34 l 1
 45 33 l 1
 46 33 l 1
 46 35 l 1
49 35 m 1
 47 35 l 1
 47 33 l 1
 49 33 l 1
 49 35 l 1
55 43 m 1
 53 43 l 1
 53 41 l 1
 55 41 l 1
 55 43 l 1
58 43 m 1
 56 43 l 1
 56 41 l 1
 57 41 l 1
 57 42 l 1
 58 42 l 1
 58 43 l 1
59 42 m 1
 58 42 l 1
 58 41 l 1
 60 41 l 1
 60 43 l 1
 59 43 l 1
 59 42 l 1
63 43 m 1
 61 43 l 1
 61 41 l 1
 63 41 l 1
 63 43 l 1
63 39 m 1
 61 39 l 1
 61 37 l 1
 63 37 l 1
 63 39 l 1
63 35 m 1
 61 35 l 1
 61 33 l 1
 63 33 l 1
 63 35 l 1
63 31 m 1
 61 31 l 1
 61 29 l 1
 63 29 l 1
 63 31 l 1
31 27 m 1
 29 27 l 1
 29 25 l 1
 31 25 l 1
 31 27 l 1
41 27 m 1
 39 27 l 1
 39 25 l 1
 41 25 l 1
 41 27 l 1
44 27 m 1
 42 27 l 1
 42 25 l 1
 43 25 l 1
 43 26 l 1
 44 26 l 1
 44 27 l 1
46 27 m 1
 45 27 l 1
 45 26 l 1
 44 26 l 1
 44 25 l 1
 46 25 l 1
 46 27 l 1
49 27 m 1
 47 27 l 1
 47 25 l 1
 49 25 l 1
 49 27 l 1
63 27 m 1
 61 27 l 1
 61 25 l 1
 63 25 l 1
 63 27 l 1
EndSplineSet
EndChar

StartChar: custom_2_7_0_4_9
Encoding: 28117 28117 8149
Width: 70
Flags: H
LayerCount: 2
Fore
SplineSet
23 43 m 1
 21 43 l 1
 21 41 l 1
 23 41 l 1
 23 43 l 1
26 43 m 1
 24 43 l 1
 24 41 l 1
 25 41 l 1
 25 42 l 1
 26 42 l 1
 26 43 l 1
27 42 m 1
 26 42 l 1
 26 41 l 1
 28 41 l 1
 28 43 l 1
 27 43 l 1
 27 42 l 1
31 43 m 1
 29 43 l 1
 29 41 l 1
 31 41 l 1
 31 43 l 1
31 39 m 1
 29 39 l 1
 29 37 l 1
 31 37 l 1
 31 39 l 1
31 35 m 1
 29 35 l 1
 29 33 l 1
 31 33 l 1
 31 35 l 1
36 37 m 1
 34 37 l 1
 34 35 l 1
 36 35 l 1
 36 37 l 1
31 31 m 1
 29 31 l 1
 29 29 l 1
 31 29 l 1
 31 31 l 1
36 33 m 1
 34 33 l 1
 34 31 l 1
 36 31 l 1
 36 33 l 1
41 43 m 1
 39 43 l 1
 39 41 l 1
 41 41 l 1
 41 43 l 1
44 43 m 1
 42 43 l 1
 42 41 l 1
 43 41 l 1
 43 42 l 1
 44 42 l 1
 44 43 l 1
46 43 m 1
 45 43 l 1
 45 42 l 1
 44 42 l 1
 44 41 l 1
 46 41 l 1
 46 43 l 1
49 43 m 1
 47 43 l 1
 47 41 l 1
 49 41 l 1
 49 43 l 1
49 39 m 1
 47 39 l 1
 47 37 l 1
 49 37 l 1
 49 39 l 1
41 35 m 1
 39 35 l 1
 39 33 l 1
 41 33 l 1
 41 35 l 1
43 35 m 1
 42 35 l 1
 42 33 l 1
 44 33 l 1
 44 34 l 1
 43 34 l 1
 43 35 l 1
41 31 m 1
 39 31 l 1
 39 29 l 1
 41 29 l 1
 41 31 l 1
46 35 m 1
 44 35 l 1
 44 34 l 1
 45 34 l 1
 45 33 l 1
 46 33 l 1
 46 35 l 1
49 35 m 1
 47 35 l 1
 47 33 l 1
 49 33 l 1
 49 35 l 1
55 43 m 1
 53 43 l 1
 53 41 l 1
 55 41 l 1
 55 43 l 1
58 43 m 1
 56 43 l 1
 56 41 l 1
 57 41 l 1
 57 42 l 1
 58 42 l 1
 58 43 l 1
59 42 m 1
 58 42 l 1
 58 41 l 1
 60 41 l 1
 60 43 l 1
 59 43 l 1
 59 42 l 1
63 43 m 1
 61 43 l 1
 61 41 l 1
 63 41 l 1
 63 43 l 1
63 39 m 1
 61 39 l 1
 61 37 l 1
 63 37 l 1
 63 39 l 1
63 35 m 1
 61 35 l 1
 61 33 l 1
 63 33 l 1
 63 35 l 1
63 31 m 1
 61 31 l 1
 61 29 l 1
 63 29 l 1
 63 31 l 1
31 27 m 1
 29 27 l 1
 29 25 l 1
 31 25 l 1
 31 27 l 1
41 27 m 1
 39 27 l 1
 39 25 l 1
 41 25 l 1
 41 27 l 1
44 27 m 1
 42 27 l 1
 42 25 l 1
 43 25 l 1
 43 26 l 1
 44 26 l 1
 44 27 l 1
46 27 m 1
 45 27 l 1
 45 26 l 1
 44 26 l 1
 44 25 l 1
 46 25 l 1
 46 27 l 1
49 27 m 1
 47 27 l 1
 47 25 l 1
 49 25 l 1
 49 27 l 1
63 27 m 1
 61 27 l 1
 61 25 l 1
 63 25 l 1
 63 27 l 1
EndSplineSet
EndChar

StartChar: custom_2_7_0_5_0
Encoding: 28118 28118 8150
Width: 70
Flags: H
LayerCount: 2
Fore
SplineSet
23 43 m 1
 21 43 l 1
 21 41 l 1
 23 41 l 1
 23 43 l 1
26 43 m 1
 24 43 l 1
 24 41 l 1
 25 41 l 1
 25 42 l 1
 26 42 l 1
 26 43 l 1
27 42 m 1
 26 42 l 1
 26 41 l 1
 28 41 l 1
 28 43 l 1
 27 43 l 1
 27 42 l 1
31 43 m 1
 29 43 l 1
 29 41 l 1
 31 41 l 1
 31 43 l 1
31 39 m 1
 29 39 l 1
 29 37 l 1
 31 37 l 1
 31 39 l 1
31 35 m 1
 29 35 l 1
 29 33 l 1
 31 33 l 1
 31 35 l 1
36 37 m 1
 34 37 l 1
 34 35 l 1
 36 35 l 1
 36 37 l 1
31 31 m 1
 29 31 l 1
 29 29 l 1
 31 29 l 1
 31 31 l 1
36 33 m 1
 34 33 l 1
 34 31 l 1
 36 31 l 1
 36 33 l 1
41 43 m 1
 39 43 l 1
 39 41 l 1
 41 41 l 1
 41 43 l 1
44 43 m 1
 42 43 l 1
 42 41 l 1
 43 41 l 1
 43 42 l 1
 44 42 l 1
 44 43 l 1
46 43 m 1
 45 43 l 1
 45 42 l 1
 44 42 l 1
 44 41 l 1
 46 41 l 1
 46 43 l 1
49 43 m 1
 47 43 l 1
 47 41 l 1
 49 41 l 1
 49 43 l 1
49 39 m 1
 47 39 l 1
 47 37 l 1
 49 37 l 1
 49 39 l 1
41 35 m 1
 39 35 l 1
 39 33 l 1
 41 33 l 1
 41 35 l 1
43 35 m 1
 42 35 l 1
 42 33 l 1
 44 33 l 1
 44 34 l 1
 43 34 l 1
 43 35 l 1
41 31 m 1
 39 31 l 1
 39 29 l 1
 41 29 l 1
 41 31 l 1
46 35 m 1
 44 35 l 1
 44 34 l 1
 45 34 l 1
 45 33 l 1
 46 33 l 1
 46 35 l 1
49 35 m 1
 47 35 l 1
 47 33 l 1
 49 33 l 1
 49 35 l 1
55 43 m 1
 53 43 l 1
 53 41 l 1
 55 41 l 1
 55 43 l 1
58 43 m 1
 56 43 l 1
 56 41 l 1
 57 41 l 1
 57 42 l 1
 58 42 l 1
 58 43 l 1
59 42 m 1
 58 42 l 1
 58 41 l 1
 60 41 l 1
 60 43 l 1
 59 43 l 1
 59 42 l 1
63 43 m 1
 61 43 l 1
 61 41 l 1
 63 41 l 1
 63 43 l 1
63 39 m 1
 61 39 l 1
 61 37 l 1
 63 37 l 1
 63 39 l 1
63 35 m 1
 61 35 l 1
 61 33 l 1
 63 33 l 1
 63 35 l 1
63 31 m 1
 61 31 l 1
 61 29 l 1
 63 29 l 1
 63 31 l 1
31 27 m 1
 29 27 l 1
 29 25 l 1
 31 25 l 1
 31 27 l 1
41 27 m 1
 39 27 l 1
 39 25 l 1
 41 25 l 1
 41 27 l 1
44 27 m 1
 42 27 l 1
 42 25 l 1
 43 25 l 1
 43 26 l 1
 44 26 l 1
 44 27 l 1
46 27 m 1
 45 27 l 1
 45 26 l 1
 44 26 l 1
 44 25 l 1
 46 25 l 1
 46 27 l 1
49 27 m 1
 47 27 l 1
 47 25 l 1
 49 25 l 1
 49 27 l 1
63 27 m 1
 61 27 l 1
 61 25 l 1
 63 25 l 1
 63 27 l 1
EndSplineSet
EndChar

StartChar: custom_2_7_0_5_1
Encoding: 28119 28119 8151
Width: 70
Flags: H
LayerCount: 2
Fore
SplineSet
23 43 m 1
 21 43 l 1
 21 41 l 1
 23 41 l 1
 23 43 l 1
26 43 m 1
 24 43 l 1
 24 41 l 1
 25 41 l 1
 25 42 l 1
 26 42 l 1
 26 43 l 1
27 42 m 1
 26 42 l 1
 26 41 l 1
 28 41 l 1
 28 43 l 1
 27 43 l 1
 27 42 l 1
31 43 m 1
 29 43 l 1
 29 41 l 1
 31 41 l 1
 31 43 l 1
31 39 m 1
 29 39 l 1
 29 37 l 1
 31 37 l 1
 31 39 l 1
31 35 m 1
 29 35 l 1
 29 33 l 1
 31 33 l 1
 31 35 l 1
36 37 m 1
 34 37 l 1
 34 35 l 1
 36 35 l 1
 36 37 l 1
31 31 m 1
 29 31 l 1
 29 29 l 1
 31 29 l 1
 31 31 l 1
36 33 m 1
 34 33 l 1
 34 31 l 1
 36 31 l 1
 36 33 l 1
41 43 m 1
 39 43 l 1
 39 41 l 1
 41 41 l 1
 41 43 l 1
44 43 m 1
 42 43 l 1
 42 41 l 1
 43 41 l 1
 43 42 l 1
 44 42 l 1
 44 43 l 1
46 43 m 1
 45 43 l 1
 45 42 l 1
 44 42 l 1
 44 41 l 1
 46 41 l 1
 46 43 l 1
49 43 m 1
 47 43 l 1
 47 41 l 1
 49 41 l 1
 49 43 l 1
49 39 m 1
 47 39 l 1
 47 37 l 1
 49 37 l 1
 49 39 l 1
41 35 m 1
 39 35 l 1
 39 33 l 1
 41 33 l 1
 41 35 l 1
43 35 m 1
 42 35 l 1
 42 33 l 1
 44 33 l 1
 44 34 l 1
 43 34 l 1
 43 35 l 1
41 31 m 1
 39 31 l 1
 39 29 l 1
 41 29 l 1
 41 31 l 1
46 35 m 1
 44 35 l 1
 44 34 l 1
 45 34 l 1
 45 33 l 1
 46 33 l 1
 46 35 l 1
49 35 m 1
 47 35 l 1
 47 33 l 1
 49 33 l 1
 49 35 l 1
55 43 m 1
 53 43 l 1
 53 41 l 1
 55 41 l 1
 55 43 l 1
58 43 m 1
 56 43 l 1
 56 41 l 1
 57 41 l 1
 57 42 l 1
 58 42 l 1
 58 43 l 1
59 42 m 1
 58 42 l 1
 58 41 l 1
 60 41 l 1
 60 43 l 1
 59 43 l 1
 59 42 l 1
63 43 m 1
 61 43 l 1
 61 41 l 1
 63 41 l 1
 63 43 l 1
63 39 m 1
 61 39 l 1
 61 37 l 1
 63 37 l 1
 63 39 l 1
63 35 m 1
 61 35 l 1
 61 33 l 1
 63 33 l 1
 63 35 l 1
63 31 m 1
 61 31 l 1
 61 29 l 1
 63 29 l 1
 63 31 l 1
31 27 m 1
 29 27 l 1
 29 25 l 1
 31 25 l 1
 31 27 l 1
41 27 m 1
 39 27 l 1
 39 25 l 1
 41 25 l 1
 41 27 l 1
44 27 m 1
 42 27 l 1
 42 25 l 1
 43 25 l 1
 43 26 l 1
 44 26 l 1
 44 27 l 1
46 27 m 1
 45 27 l 1
 45 26 l 1
 44 26 l 1
 44 25 l 1
 46 25 l 1
 46 27 l 1
49 27 m 1
 47 27 l 1
 47 25 l 1
 49 25 l 1
 49 27 l 1
63 27 m 1
 61 27 l 1
 61 25 l 1
 63 25 l 1
 63 27 l 1
EndSplineSet
EndChar

StartChar: custom_2_7_0_5_2
Encoding: 28120 28120 8152
Width: 70
Flags: H
LayerCount: 2
Fore
SplineSet
23 43 m 1
 21 43 l 1
 21 41 l 1
 23 41 l 1
 23 43 l 1
26 43 m 1
 24 43 l 1
 24 41 l 1
 25 41 l 1
 25 42 l 1
 26 42 l 1
 26 43 l 1
27 42 m 1
 26 42 l 1
 26 41 l 1
 28 41 l 1
 28 43 l 1
 27 43 l 1
 27 42 l 1
31 43 m 1
 29 43 l 1
 29 41 l 1
 31 41 l 1
 31 43 l 1
31 39 m 1
 29 39 l 1
 29 37 l 1
 31 37 l 1
 31 39 l 1
31 35 m 1
 29 35 l 1
 29 33 l 1
 31 33 l 1
 31 35 l 1
36 37 m 1
 34 37 l 1
 34 35 l 1
 36 35 l 1
 36 37 l 1
31 31 m 1
 29 31 l 1
 29 29 l 1
 31 29 l 1
 31 31 l 1
36 33 m 1
 34 33 l 1
 34 31 l 1
 36 31 l 1
 36 33 l 1
41 43 m 1
 39 43 l 1
 39 41 l 1
 41 41 l 1
 41 43 l 1
44 43 m 1
 42 43 l 1
 42 41 l 1
 43 41 l 1
 43 42 l 1
 44 42 l 1
 44 43 l 1
46 43 m 1
 45 43 l 1
 45 42 l 1
 44 42 l 1
 44 41 l 1
 46 41 l 1
 46 43 l 1
49 43 m 1
 47 43 l 1
 47 41 l 1
 49 41 l 1
 49 43 l 1
49 39 m 1
 47 39 l 1
 47 37 l 1
 49 37 l 1
 49 39 l 1
41 35 m 1
 39 35 l 1
 39 33 l 1
 41 33 l 1
 41 35 l 1
43 35 m 1
 42 35 l 1
 42 33 l 1
 44 33 l 1
 44 34 l 1
 43 34 l 1
 43 35 l 1
41 31 m 1
 39 31 l 1
 39 29 l 1
 41 29 l 1
 41 31 l 1
46 35 m 1
 44 35 l 1
 44 34 l 1
 45 34 l 1
 45 33 l 1
 46 33 l 1
 46 35 l 1
49 35 m 1
 47 35 l 1
 47 33 l 1
 49 33 l 1
 49 35 l 1
55 43 m 1
 53 43 l 1
 53 41 l 1
 55 41 l 1
 55 43 l 1
58 43 m 1
 56 43 l 1
 56 41 l 1
 57 41 l 1
 57 42 l 1
 58 42 l 1
 58 43 l 1
59 42 m 1
 58 42 l 1
 58 41 l 1
 60 41 l 1
 60 43 l 1
 59 43 l 1
 59 42 l 1
63 43 m 1
 61 43 l 1
 61 41 l 1
 63 41 l 1
 63 43 l 1
63 39 m 1
 61 39 l 1
 61 37 l 1
 63 37 l 1
 63 39 l 1
63 35 m 1
 61 35 l 1
 61 33 l 1
 63 33 l 1
 63 35 l 1
63 31 m 1
 61 31 l 1
 61 29 l 1
 63 29 l 1
 63 31 l 1
31 27 m 1
 29 27 l 1
 29 25 l 1
 31 25 l 1
 31 27 l 1
41 27 m 1
 39 27 l 1
 39 25 l 1
 41 25 l 1
 41 27 l 1
44 27 m 1
 42 27 l 1
 42 25 l 1
 43 25 l 1
 43 26 l 1
 44 26 l 1
 44 27 l 1
46 27 m 1
 45 27 l 1
 45 26 l 1
 44 26 l 1
 44 25 l 1
 46 25 l 1
 46 27 l 1
49 27 m 1
 47 27 l 1
 47 25 l 1
 49 25 l 1
 49 27 l 1
63 27 m 1
 61 27 l 1
 61 25 l 1
 63 25 l 1
 63 27 l 1
EndSplineSet
EndChar

StartChar: custom_2_7_0_5_3
Encoding: 28121 28121 8153
Width: 70
Flags: H
LayerCount: 2
Fore
SplineSet
23 43 m 1
 21 43 l 1
 21 41 l 1
 23 41 l 1
 23 43 l 1
26 43 m 1
 24 43 l 1
 24 41 l 1
 25 41 l 1
 25 42 l 1
 26 42 l 1
 26 43 l 1
27 42 m 1
 26 42 l 1
 26 41 l 1
 28 41 l 1
 28 43 l 1
 27 43 l 1
 27 42 l 1
31 43 m 1
 29 43 l 1
 29 41 l 1
 31 41 l 1
 31 43 l 1
31 39 m 1
 29 39 l 1
 29 37 l 1
 31 37 l 1
 31 39 l 1
31 35 m 1
 29 35 l 1
 29 33 l 1
 31 33 l 1
 31 35 l 1
36 37 m 1
 34 37 l 1
 34 35 l 1
 36 35 l 1
 36 37 l 1
31 31 m 1
 29 31 l 1
 29 29 l 1
 31 29 l 1
 31 31 l 1
36 33 m 1
 34 33 l 1
 34 31 l 1
 36 31 l 1
 36 33 l 1
41 43 m 1
 39 43 l 1
 39 41 l 1
 41 41 l 1
 41 43 l 1
44 43 m 1
 42 43 l 1
 42 41 l 1
 43 41 l 1
 43 42 l 1
 44 42 l 1
 44 43 l 1
46 43 m 1
 45 43 l 1
 45 42 l 1
 44 42 l 1
 44 41 l 1
 46 41 l 1
 46 43 l 1
49 43 m 1
 47 43 l 1
 47 41 l 1
 49 41 l 1
 49 43 l 1
49 39 m 1
 47 39 l 1
 47 37 l 1
 49 37 l 1
 49 39 l 1
41 35 m 1
 39 35 l 1
 39 33 l 1
 41 33 l 1
 41 35 l 1
43 35 m 1
 42 35 l 1
 42 33 l 1
 44 33 l 1
 44 34 l 1
 43 34 l 1
 43 35 l 1
41 31 m 1
 39 31 l 1
 39 29 l 1
 41 29 l 1
 41 31 l 1
46 35 m 1
 44 35 l 1
 44 34 l 1
 45 34 l 1
 45 33 l 1
 46 33 l 1
 46 35 l 1
49 35 m 1
 47 35 l 1
 47 33 l 1
 49 33 l 1
 49 35 l 1
55 43 m 1
 53 43 l 1
 53 41 l 1
 55 41 l 1
 55 43 l 1
58 43 m 1
 56 43 l 1
 56 41 l 1
 57 41 l 1
 57 42 l 1
 58 42 l 1
 58 43 l 1
59 42 m 1
 58 42 l 1
 58 41 l 1
 60 41 l 1
 60 43 l 1
 59 43 l 1
 59 42 l 1
63 43 m 1
 61 43 l 1
 61 41 l 1
 63 41 l 1
 63 43 l 1
63 39 m 1
 61 39 l 1
 61 37 l 1
 63 37 l 1
 63 39 l 1
63 35 m 1
 61 35 l 1
 61 33 l 1
 63 33 l 1
 63 35 l 1
63 31 m 1
 61 31 l 1
 61 29 l 1
 63 29 l 1
 63 31 l 1
31 27 m 1
 29 27 l 1
 29 25 l 1
 31 25 l 1
 31 27 l 1
41 27 m 1
 39 27 l 1
 39 25 l 1
 41 25 l 1
 41 27 l 1
44 27 m 1
 42 27 l 1
 42 25 l 1
 43 25 l 1
 43 26 l 1
 44 26 l 1
 44 27 l 1
46 27 m 1
 45 27 l 1
 45 26 l 1
 44 26 l 1
 44 25 l 1
 46 25 l 1
 46 27 l 1
49 27 m 1
 47 27 l 1
 47 25 l 1
 49 25 l 1
 49 27 l 1
63 27 m 1
 61 27 l 1
 61 25 l 1
 63 25 l 1
 63 27 l 1
EndSplineSet
EndChar

StartChar: custom_2_7_0_5_4
Encoding: 28122 28122 8154
Width: 70
Flags: H
LayerCount: 2
Fore
SplineSet
23 43 m 1
 21 43 l 1
 21 41 l 1
 23 41 l 1
 23 43 l 1
26 43 m 1
 24 43 l 1
 24 41 l 1
 25 41 l 1
 25 42 l 1
 26 42 l 1
 26 43 l 1
27 42 m 1
 26 42 l 1
 26 41 l 1
 28 41 l 1
 28 43 l 1
 27 43 l 1
 27 42 l 1
31 43 m 1
 29 43 l 1
 29 41 l 1
 31 41 l 1
 31 43 l 1
31 39 m 1
 29 39 l 1
 29 37 l 1
 31 37 l 1
 31 39 l 1
31 35 m 1
 29 35 l 1
 29 33 l 1
 31 33 l 1
 31 35 l 1
36 37 m 1
 34 37 l 1
 34 35 l 1
 36 35 l 1
 36 37 l 1
31 31 m 1
 29 31 l 1
 29 29 l 1
 31 29 l 1
 31 31 l 1
36 33 m 1
 34 33 l 1
 34 31 l 1
 36 31 l 1
 36 33 l 1
41 43 m 1
 39 43 l 1
 39 41 l 1
 41 41 l 1
 41 43 l 1
44 43 m 1
 42 43 l 1
 42 41 l 1
 43 41 l 1
 43 42 l 1
 44 42 l 1
 44 43 l 1
46 43 m 1
 45 43 l 1
 45 42 l 1
 44 42 l 1
 44 41 l 1
 46 41 l 1
 46 43 l 1
49 43 m 1
 47 43 l 1
 47 41 l 1
 49 41 l 1
 49 43 l 1
49 39 m 1
 47 39 l 1
 47 37 l 1
 49 37 l 1
 49 39 l 1
41 35 m 1
 39 35 l 1
 39 33 l 1
 41 33 l 1
 41 35 l 1
43 35 m 1
 42 35 l 1
 42 33 l 1
 44 33 l 1
 44 34 l 1
 43 34 l 1
 43 35 l 1
41 31 m 1
 39 31 l 1
 39 29 l 1
 41 29 l 1
 41 31 l 1
46 35 m 1
 44 35 l 1
 44 34 l 1
 45 34 l 1
 45 33 l 1
 46 33 l 1
 46 35 l 1
49 35 m 1
 47 35 l 1
 47 33 l 1
 49 33 l 1
 49 35 l 1
55 43 m 1
 53 43 l 1
 53 41 l 1
 55 41 l 1
 55 43 l 1
58 43 m 1
 56 43 l 1
 56 41 l 1
 57 41 l 1
 57 42 l 1
 58 42 l 1
 58 43 l 1
59 42 m 1
 58 42 l 1
 58 41 l 1
 60 41 l 1
 60 43 l 1
 59 43 l 1
 59 42 l 1
63 43 m 1
 61 43 l 1
 61 41 l 1
 63 41 l 1
 63 43 l 1
63 39 m 1
 61 39 l 1
 61 37 l 1
 63 37 l 1
 63 39 l 1
63 35 m 1
 61 35 l 1
 61 33 l 1
 63 33 l 1
 63 35 l 1
63 31 m 1
 61 31 l 1
 61 29 l 1
 63 29 l 1
 63 31 l 1
31 27 m 1
 29 27 l 1
 29 25 l 1
 31 25 l 1
 31 27 l 1
41 27 m 1
 39 27 l 1
 39 25 l 1
 41 25 l 1
 41 27 l 1
44 27 m 1
 42 27 l 1
 42 25 l 1
 43 25 l 1
 43 26 l 1
 44 26 l 1
 44 27 l 1
46 27 m 1
 45 27 l 1
 45 26 l 1
 44 26 l 1
 44 25 l 1
 46 25 l 1
 46 27 l 1
49 27 m 1
 47 27 l 1
 47 25 l 1
 49 25 l 1
 49 27 l 1
63 27 m 1
 61 27 l 1
 61 25 l 1
 63 25 l 1
 63 27 l 1
EndSplineSet
EndChar

StartChar: custom_2_7_0_5_5
Encoding: 28123 28123 8155
Width: 70
Flags: H
LayerCount: 2
Fore
SplineSet
23 43 m 1
 21 43 l 1
 21 41 l 1
 23 41 l 1
 23 43 l 1
26 43 m 1
 24 43 l 1
 24 41 l 1
 25 41 l 1
 25 42 l 1
 26 42 l 1
 26 43 l 1
27 42 m 1
 26 42 l 1
 26 41 l 1
 28 41 l 1
 28 43 l 1
 27 43 l 1
 27 42 l 1
31 43 m 1
 29 43 l 1
 29 41 l 1
 31 41 l 1
 31 43 l 1
31 39 m 1
 29 39 l 1
 29 37 l 1
 31 37 l 1
 31 39 l 1
31 35 m 1
 29 35 l 1
 29 33 l 1
 31 33 l 1
 31 35 l 1
36 37 m 1
 34 37 l 1
 34 35 l 1
 36 35 l 1
 36 37 l 1
31 31 m 1
 29 31 l 1
 29 29 l 1
 31 29 l 1
 31 31 l 1
36 33 m 1
 34 33 l 1
 34 31 l 1
 36 31 l 1
 36 33 l 1
41 43 m 1
 39 43 l 1
 39 41 l 1
 41 41 l 1
 41 43 l 1
44 43 m 1
 42 43 l 1
 42 41 l 1
 43 41 l 1
 43 42 l 1
 44 42 l 1
 44 43 l 1
46 43 m 1
 45 43 l 1
 45 42 l 1
 44 42 l 1
 44 41 l 1
 46 41 l 1
 46 43 l 1
49 43 m 1
 47 43 l 1
 47 41 l 1
 49 41 l 1
 49 43 l 1
49 39 m 1
 47 39 l 1
 47 37 l 1
 49 37 l 1
 49 39 l 1
41 35 m 1
 39 35 l 1
 39 33 l 1
 41 33 l 1
 41 35 l 1
43 35 m 1
 42 35 l 1
 42 33 l 1
 44 33 l 1
 44 34 l 1
 43 34 l 1
 43 35 l 1
41 31 m 1
 39 31 l 1
 39 29 l 1
 41 29 l 1
 41 31 l 1
46 35 m 1
 44 35 l 1
 44 34 l 1
 45 34 l 1
 45 33 l 1
 46 33 l 1
 46 35 l 1
49 35 m 1
 47 35 l 1
 47 33 l 1
 49 33 l 1
 49 35 l 1
55 43 m 1
 53 43 l 1
 53 41 l 1
 55 41 l 1
 55 43 l 1
58 43 m 1
 56 43 l 1
 56 41 l 1
 57 41 l 1
 57 42 l 1
 58 42 l 1
 58 43 l 1
59 42 m 1
 58 42 l 1
 58 41 l 1
 60 41 l 1
 60 43 l 1
 59 43 l 1
 59 42 l 1
63 43 m 1
 61 43 l 1
 61 41 l 1
 63 41 l 1
 63 43 l 1
63 39 m 1
 61 39 l 1
 61 37 l 1
 63 37 l 1
 63 39 l 1
63 35 m 1
 61 35 l 1
 61 33 l 1
 63 33 l 1
 63 35 l 1
63 31 m 1
 61 31 l 1
 61 29 l 1
 63 29 l 1
 63 31 l 1
31 27 m 1
 29 27 l 1
 29 25 l 1
 31 25 l 1
 31 27 l 1
41 27 m 1
 39 27 l 1
 39 25 l 1
 41 25 l 1
 41 27 l 1
44 27 m 1
 42 27 l 1
 42 25 l 1
 43 25 l 1
 43 26 l 1
 44 26 l 1
 44 27 l 1
46 27 m 1
 45 27 l 1
 45 26 l 1
 44 26 l 1
 44 25 l 1
 46 25 l 1
 46 27 l 1
49 27 m 1
 47 27 l 1
 47 25 l 1
 49 25 l 1
 49 27 l 1
63 27 m 1
 61 27 l 1
 61 25 l 1
 63 25 l 1
 63 27 l 1
EndSplineSet
EndChar

StartChar: custom_2_7_0_5_6
Encoding: 28124 28124 8156
Width: 70
Flags: H
LayerCount: 2
Fore
SplineSet
23 43 m 1
 21 43 l 1
 21 41 l 1
 23 41 l 1
 23 43 l 1
26 43 m 1
 24 43 l 1
 24 41 l 1
 25 41 l 1
 25 42 l 1
 26 42 l 1
 26 43 l 1
27 42 m 1
 26 42 l 1
 26 41 l 1
 28 41 l 1
 28 43 l 1
 27 43 l 1
 27 42 l 1
31 43 m 1
 29 43 l 1
 29 41 l 1
 31 41 l 1
 31 43 l 1
31 39 m 1
 29 39 l 1
 29 37 l 1
 31 37 l 1
 31 39 l 1
31 35 m 1
 29 35 l 1
 29 33 l 1
 31 33 l 1
 31 35 l 1
36 37 m 1
 34 37 l 1
 34 35 l 1
 36 35 l 1
 36 37 l 1
31 31 m 1
 29 31 l 1
 29 29 l 1
 31 29 l 1
 31 31 l 1
36 33 m 1
 34 33 l 1
 34 31 l 1
 36 31 l 1
 36 33 l 1
41 43 m 1
 39 43 l 1
 39 41 l 1
 41 41 l 1
 41 43 l 1
44 43 m 1
 42 43 l 1
 42 41 l 1
 43 41 l 1
 43 42 l 1
 44 42 l 1
 44 43 l 1
46 43 m 1
 45 43 l 1
 45 42 l 1
 44 42 l 1
 44 41 l 1
 46 41 l 1
 46 43 l 1
49 43 m 1
 47 43 l 1
 47 41 l 1
 49 41 l 1
 49 43 l 1
49 39 m 1
 47 39 l 1
 47 37 l 1
 49 37 l 1
 49 39 l 1
41 35 m 1
 39 35 l 1
 39 33 l 1
 41 33 l 1
 41 35 l 1
43 35 m 1
 42 35 l 1
 42 33 l 1
 44 33 l 1
 44 34 l 1
 43 34 l 1
 43 35 l 1
41 31 m 1
 39 31 l 1
 39 29 l 1
 41 29 l 1
 41 31 l 1
46 35 m 1
 44 35 l 1
 44 34 l 1
 45 34 l 1
 45 33 l 1
 46 33 l 1
 46 35 l 1
49 35 m 1
 47 35 l 1
 47 33 l 1
 49 33 l 1
 49 35 l 1
55 43 m 1
 53 43 l 1
 53 41 l 1
 55 41 l 1
 55 43 l 1
58 43 m 1
 56 43 l 1
 56 41 l 1
 57 41 l 1
 57 42 l 1
 58 42 l 1
 58 43 l 1
59 42 m 1
 58 42 l 1
 58 41 l 1
 60 41 l 1
 60 43 l 1
 59 43 l 1
 59 42 l 1
63 43 m 1
 61 43 l 1
 61 41 l 1
 63 41 l 1
 63 43 l 1
63 39 m 1
 61 39 l 1
 61 37 l 1
 63 37 l 1
 63 39 l 1
63 35 m 1
 61 35 l 1
 61 33 l 1
 63 33 l 1
 63 35 l 1
63 31 m 1
 61 31 l 1
 61 29 l 1
 63 29 l 1
 63 31 l 1
31 27 m 1
 29 27 l 1
 29 25 l 1
 31 25 l 1
 31 27 l 1
41 27 m 1
 39 27 l 1
 39 25 l 1
 41 25 l 1
 41 27 l 1
44 27 m 1
 42 27 l 1
 42 25 l 1
 43 25 l 1
 43 26 l 1
 44 26 l 1
 44 27 l 1
46 27 m 1
 45 27 l 1
 45 26 l 1
 44 26 l 1
 44 25 l 1
 46 25 l 1
 46 27 l 1
49 27 m 1
 47 27 l 1
 47 25 l 1
 49 25 l 1
 49 27 l 1
63 27 m 1
 61 27 l 1
 61 25 l 1
 63 25 l 1
 63 27 l 1
EndSplineSet
EndChar

StartChar: custom_2_7_0_5_7
Encoding: 28125 28125 8157
Width: 70
Flags: H
LayerCount: 2
Fore
SplineSet
23 43 m 1
 21 43 l 1
 21 41 l 1
 23 41 l 1
 23 43 l 1
26 43 m 1
 24 43 l 1
 24 41 l 1
 25 41 l 1
 25 42 l 1
 26 42 l 1
 26 43 l 1
27 42 m 1
 26 42 l 1
 26 41 l 1
 28 41 l 1
 28 43 l 1
 27 43 l 1
 27 42 l 1
31 43 m 1
 29 43 l 1
 29 41 l 1
 31 41 l 1
 31 43 l 1
31 39 m 1
 29 39 l 1
 29 37 l 1
 31 37 l 1
 31 39 l 1
31 35 m 1
 29 35 l 1
 29 33 l 1
 31 33 l 1
 31 35 l 1
36 37 m 1
 34 37 l 1
 34 35 l 1
 36 35 l 1
 36 37 l 1
31 31 m 1
 29 31 l 1
 29 29 l 1
 31 29 l 1
 31 31 l 1
36 33 m 1
 34 33 l 1
 34 31 l 1
 36 31 l 1
 36 33 l 1
41 43 m 1
 39 43 l 1
 39 41 l 1
 41 41 l 1
 41 43 l 1
44 43 m 1
 42 43 l 1
 42 41 l 1
 43 41 l 1
 43 42 l 1
 44 42 l 1
 44 43 l 1
46 43 m 1
 45 43 l 1
 45 42 l 1
 44 42 l 1
 44 41 l 1
 46 41 l 1
 46 43 l 1
49 43 m 1
 47 43 l 1
 47 41 l 1
 49 41 l 1
 49 43 l 1
49 39 m 1
 47 39 l 1
 47 37 l 1
 49 37 l 1
 49 39 l 1
41 35 m 1
 39 35 l 1
 39 33 l 1
 41 33 l 1
 41 35 l 1
43 35 m 1
 42 35 l 1
 42 33 l 1
 44 33 l 1
 44 34 l 1
 43 34 l 1
 43 35 l 1
41 31 m 1
 39 31 l 1
 39 29 l 1
 41 29 l 1
 41 31 l 1
46 35 m 1
 44 35 l 1
 44 34 l 1
 45 34 l 1
 45 33 l 1
 46 33 l 1
 46 35 l 1
49 35 m 1
 47 35 l 1
 47 33 l 1
 49 33 l 1
 49 35 l 1
55 43 m 1
 53 43 l 1
 53 41 l 1
 55 41 l 1
 55 43 l 1
58 43 m 1
 56 43 l 1
 56 41 l 1
 57 41 l 1
 57 42 l 1
 58 42 l 1
 58 43 l 1
59 42 m 1
 58 42 l 1
 58 41 l 1
 60 41 l 1
 60 43 l 1
 59 43 l 1
 59 42 l 1
63 43 m 1
 61 43 l 1
 61 41 l 1
 63 41 l 1
 63 43 l 1
63 39 m 1
 61 39 l 1
 61 37 l 1
 63 37 l 1
 63 39 l 1
63 35 m 1
 61 35 l 1
 61 33 l 1
 63 33 l 1
 63 35 l 1
63 31 m 1
 61 31 l 1
 61 29 l 1
 63 29 l 1
 63 31 l 1
31 27 m 1
 29 27 l 1
 29 25 l 1
 31 25 l 1
 31 27 l 1
41 27 m 1
 39 27 l 1
 39 25 l 1
 41 25 l 1
 41 27 l 1
44 27 m 1
 42 27 l 1
 42 25 l 1
 43 25 l 1
 43 26 l 1
 44 26 l 1
 44 27 l 1
46 27 m 1
 45 27 l 1
 45 26 l 1
 44 26 l 1
 44 25 l 1
 46 25 l 1
 46 27 l 1
49 27 m 1
 47 27 l 1
 47 25 l 1
 49 25 l 1
 49 27 l 1
63 27 m 1
 61 27 l 1
 61 25 l 1
 63 25 l 1
 63 27 l 1
EndSplineSet
EndChar

StartChar: custom_2_7_0_5_8
Encoding: 28126 28126 8158
Width: 70
Flags: H
LayerCount: 2
Fore
SplineSet
23 43 m 1
 21 43 l 1
 21 41 l 1
 23 41 l 1
 23 43 l 1
26 43 m 1
 24 43 l 1
 24 41 l 1
 25 41 l 1
 25 42 l 1
 26 42 l 1
 26 43 l 1
27 42 m 1
 26 42 l 1
 26 41 l 1
 28 41 l 1
 28 43 l 1
 27 43 l 1
 27 42 l 1
31 43 m 1
 29 43 l 1
 29 41 l 1
 31 41 l 1
 31 43 l 1
31 39 m 1
 29 39 l 1
 29 37 l 1
 31 37 l 1
 31 39 l 1
31 35 m 1
 29 35 l 1
 29 33 l 1
 31 33 l 1
 31 35 l 1
36 37 m 1
 34 37 l 1
 34 35 l 1
 36 35 l 1
 36 37 l 1
31 31 m 1
 29 31 l 1
 29 29 l 1
 31 29 l 1
 31 31 l 1
36 33 m 1
 34 33 l 1
 34 31 l 1
 36 31 l 1
 36 33 l 1
41 43 m 1
 39 43 l 1
 39 41 l 1
 41 41 l 1
 41 43 l 1
44 43 m 1
 42 43 l 1
 42 41 l 1
 43 41 l 1
 43 42 l 1
 44 42 l 1
 44 43 l 1
46 43 m 1
 45 43 l 1
 45 42 l 1
 44 42 l 1
 44 41 l 1
 46 41 l 1
 46 43 l 1
49 43 m 1
 47 43 l 1
 47 41 l 1
 49 41 l 1
 49 43 l 1
49 39 m 1
 47 39 l 1
 47 37 l 1
 49 37 l 1
 49 39 l 1
41 35 m 1
 39 35 l 1
 39 33 l 1
 41 33 l 1
 41 35 l 1
43 35 m 1
 42 35 l 1
 42 33 l 1
 44 33 l 1
 44 34 l 1
 43 34 l 1
 43 35 l 1
41 31 m 1
 39 31 l 1
 39 29 l 1
 41 29 l 1
 41 31 l 1
46 35 m 1
 44 35 l 1
 44 34 l 1
 45 34 l 1
 45 33 l 1
 46 33 l 1
 46 35 l 1
49 35 m 1
 47 35 l 1
 47 33 l 1
 49 33 l 1
 49 35 l 1
55 43 m 1
 53 43 l 1
 53 41 l 1
 55 41 l 1
 55 43 l 1
58 43 m 1
 56 43 l 1
 56 41 l 1
 57 41 l 1
 57 42 l 1
 58 42 l 1
 58 43 l 1
59 42 m 1
 58 42 l 1
 58 41 l 1
 60 41 l 1
 60 43 l 1
 59 43 l 1
 59 42 l 1
63 43 m 1
 61 43 l 1
 61 41 l 1
 63 41 l 1
 63 43 l 1
63 39 m 1
 61 39 l 1
 61 37 l 1
 63 37 l 1
 63 39 l 1
63 35 m 1
 61 35 l 1
 61 33 l 1
 63 33 l 1
 63 35 l 1
63 31 m 1
 61 31 l 1
 61 29 l 1
 63 29 l 1
 63 31 l 1
31 27 m 1
 29 27 l 1
 29 25 l 1
 31 25 l 1
 31 27 l 1
41 27 m 1
 39 27 l 1
 39 25 l 1
 41 25 l 1
 41 27 l 1
44 27 m 1
 42 27 l 1
 42 25 l 1
 43 25 l 1
 43 26 l 1
 44 26 l 1
 44 27 l 1
46 27 m 1
 45 27 l 1
 45 26 l 1
 44 26 l 1
 44 25 l 1
 46 25 l 1
 46 27 l 1
49 27 m 1
 47 27 l 1
 47 25 l 1
 49 25 l 1
 49 27 l 1
63 27 m 1
 61 27 l 1
 61 25 l 1
 63 25 l 1
 63 27 l 1
EndSplineSet
EndChar

StartChar: custom_2_7_0_5_9
Encoding: 28127 28127 8159
Width: 70
Flags: H
LayerCount: 2
Fore
SplineSet
23 43 m 1
 21 43 l 1
 21 41 l 1
 23 41 l 1
 23 43 l 1
26 43 m 1
 24 43 l 1
 24 41 l 1
 25 41 l 1
 25 42 l 1
 26 42 l 1
 26 43 l 1
27 42 m 1
 26 42 l 1
 26 41 l 1
 28 41 l 1
 28 43 l 1
 27 43 l 1
 27 42 l 1
31 43 m 1
 29 43 l 1
 29 41 l 1
 31 41 l 1
 31 43 l 1
31 39 m 1
 29 39 l 1
 29 37 l 1
 31 37 l 1
 31 39 l 1
31 35 m 1
 29 35 l 1
 29 33 l 1
 31 33 l 1
 31 35 l 1
36 37 m 1
 34 37 l 1
 34 35 l 1
 36 35 l 1
 36 37 l 1
31 31 m 1
 29 31 l 1
 29 29 l 1
 31 29 l 1
 31 31 l 1
36 33 m 1
 34 33 l 1
 34 31 l 1
 36 31 l 1
 36 33 l 1
41 43 m 1
 39 43 l 1
 39 41 l 1
 41 41 l 1
 41 43 l 1
44 43 m 1
 42 43 l 1
 42 41 l 1
 43 41 l 1
 43 42 l 1
 44 42 l 1
 44 43 l 1
46 43 m 1
 45 43 l 1
 45 42 l 1
 44 42 l 1
 44 41 l 1
 46 41 l 1
 46 43 l 1
49 43 m 1
 47 43 l 1
 47 41 l 1
 49 41 l 1
 49 43 l 1
49 39 m 1
 47 39 l 1
 47 37 l 1
 49 37 l 1
 49 39 l 1
41 35 m 1
 39 35 l 1
 39 33 l 1
 41 33 l 1
 41 35 l 1
43 35 m 1
 42 35 l 1
 42 33 l 1
 44 33 l 1
 44 34 l 1
 43 34 l 1
 43 35 l 1
41 31 m 1
 39 31 l 1
 39 29 l 1
 41 29 l 1
 41 31 l 1
46 35 m 1
 44 35 l 1
 44 34 l 1
 45 34 l 1
 45 33 l 1
 46 33 l 1
 46 35 l 1
49 35 m 1
 47 35 l 1
 47 33 l 1
 49 33 l 1
 49 35 l 1
55 43 m 1
 53 43 l 1
 53 41 l 1
 55 41 l 1
 55 43 l 1
58 43 m 1
 56 43 l 1
 56 41 l 1
 57 41 l 1
 57 42 l 1
 58 42 l 1
 58 43 l 1
59 42 m 1
 58 42 l 1
 58 41 l 1
 60 41 l 1
 60 43 l 1
 59 43 l 1
 59 42 l 1
63 43 m 1
 61 43 l 1
 61 41 l 1
 63 41 l 1
 63 43 l 1
63 39 m 1
 61 39 l 1
 61 37 l 1
 63 37 l 1
 63 39 l 1
63 35 m 1
 61 35 l 1
 61 33 l 1
 63 33 l 1
 63 35 l 1
63 31 m 1
 61 31 l 1
 61 29 l 1
 63 29 l 1
 63 31 l 1
31 27 m 1
 29 27 l 1
 29 25 l 1
 31 25 l 1
 31 27 l 1
41 27 m 1
 39 27 l 1
 39 25 l 1
 41 25 l 1
 41 27 l 1
44 27 m 1
 42 27 l 1
 42 25 l 1
 43 25 l 1
 43 26 l 1
 44 26 l 1
 44 27 l 1
46 27 m 1
 45 27 l 1
 45 26 l 1
 44 26 l 1
 44 25 l 1
 46 25 l 1
 46 27 l 1
49 27 m 1
 47 27 l 1
 47 25 l 1
 49 25 l 1
 49 27 l 1
63 27 m 1
 61 27 l 1
 61 25 l 1
 63 25 l 1
 63 27 l 1
EndSplineSet
EndChar

StartChar: custom_2_7_0_6_0
Encoding: 28128 28128 8160
Width: 70
Flags: H
LayerCount: 2
Fore
SplineSet
23 43 m 1
 21 43 l 1
 21 41 l 1
 23 41 l 1
 23 43 l 1
26 43 m 1
 24 43 l 1
 24 41 l 1
 25 41 l 1
 25 42 l 1
 26 42 l 1
 26 43 l 1
27 42 m 1
 26 42 l 1
 26 41 l 1
 28 41 l 1
 28 43 l 1
 27 43 l 1
 27 42 l 1
31 43 m 1
 29 43 l 1
 29 41 l 1
 31 41 l 1
 31 43 l 1
31 39 m 1
 29 39 l 1
 29 37 l 1
 31 37 l 1
 31 39 l 1
31 35 m 1
 29 35 l 1
 29 33 l 1
 31 33 l 1
 31 35 l 1
36 37 m 1
 34 37 l 1
 34 35 l 1
 36 35 l 1
 36 37 l 1
31 31 m 1
 29 31 l 1
 29 29 l 1
 31 29 l 1
 31 31 l 1
36 33 m 1
 34 33 l 1
 34 31 l 1
 36 31 l 1
 36 33 l 1
41 43 m 1
 39 43 l 1
 39 41 l 1
 41 41 l 1
 41 43 l 1
44 43 m 1
 42 43 l 1
 42 41 l 1
 43 41 l 1
 43 42 l 1
 44 42 l 1
 44 43 l 1
46 43 m 1
 45 43 l 1
 45 42 l 1
 44 42 l 1
 44 41 l 1
 46 41 l 1
 46 43 l 1
49 43 m 1
 47 43 l 1
 47 41 l 1
 49 41 l 1
 49 43 l 1
49 39 m 1
 47 39 l 1
 47 37 l 1
 49 37 l 1
 49 39 l 1
41 35 m 1
 39 35 l 1
 39 33 l 1
 41 33 l 1
 41 35 l 1
43 35 m 1
 42 35 l 1
 42 33 l 1
 44 33 l 1
 44 34 l 1
 43 34 l 1
 43 35 l 1
41 31 m 1
 39 31 l 1
 39 29 l 1
 41 29 l 1
 41 31 l 1
46 35 m 1
 44 35 l 1
 44 34 l 1
 45 34 l 1
 45 33 l 1
 46 33 l 1
 46 35 l 1
49 35 m 1
 47 35 l 1
 47 33 l 1
 49 33 l 1
 49 35 l 1
55 43 m 1
 53 43 l 1
 53 41 l 1
 55 41 l 1
 55 43 l 1
58 43 m 1
 56 43 l 1
 56 41 l 1
 57 41 l 1
 57 42 l 1
 58 42 l 1
 58 43 l 1
59 42 m 1
 58 42 l 1
 58 41 l 1
 60 41 l 1
 60 43 l 1
 59 43 l 1
 59 42 l 1
63 43 m 1
 61 43 l 1
 61 41 l 1
 63 41 l 1
 63 43 l 1
63 39 m 1
 61 39 l 1
 61 37 l 1
 63 37 l 1
 63 39 l 1
63 35 m 1
 61 35 l 1
 61 33 l 1
 63 33 l 1
 63 35 l 1
63 31 m 1
 61 31 l 1
 61 29 l 1
 63 29 l 1
 63 31 l 1
31 27 m 1
 29 27 l 1
 29 25 l 1
 31 25 l 1
 31 27 l 1
41 27 m 1
 39 27 l 1
 39 25 l 1
 41 25 l 1
 41 27 l 1
44 27 m 1
 42 27 l 1
 42 25 l 1
 43 25 l 1
 43 26 l 1
 44 26 l 1
 44 27 l 1
46 27 m 1
 45 27 l 1
 45 26 l 1
 44 26 l 1
 44 25 l 1
 46 25 l 1
 46 27 l 1
49 27 m 1
 47 27 l 1
 47 25 l 1
 49 25 l 1
 49 27 l 1
63 27 m 1
 61 27 l 1
 61 25 l 1
 63 25 l 1
 63 27 l 1
EndSplineSet
EndChar

StartChar: custom_2_7_0_6_1
Encoding: 28129 28129 8161
Width: 70
Flags: H
LayerCount: 2
Fore
SplineSet
1 3 m 1
 0 3 l 1
 0 2 l 1
 1 2 l 1
 1 3 l 1
23 43 m 1
 21 43 l 1
 21 41 l 1
 23 41 l 1
 23 43 l 1
26 43 m 1
 24 43 l 1
 24 41 l 1
 25 41 l 1
 25 42 l 1
 26 42 l 1
 26 43 l 1
27 42 m 1
 26 42 l 1
 26 41 l 1
 28 41 l 1
 28 43 l 1
 27 43 l 1
 27 42 l 1
31 43 m 1
 29 43 l 1
 29 41 l 1
 31 41 l 1
 31 43 l 1
31 39 m 1
 29 39 l 1
 29 37 l 1
 31 37 l 1
 31 39 l 1
31 35 m 1
 29 35 l 1
 29 33 l 1
 31 33 l 1
 31 35 l 1
36 37 m 1
 34 37 l 1
 34 35 l 1
 36 35 l 1
 36 37 l 1
31 31 m 1
 29 31 l 1
 29 29 l 1
 31 29 l 1
 31 31 l 1
36 33 m 1
 34 33 l 1
 34 31 l 1
 36 31 l 1
 36 33 l 1
41 43 m 1
 39 43 l 1
 39 41 l 1
 41 41 l 1
 41 43 l 1
44 43 m 1
 42 43 l 1
 42 41 l 1
 43 41 l 1
 43 42 l 1
 44 42 l 1
 44 43 l 1
46 43 m 1
 45 43 l 1
 45 42 l 1
 44 42 l 1
 44 41 l 1
 46 41 l 1
 46 43 l 1
49 43 m 1
 47 43 l 1
 47 41 l 1
 49 41 l 1
 49 43 l 1
49 39 m 1
 47 39 l 1
 47 37 l 1
 49 37 l 1
 49 39 l 1
41 35 m 1
 39 35 l 1
 39 33 l 1
 41 33 l 1
 41 35 l 1
43 35 m 1
 42 35 l 1
 42 33 l 1
 44 33 l 1
 44 34 l 1
 43 34 l 1
 43 35 l 1
41 31 m 1
 39 31 l 1
 39 29 l 1
 41 29 l 1
 41 31 l 1
46 35 m 1
 44 35 l 1
 44 34 l 1
 45 34 l 1
 45 33 l 1
 46 33 l 1
 46 35 l 1
49 35 m 1
 47 35 l 1
 47 33 l 1
 49 33 l 1
 49 35 l 1
55 43 m 1
 53 43 l 1
 53 41 l 1
 55 41 l 1
 55 43 l 1
58 43 m 1
 56 43 l 1
 56 41 l 1
 57 41 l 1
 57 42 l 1
 58 42 l 1
 58 43 l 1
59 42 m 1
 58 42 l 1
 58 41 l 1
 60 41 l 1
 60 43 l 1
 59 43 l 1
 59 42 l 1
63 43 m 1
 61 43 l 1
 61 41 l 1
 63 41 l 1
 63 43 l 1
63 39 m 1
 61 39 l 1
 61 37 l 1
 63 37 l 1
 63 39 l 1
63 35 m 1
 61 35 l 1
 61 33 l 1
 63 33 l 1
 63 35 l 1
63 31 m 1
 61 31 l 1
 61 29 l 1
 63 29 l 1
 63 31 l 1
31 27 m 1
 29 27 l 1
 29 25 l 1
 31 25 l 1
 31 27 l 1
41 27 m 1
 39 27 l 1
 39 25 l 1
 41 25 l 1
 41 27 l 1
44 27 m 1
 42 27 l 1
 42 25 l 1
 43 25 l 1
 43 26 l 1
 44 26 l 1
 44 27 l 1
46 27 m 1
 45 27 l 1
 45 26 l 1
 44 26 l 1
 44 25 l 1
 46 25 l 1
 46 27 l 1
49 27 m 1
 47 27 l 1
 47 25 l 1
 49 25 l 1
 49 27 l 1
63 27 m 1
 61 27 l 1
 61 25 l 1
 63 25 l 1
 63 27 l 1
EndSplineSet
EndChar

StartChar: custom_2_7_0_6_2
Encoding: 28130 28130 8162
Width: 70
Flags: H
LayerCount: 2
Fore
SplineSet
1 4 m 1
 0 4 l 1
 0 2 l 1
 1 2 l 1
 1 4 l 1
23 43 m 1
 21 43 l 1
 21 41 l 1
 23 41 l 1
 23 43 l 1
26 43 m 1
 24 43 l 1
 24 41 l 1
 25 41 l 1
 25 42 l 1
 26 42 l 1
 26 43 l 1
27 42 m 1
 26 42 l 1
 26 41 l 1
 28 41 l 1
 28 43 l 1
 27 43 l 1
 27 42 l 1
31 43 m 1
 29 43 l 1
 29 41 l 1
 31 41 l 1
 31 43 l 1
31 39 m 1
 29 39 l 1
 29 37 l 1
 31 37 l 1
 31 39 l 1
31 35 m 1
 29 35 l 1
 29 33 l 1
 31 33 l 1
 31 35 l 1
36 37 m 1
 34 37 l 1
 34 35 l 1
 36 35 l 1
 36 37 l 1
31 31 m 1
 29 31 l 1
 29 29 l 1
 31 29 l 1
 31 31 l 1
36 33 m 1
 34 33 l 1
 34 31 l 1
 36 31 l 1
 36 33 l 1
41 43 m 1
 39 43 l 1
 39 41 l 1
 41 41 l 1
 41 43 l 1
44 43 m 1
 42 43 l 1
 42 41 l 1
 43 41 l 1
 43 42 l 1
 44 42 l 1
 44 43 l 1
46 43 m 1
 45 43 l 1
 45 42 l 1
 44 42 l 1
 44 41 l 1
 46 41 l 1
 46 43 l 1
49 43 m 1
 47 43 l 1
 47 41 l 1
 49 41 l 1
 49 43 l 1
49 39 m 1
 47 39 l 1
 47 37 l 1
 49 37 l 1
 49 39 l 1
41 35 m 1
 39 35 l 1
 39 33 l 1
 41 33 l 1
 41 35 l 1
43 35 m 1
 42 35 l 1
 42 33 l 1
 44 33 l 1
 44 34 l 1
 43 34 l 1
 43 35 l 1
41 31 m 1
 39 31 l 1
 39 29 l 1
 41 29 l 1
 41 31 l 1
46 35 m 1
 44 35 l 1
 44 34 l 1
 45 34 l 1
 45 33 l 1
 46 33 l 1
 46 35 l 1
49 35 m 1
 47 35 l 1
 47 33 l 1
 49 33 l 1
 49 35 l 1
55 43 m 1
 53 43 l 1
 53 41 l 1
 55 41 l 1
 55 43 l 1
58 43 m 1
 56 43 l 1
 56 41 l 1
 57 41 l 1
 57 42 l 1
 58 42 l 1
 58 43 l 1
59 42 m 1
 58 42 l 1
 58 41 l 1
 60 41 l 1
 60 43 l 1
 59 43 l 1
 59 42 l 1
63 43 m 1
 61 43 l 1
 61 41 l 1
 63 41 l 1
 63 43 l 1
63 39 m 1
 61 39 l 1
 61 37 l 1
 63 37 l 1
 63 39 l 1
63 35 m 1
 61 35 l 1
 61 33 l 1
 63 33 l 1
 63 35 l 1
63 31 m 1
 61 31 l 1
 61 29 l 1
 63 29 l 1
 63 31 l 1
31 27 m 1
 29 27 l 1
 29 25 l 1
 31 25 l 1
 31 27 l 1
41 27 m 1
 39 27 l 1
 39 25 l 1
 41 25 l 1
 41 27 l 1
44 27 m 1
 42 27 l 1
 42 25 l 1
 43 25 l 1
 43 26 l 1
 44 26 l 1
 44 27 l 1
46 27 m 1
 45 27 l 1
 45 26 l 1
 44 26 l 1
 44 25 l 1
 46 25 l 1
 46 27 l 1
49 27 m 1
 47 27 l 1
 47 25 l 1
 49 25 l 1
 49 27 l 1
63 27 m 1
 61 27 l 1
 61 25 l 1
 63 25 l 1
 63 27 l 1
EndSplineSet
EndChar

StartChar: custom_2_7_0_6_3
Encoding: 28131 28131 8163
Width: 70
Flags: H
LayerCount: 2
Fore
SplineSet
1 4 m 1
 0 4 l 1
 0 2 l 1
 1 2 l 1
 1 4 l 1
23 43 m 1
 21 43 l 1
 21 41 l 1
 23 41 l 1
 23 43 l 1
26 43 m 1
 24 43 l 1
 24 41 l 1
 25 41 l 1
 25 42 l 1
 26 42 l 1
 26 43 l 1
27 42 m 1
 26 42 l 1
 26 41 l 1
 28 41 l 1
 28 43 l 1
 27 43 l 1
 27 42 l 1
31 43 m 1
 29 43 l 1
 29 41 l 1
 31 41 l 1
 31 43 l 1
31 39 m 1
 29 39 l 1
 29 37 l 1
 31 37 l 1
 31 39 l 1
31 35 m 1
 29 35 l 1
 29 33 l 1
 31 33 l 1
 31 35 l 1
36 37 m 1
 34 37 l 1
 34 35 l 1
 36 35 l 1
 36 37 l 1
31 31 m 1
 29 31 l 1
 29 29 l 1
 31 29 l 1
 31 31 l 1
36 33 m 1
 34 33 l 1
 34 31 l 1
 36 31 l 1
 36 33 l 1
41 43 m 1
 39 43 l 1
 39 41 l 1
 41 41 l 1
 41 43 l 1
44 43 m 1
 42 43 l 1
 42 41 l 1
 43 41 l 1
 43 42 l 1
 44 42 l 1
 44 43 l 1
46 43 m 1
 45 43 l 1
 45 42 l 1
 44 42 l 1
 44 41 l 1
 46 41 l 1
 46 43 l 1
49 43 m 1
 47 43 l 1
 47 41 l 1
 49 41 l 1
 49 43 l 1
49 39 m 1
 47 39 l 1
 47 37 l 1
 49 37 l 1
 49 39 l 1
41 35 m 1
 39 35 l 1
 39 33 l 1
 41 33 l 1
 41 35 l 1
43 35 m 1
 42 35 l 1
 42 33 l 1
 44 33 l 1
 44 34 l 1
 43 34 l 1
 43 35 l 1
41 31 m 1
 39 31 l 1
 39 29 l 1
 41 29 l 1
 41 31 l 1
46 35 m 1
 44 35 l 1
 44 34 l 1
 45 34 l 1
 45 33 l 1
 46 33 l 1
 46 35 l 1
49 35 m 1
 47 35 l 1
 47 33 l 1
 49 33 l 1
 49 35 l 1
55 43 m 1
 53 43 l 1
 53 41 l 1
 55 41 l 1
 55 43 l 1
58 43 m 1
 56 43 l 1
 56 41 l 1
 57 41 l 1
 57 42 l 1
 58 42 l 1
 58 43 l 1
59 42 m 1
 58 42 l 1
 58 41 l 1
 60 41 l 1
 60 43 l 1
 59 43 l 1
 59 42 l 1
63 43 m 1
 61 43 l 1
 61 41 l 1
 63 41 l 1
 63 43 l 1
63 39 m 1
 61 39 l 1
 61 37 l 1
 63 37 l 1
 63 39 l 1
63 35 m 1
 61 35 l 1
 61 33 l 1
 63 33 l 1
 63 35 l 1
63 31 m 1
 61 31 l 1
 61 29 l 1
 63 29 l 1
 63 31 l 1
31 27 m 1
 29 27 l 1
 29 25 l 1
 31 25 l 1
 31 27 l 1
41 27 m 1
 39 27 l 1
 39 25 l 1
 41 25 l 1
 41 27 l 1
44 27 m 1
 42 27 l 1
 42 25 l 1
 43 25 l 1
 43 26 l 1
 44 26 l 1
 44 27 l 1
46 27 m 1
 45 27 l 1
 45 26 l 1
 44 26 l 1
 44 25 l 1
 46 25 l 1
 46 27 l 1
49 27 m 1
 47 27 l 1
 47 25 l 1
 49 25 l 1
 49 27 l 1
63 27 m 1
 61 27 l 1
 61 25 l 1
 63 25 l 1
 63 27 l 1
EndSplineSet
EndChar

StartChar: custom_2_7_0_6_4
Encoding: 28132 28132 8164
Width: 70
Flags: H
LayerCount: 2
Fore
SplineSet
1 5 m 1
 0 5 l 1
 0 2 l 1
 1 2 l 1
 1 5 l 1
23 43 m 1
 21 43 l 1
 21 41 l 1
 23 41 l 1
 23 43 l 1
26 43 m 1
 24 43 l 1
 24 41 l 1
 25 41 l 1
 25 42 l 1
 26 42 l 1
 26 43 l 1
27 42 m 1
 26 42 l 1
 26 41 l 1
 28 41 l 1
 28 43 l 1
 27 43 l 1
 27 42 l 1
31 43 m 1
 29 43 l 1
 29 41 l 1
 31 41 l 1
 31 43 l 1
31 39 m 1
 29 39 l 1
 29 37 l 1
 31 37 l 1
 31 39 l 1
31 35 m 1
 29 35 l 1
 29 33 l 1
 31 33 l 1
 31 35 l 1
36 37 m 1
 34 37 l 1
 34 35 l 1
 36 35 l 1
 36 37 l 1
31 31 m 1
 29 31 l 1
 29 29 l 1
 31 29 l 1
 31 31 l 1
36 33 m 1
 34 33 l 1
 34 31 l 1
 36 31 l 1
 36 33 l 1
41 43 m 1
 39 43 l 1
 39 41 l 1
 41 41 l 1
 41 43 l 1
44 43 m 1
 42 43 l 1
 42 41 l 1
 43 41 l 1
 43 42 l 1
 44 42 l 1
 44 43 l 1
46 43 m 1
 45 43 l 1
 45 42 l 1
 44 42 l 1
 44 41 l 1
 46 41 l 1
 46 43 l 1
49 43 m 1
 47 43 l 1
 47 41 l 1
 49 41 l 1
 49 43 l 1
49 39 m 1
 47 39 l 1
 47 37 l 1
 49 37 l 1
 49 39 l 1
41 35 m 1
 39 35 l 1
 39 33 l 1
 41 33 l 1
 41 35 l 1
43 35 m 1
 42 35 l 1
 42 33 l 1
 44 33 l 1
 44 34 l 1
 43 34 l 1
 43 35 l 1
41 31 m 1
 39 31 l 1
 39 29 l 1
 41 29 l 1
 41 31 l 1
46 35 m 1
 44 35 l 1
 44 34 l 1
 45 34 l 1
 45 33 l 1
 46 33 l 1
 46 35 l 1
49 35 m 1
 47 35 l 1
 47 33 l 1
 49 33 l 1
 49 35 l 1
55 43 m 1
 53 43 l 1
 53 41 l 1
 55 41 l 1
 55 43 l 1
58 43 m 1
 56 43 l 1
 56 41 l 1
 57 41 l 1
 57 42 l 1
 58 42 l 1
 58 43 l 1
59 42 m 1
 58 42 l 1
 58 41 l 1
 60 41 l 1
 60 43 l 1
 59 43 l 1
 59 42 l 1
63 43 m 1
 61 43 l 1
 61 41 l 1
 63 41 l 1
 63 43 l 1
63 39 m 1
 61 39 l 1
 61 37 l 1
 63 37 l 1
 63 39 l 1
63 35 m 1
 61 35 l 1
 61 33 l 1
 63 33 l 1
 63 35 l 1
63 31 m 1
 61 31 l 1
 61 29 l 1
 63 29 l 1
 63 31 l 1
31 27 m 1
 29 27 l 1
 29 25 l 1
 31 25 l 1
 31 27 l 1
41 27 m 1
 39 27 l 1
 39 25 l 1
 41 25 l 1
 41 27 l 1
44 27 m 1
 42 27 l 1
 42 25 l 1
 43 25 l 1
 43 26 l 1
 44 26 l 1
 44 27 l 1
46 27 m 1
 45 27 l 1
 45 26 l 1
 44 26 l 1
 44 25 l 1
 46 25 l 1
 46 27 l 1
49 27 m 1
 47 27 l 1
 47 25 l 1
 49 25 l 1
 49 27 l 1
63 27 m 1
 61 27 l 1
 61 25 l 1
 63 25 l 1
 63 27 l 1
EndSplineSet
EndChar

StartChar: custom_2_7_0_6_5
Encoding: 28133 28133 8165
Width: 70
Flags: H
LayerCount: 2
Fore
SplineSet
1 5 m 1
 0 5 l 1
 0 3 l 1
 2 3 l 1
 2 4 l 1
 1 4 l 1
 1 5 l 1
23 43 m 1
 21 43 l 1
 21 41 l 1
 23 41 l 1
 23 43 l 1
26 43 m 1
 24 43 l 1
 24 41 l 1
 25 41 l 1
 25 42 l 1
 26 42 l 1
 26 43 l 1
27 42 m 1
 26 42 l 1
 26 41 l 1
 28 41 l 1
 28 43 l 1
 27 43 l 1
 27 42 l 1
31 43 m 1
 29 43 l 1
 29 41 l 1
 31 41 l 1
 31 43 l 1
31 39 m 1
 29 39 l 1
 29 37 l 1
 31 37 l 1
 31 39 l 1
31 35 m 1
 29 35 l 1
 29 33 l 1
 31 33 l 1
 31 35 l 1
36 37 m 1
 34 37 l 1
 34 35 l 1
 36 35 l 1
 36 37 l 1
31 31 m 1
 29 31 l 1
 29 29 l 1
 31 29 l 1
 31 31 l 1
36 33 m 1
 34 33 l 1
 34 31 l 1
 36 31 l 1
 36 33 l 1
41 43 m 1
 39 43 l 1
 39 41 l 1
 41 41 l 1
 41 43 l 1
44 43 m 1
 42 43 l 1
 42 41 l 1
 43 41 l 1
 43 42 l 1
 44 42 l 1
 44 43 l 1
46 43 m 1
 45 43 l 1
 45 42 l 1
 44 42 l 1
 44 41 l 1
 46 41 l 1
 46 43 l 1
49 43 m 1
 47 43 l 1
 47 41 l 1
 49 41 l 1
 49 43 l 1
49 39 m 1
 47 39 l 1
 47 37 l 1
 49 37 l 1
 49 39 l 1
41 35 m 1
 39 35 l 1
 39 33 l 1
 41 33 l 1
 41 35 l 1
43 35 m 1
 42 35 l 1
 42 33 l 1
 44 33 l 1
 44 34 l 1
 43 34 l 1
 43 35 l 1
41 31 m 1
 39 31 l 1
 39 29 l 1
 41 29 l 1
 41 31 l 1
46 35 m 1
 44 35 l 1
 44 34 l 1
 45 34 l 1
 45 33 l 1
 46 33 l 1
 46 35 l 1
49 35 m 1
 47 35 l 1
 47 33 l 1
 49 33 l 1
 49 35 l 1
55 43 m 1
 53 43 l 1
 53 41 l 1
 55 41 l 1
 55 43 l 1
58 43 m 1
 56 43 l 1
 56 41 l 1
 57 41 l 1
 57 42 l 1
 58 42 l 1
 58 43 l 1
59 42 m 1
 58 42 l 1
 58 41 l 1
 60 41 l 1
 60 43 l 1
 59 43 l 1
 59 42 l 1
63 43 m 1
 61 43 l 1
 61 41 l 1
 63 41 l 1
 63 43 l 1
63 39 m 1
 61 39 l 1
 61 37 l 1
 63 37 l 1
 63 39 l 1
63 35 m 1
 61 35 l 1
 61 33 l 1
 63 33 l 1
 63 35 l 1
63 31 m 1
 61 31 l 1
 61 29 l 1
 63 29 l 1
 63 31 l 1
31 27 m 1
 29 27 l 1
 29 25 l 1
 31 25 l 1
 31 27 l 1
41 27 m 1
 39 27 l 1
 39 25 l 1
 41 25 l 1
 41 27 l 1
44 27 m 1
 42 27 l 1
 42 25 l 1
 43 25 l 1
 43 26 l 1
 44 26 l 1
 44 27 l 1
46 27 m 1
 45 27 l 1
 45 26 l 1
 44 26 l 1
 44 25 l 1
 46 25 l 1
 46 27 l 1
49 27 m 1
 47 27 l 1
 47 25 l 1
 49 25 l 1
 49 27 l 1
63 27 m 1
 61 27 l 1
 61 25 l 1
 63 25 l 1
 63 27 l 1
EndSplineSet
EndChar

StartChar: custom_2_7_0_6_6
Encoding: 28134 28134 8166
Width: 70
Flags: H
LayerCount: 2
Fore
SplineSet
2 5 m 1
 0 5 l 1
 0 4 l 1
 1 4 l 1
 1 3 l 1
 2 3 l 1
 2 5 l 1
1 3 m 1
 0 3 l 1
 0 2 l 1
 1 2 l 1
 1 3 l 1
23 43 m 1
 21 43 l 1
 21 41 l 1
 23 41 l 1
 23 43 l 1
26 43 m 1
 24 43 l 1
 24 41 l 1
 25 41 l 1
 25 42 l 1
 26 42 l 1
 26 43 l 1
27 42 m 1
 26 42 l 1
 26 41 l 1
 28 41 l 1
 28 43 l 1
 27 43 l 1
 27 42 l 1
31 43 m 1
 29 43 l 1
 29 41 l 1
 31 41 l 1
 31 43 l 1
31 39 m 1
 29 39 l 1
 29 37 l 1
 31 37 l 1
 31 39 l 1
31 35 m 1
 29 35 l 1
 29 33 l 1
 31 33 l 1
 31 35 l 1
36 37 m 1
 34 37 l 1
 34 35 l 1
 36 35 l 1
 36 37 l 1
31 31 m 1
 29 31 l 1
 29 29 l 1
 31 29 l 1
 31 31 l 1
36 33 m 1
 34 33 l 1
 34 31 l 1
 36 31 l 1
 36 33 l 1
41 43 m 1
 39 43 l 1
 39 41 l 1
 41 41 l 1
 41 43 l 1
44 43 m 1
 42 43 l 1
 42 41 l 1
 43 41 l 1
 43 42 l 1
 44 42 l 1
 44 43 l 1
46 43 m 1
 45 43 l 1
 45 42 l 1
 44 42 l 1
 44 41 l 1
 46 41 l 1
 46 43 l 1
49 43 m 1
 47 43 l 1
 47 41 l 1
 49 41 l 1
 49 43 l 1
49 39 m 1
 47 39 l 1
 47 37 l 1
 49 37 l 1
 49 39 l 1
41 35 m 1
 39 35 l 1
 39 33 l 1
 41 33 l 1
 41 35 l 1
43 35 m 1
 42 35 l 1
 42 33 l 1
 44 33 l 1
 44 34 l 1
 43 34 l 1
 43 35 l 1
41 31 m 1
 39 31 l 1
 39 29 l 1
 41 29 l 1
 41 31 l 1
46 35 m 1
 44 35 l 1
 44 34 l 1
 45 34 l 1
 45 33 l 1
 46 33 l 1
 46 35 l 1
49 35 m 1
 47 35 l 1
 47 33 l 1
 49 33 l 1
 49 35 l 1
55 43 m 1
 53 43 l 1
 53 41 l 1
 55 41 l 1
 55 43 l 1
58 43 m 1
 56 43 l 1
 56 41 l 1
 57 41 l 1
 57 42 l 1
 58 42 l 1
 58 43 l 1
59 42 m 1
 58 42 l 1
 58 41 l 1
 60 41 l 1
 60 43 l 1
 59 43 l 1
 59 42 l 1
63 43 m 1
 61 43 l 1
 61 41 l 1
 63 41 l 1
 63 43 l 1
63 39 m 1
 61 39 l 1
 61 37 l 1
 63 37 l 1
 63 39 l 1
63 35 m 1
 61 35 l 1
 61 33 l 1
 63 33 l 1
 63 35 l 1
63 31 m 1
 61 31 l 1
 61 29 l 1
 63 29 l 1
 63 31 l 1
31 27 m 1
 29 27 l 1
 29 25 l 1
 31 25 l 1
 31 27 l 1
41 27 m 1
 39 27 l 1
 39 25 l 1
 41 25 l 1
 41 27 l 1
44 27 m 1
 42 27 l 1
 42 25 l 1
 43 25 l 1
 43 26 l 1
 44 26 l 1
 44 27 l 1
46 27 m 1
 45 27 l 1
 45 26 l 1
 44 26 l 1
 44 25 l 1
 46 25 l 1
 46 27 l 1
49 27 m 1
 47 27 l 1
 47 25 l 1
 49 25 l 1
 49 27 l 1
63 27 m 1
 61 27 l 1
 61 25 l 1
 63 25 l 1
 63 27 l 1
EndSplineSet
EndChar

StartChar: custom_2_7_0_6_7
Encoding: 28135 28135 8167
Width: 70
Flags: H
LayerCount: 2
Fore
SplineSet
1 6 m 1
 0 6 l 1
 0 4 l 1
 1 4 l 1
 1 3 l 1
 2 3 l 1
 2 5 l 1
 1 5 l 1
 1 6 l 1
23 43 m 1
 21 43 l 1
 21 41 l 1
 23 41 l 1
 23 43 l 1
26 43 m 1
 24 43 l 1
 24 41 l 1
 25 41 l 1
 25 42 l 1
 26 42 l 1
 26 43 l 1
27 42 m 1
 26 42 l 1
 26 41 l 1
 28 41 l 1
 28 43 l 1
 27 43 l 1
 27 42 l 1
31 43 m 1
 29 43 l 1
 29 41 l 1
 31 41 l 1
 31 43 l 1
31 39 m 1
 29 39 l 1
 29 37 l 1
 31 37 l 1
 31 39 l 1
31 35 m 1
 29 35 l 1
 29 33 l 1
 31 33 l 1
 31 35 l 1
36 37 m 1
 34 37 l 1
 34 35 l 1
 36 35 l 1
 36 37 l 1
31 31 m 1
 29 31 l 1
 29 29 l 1
 31 29 l 1
 31 31 l 1
36 33 m 1
 34 33 l 1
 34 31 l 1
 36 31 l 1
 36 33 l 1
41 43 m 1
 39 43 l 1
 39 41 l 1
 41 41 l 1
 41 43 l 1
44 43 m 1
 42 43 l 1
 42 41 l 1
 43 41 l 1
 43 42 l 1
 44 42 l 1
 44 43 l 1
46 43 m 1
 45 43 l 1
 45 42 l 1
 44 42 l 1
 44 41 l 1
 46 41 l 1
 46 43 l 1
49 43 m 1
 47 43 l 1
 47 41 l 1
 49 41 l 1
 49 43 l 1
49 39 m 1
 47 39 l 1
 47 37 l 1
 49 37 l 1
 49 39 l 1
41 35 m 1
 39 35 l 1
 39 33 l 1
 41 33 l 1
 41 35 l 1
43 35 m 1
 42 35 l 1
 42 33 l 1
 44 33 l 1
 44 34 l 1
 43 34 l 1
 43 35 l 1
41 31 m 1
 39 31 l 1
 39 29 l 1
 41 29 l 1
 41 31 l 1
46 35 m 1
 44 35 l 1
 44 34 l 1
 45 34 l 1
 45 33 l 1
 46 33 l 1
 46 35 l 1
49 35 m 1
 47 35 l 1
 47 33 l 1
 49 33 l 1
 49 35 l 1
55 43 m 1
 53 43 l 1
 53 41 l 1
 55 41 l 1
 55 43 l 1
58 43 m 1
 56 43 l 1
 56 41 l 1
 57 41 l 1
 57 42 l 1
 58 42 l 1
 58 43 l 1
59 42 m 1
 58 42 l 1
 58 41 l 1
 60 41 l 1
 60 43 l 1
 59 43 l 1
 59 42 l 1
63 43 m 1
 61 43 l 1
 61 41 l 1
 63 41 l 1
 63 43 l 1
63 39 m 1
 61 39 l 1
 61 37 l 1
 63 37 l 1
 63 39 l 1
63 35 m 1
 61 35 l 1
 61 33 l 1
 63 33 l 1
 63 35 l 1
63 31 m 1
 61 31 l 1
 61 29 l 1
 63 29 l 1
 63 31 l 1
31 27 m 1
 29 27 l 1
 29 25 l 1
 31 25 l 1
 31 27 l 1
41 27 m 1
 39 27 l 1
 39 25 l 1
 41 25 l 1
 41 27 l 1
44 27 m 1
 42 27 l 1
 42 25 l 1
 43 25 l 1
 43 26 l 1
 44 26 l 1
 44 27 l 1
46 27 m 1
 45 27 l 1
 45 26 l 1
 44 26 l 1
 44 25 l 1
 46 25 l 1
 46 27 l 1
49 27 m 1
 47 27 l 1
 47 25 l 1
 49 25 l 1
 49 27 l 1
63 27 m 1
 61 27 l 1
 61 25 l 1
 63 25 l 1
 63 27 l 1
EndSplineSet
EndChar

StartChar: custom_2_7_0_6_8
Encoding: 28136 28136 8168
Width: 70
Flags: H
LayerCount: 2
Fore
SplineSet
2 6 m 1
 0 6 l 1
 0 5 l 1
 1 5 l 1
 1 3 l 1
 2 3 l 1
 2 6 l 1
23 43 m 1
 21 43 l 1
 21 41 l 1
 23 41 l 1
 23 43 l 1
26 43 m 1
 24 43 l 1
 24 41 l 1
 25 41 l 1
 25 42 l 1
 26 42 l 1
 26 43 l 1
27 42 m 1
 26 42 l 1
 26 41 l 1
 28 41 l 1
 28 43 l 1
 27 43 l 1
 27 42 l 1
31 43 m 1
 29 43 l 1
 29 41 l 1
 31 41 l 1
 31 43 l 1
31 39 m 1
 29 39 l 1
 29 37 l 1
 31 37 l 1
 31 39 l 1
31 35 m 1
 29 35 l 1
 29 33 l 1
 31 33 l 1
 31 35 l 1
36 37 m 1
 34 37 l 1
 34 35 l 1
 36 35 l 1
 36 37 l 1
31 31 m 1
 29 31 l 1
 29 29 l 1
 31 29 l 1
 31 31 l 1
36 33 m 1
 34 33 l 1
 34 31 l 1
 36 31 l 1
 36 33 l 1
41 43 m 1
 39 43 l 1
 39 41 l 1
 41 41 l 1
 41 43 l 1
44 43 m 1
 42 43 l 1
 42 41 l 1
 43 41 l 1
 43 42 l 1
 44 42 l 1
 44 43 l 1
46 43 m 1
 45 43 l 1
 45 42 l 1
 44 42 l 1
 44 41 l 1
 46 41 l 1
 46 43 l 1
49 43 m 1
 47 43 l 1
 47 41 l 1
 49 41 l 1
 49 43 l 1
49 39 m 1
 47 39 l 1
 47 37 l 1
 49 37 l 1
 49 39 l 1
41 35 m 1
 39 35 l 1
 39 33 l 1
 41 33 l 1
 41 35 l 1
43 35 m 1
 42 35 l 1
 42 33 l 1
 44 33 l 1
 44 34 l 1
 43 34 l 1
 43 35 l 1
41 31 m 1
 39 31 l 1
 39 29 l 1
 41 29 l 1
 41 31 l 1
46 35 m 1
 44 35 l 1
 44 34 l 1
 45 34 l 1
 45 33 l 1
 46 33 l 1
 46 35 l 1
49 35 m 1
 47 35 l 1
 47 33 l 1
 49 33 l 1
 49 35 l 1
55 43 m 1
 53 43 l 1
 53 41 l 1
 55 41 l 1
 55 43 l 1
58 43 m 1
 56 43 l 1
 56 41 l 1
 57 41 l 1
 57 42 l 1
 58 42 l 1
 58 43 l 1
59 42 m 1
 58 42 l 1
 58 41 l 1
 60 41 l 1
 60 43 l 1
 59 43 l 1
 59 42 l 1
63 43 m 1
 61 43 l 1
 61 41 l 1
 63 41 l 1
 63 43 l 1
63 39 m 1
 61 39 l 1
 61 37 l 1
 63 37 l 1
 63 39 l 1
63 35 m 1
 61 35 l 1
 61 33 l 1
 63 33 l 1
 63 35 l 1
63 31 m 1
 61 31 l 1
 61 29 l 1
 63 29 l 1
 63 31 l 1
31 27 m 1
 29 27 l 1
 29 25 l 1
 31 25 l 1
 31 27 l 1
41 27 m 1
 39 27 l 1
 39 25 l 1
 41 25 l 1
 41 27 l 1
44 27 m 1
 42 27 l 1
 42 25 l 1
 43 25 l 1
 43 26 l 1
 44 26 l 1
 44 27 l 1
46 27 m 1
 45 27 l 1
 45 26 l 1
 44 26 l 1
 44 25 l 1
 46 25 l 1
 46 27 l 1
49 27 m 1
 47 27 l 1
 47 25 l 1
 49 25 l 1
 49 27 l 1
63 27 m 1
 61 27 l 1
 61 25 l 1
 63 25 l 1
 63 27 l 1
EndSplineSet
EndChar

StartChar: custom_2_7_0_6_9
Encoding: 28137 28137 8169
Width: 70
Flags: H
LayerCount: 2
Fore
SplineSet
2 6 m 1
 0 6 l 1
 0 5 l 1
 1 5 l 1
 1 4 l 1
 3 4 l 1
 3 5 l 1
 2 5 l 1
 2 6 l 1
1 4 m 1
 0 4 l 1
 0 3 l 1
 1 3 l 1
 1 4 l 1
23 43 m 1
 21 43 l 1
 21 41 l 1
 23 41 l 1
 23 43 l 1
26 43 m 1
 24 43 l 1
 24 41 l 1
 25 41 l 1
 25 42 l 1
 26 42 l 1
 26 43 l 1
27 42 m 1
 26 42 l 1
 26 41 l 1
 28 41 l 1
 28 43 l 1
 27 43 l 1
 27 42 l 1
31 43 m 1
 29 43 l 1
 29 41 l 1
 31 41 l 1
 31 43 l 1
31 39 m 1
 29 39 l 1
 29 37 l 1
 31 37 l 1
 31 39 l 1
31 35 m 1
 29 35 l 1
 29 33 l 1
 31 33 l 1
 31 35 l 1
36 37 m 1
 34 37 l 1
 34 35 l 1
 36 35 l 1
 36 37 l 1
31 31 m 1
 29 31 l 1
 29 29 l 1
 31 29 l 1
 31 31 l 1
36 33 m 1
 34 33 l 1
 34 31 l 1
 36 31 l 1
 36 33 l 1
41 43 m 1
 39 43 l 1
 39 41 l 1
 41 41 l 1
 41 43 l 1
44 43 m 1
 42 43 l 1
 42 41 l 1
 43 41 l 1
 43 42 l 1
 44 42 l 1
 44 43 l 1
46 43 m 1
 45 43 l 1
 45 42 l 1
 44 42 l 1
 44 41 l 1
 46 41 l 1
 46 43 l 1
49 43 m 1
 47 43 l 1
 47 41 l 1
 49 41 l 1
 49 43 l 1
49 39 m 1
 47 39 l 1
 47 37 l 1
 49 37 l 1
 49 39 l 1
41 35 m 1
 39 35 l 1
 39 33 l 1
 41 33 l 1
 41 35 l 1
43 35 m 1
 42 35 l 1
 42 33 l 1
 44 33 l 1
 44 34 l 1
 43 34 l 1
 43 35 l 1
41 31 m 1
 39 31 l 1
 39 29 l 1
 41 29 l 1
 41 31 l 1
46 35 m 1
 44 35 l 1
 44 34 l 1
 45 34 l 1
 45 33 l 1
 46 33 l 1
 46 35 l 1
49 35 m 1
 47 35 l 1
 47 33 l 1
 49 33 l 1
 49 35 l 1
55 43 m 1
 53 43 l 1
 53 41 l 1
 55 41 l 1
 55 43 l 1
58 43 m 1
 56 43 l 1
 56 41 l 1
 57 41 l 1
 57 42 l 1
 58 42 l 1
 58 43 l 1
59 42 m 1
 58 42 l 1
 58 41 l 1
 60 41 l 1
 60 43 l 1
 59 43 l 1
 59 42 l 1
63 43 m 1
 61 43 l 1
 61 41 l 1
 63 41 l 1
 63 43 l 1
63 39 m 1
 61 39 l 1
 61 37 l 1
 63 37 l 1
 63 39 l 1
63 35 m 1
 61 35 l 1
 61 33 l 1
 63 33 l 1
 63 35 l 1
63 31 m 1
 61 31 l 1
 61 29 l 1
 63 29 l 1
 63 31 l 1
31 27 m 1
 29 27 l 1
 29 25 l 1
 31 25 l 1
 31 27 l 1
41 27 m 1
 39 27 l 1
 39 25 l 1
 41 25 l 1
 41 27 l 1
44 27 m 1
 42 27 l 1
 42 25 l 1
 43 25 l 1
 43 26 l 1
 44 26 l 1
 44 27 l 1
46 27 m 1
 45 27 l 1
 45 26 l 1
 44 26 l 1
 44 25 l 1
 46 25 l 1
 46 27 l 1
49 27 m 1
 47 27 l 1
 47 25 l 1
 49 25 l 1
 49 27 l 1
63 27 m 1
 61 27 l 1
 61 25 l 1
 63 25 l 1
 63 27 l 1
EndSplineSet
EndChar

StartChar: custom_2_7_0_7_0
Encoding: 28138 28138 8170
Width: 70
Flags: H
LayerCount: 2
Fore
SplineSet
3 6 m 1
 0 6 l 1
 0 5 l 1
 2 5 l 1
 2 4 l 1
 3 4 l 1
 3 6 l 1
2 4 m 1
 1 4 l 1
 1 3 l 1
 2 3 l 1
 2 4 l 1
23 43 m 1
 21 43 l 1
 21 41 l 1
 23 41 l 1
 23 43 l 1
26 43 m 1
 24 43 l 1
 24 41 l 1
 25 41 l 1
 25 42 l 1
 26 42 l 1
 26 43 l 1
27 42 m 1
 26 42 l 1
 26 41 l 1
 28 41 l 1
 28 43 l 1
 27 43 l 1
 27 42 l 1
31 43 m 1
 29 43 l 1
 29 41 l 1
 31 41 l 1
 31 43 l 1
31 39 m 1
 29 39 l 1
 29 37 l 1
 31 37 l 1
 31 39 l 1
31 35 m 1
 29 35 l 1
 29 33 l 1
 31 33 l 1
 31 35 l 1
36 37 m 1
 34 37 l 1
 34 35 l 1
 36 35 l 1
 36 37 l 1
31 31 m 1
 29 31 l 1
 29 29 l 1
 31 29 l 1
 31 31 l 1
36 33 m 1
 34 33 l 1
 34 31 l 1
 36 31 l 1
 36 33 l 1
41 43 m 1
 39 43 l 1
 39 41 l 1
 41 41 l 1
 41 43 l 1
44 43 m 1
 42 43 l 1
 42 41 l 1
 43 41 l 1
 43 42 l 1
 44 42 l 1
 44 43 l 1
46 43 m 1
 45 43 l 1
 45 42 l 1
 44 42 l 1
 44 41 l 1
 46 41 l 1
 46 43 l 1
49 43 m 1
 47 43 l 1
 47 41 l 1
 49 41 l 1
 49 43 l 1
49 39 m 1
 47 39 l 1
 47 37 l 1
 49 37 l 1
 49 39 l 1
41 35 m 1
 39 35 l 1
 39 33 l 1
 41 33 l 1
 41 35 l 1
43 35 m 1
 42 35 l 1
 42 33 l 1
 44 33 l 1
 44 34 l 1
 43 34 l 1
 43 35 l 1
41 31 m 1
 39 31 l 1
 39 29 l 1
 41 29 l 1
 41 31 l 1
46 35 m 1
 44 35 l 1
 44 34 l 1
 45 34 l 1
 45 33 l 1
 46 33 l 1
 46 35 l 1
49 35 m 1
 47 35 l 1
 47 33 l 1
 49 33 l 1
 49 35 l 1
55 43 m 1
 53 43 l 1
 53 41 l 1
 55 41 l 1
 55 43 l 1
58 43 m 1
 56 43 l 1
 56 41 l 1
 57 41 l 1
 57 42 l 1
 58 42 l 1
 58 43 l 1
59 42 m 1
 58 42 l 1
 58 41 l 1
 60 41 l 1
 60 43 l 1
 59 43 l 1
 59 42 l 1
63 43 m 1
 61 43 l 1
 61 41 l 1
 63 41 l 1
 63 43 l 1
63 39 m 1
 61 39 l 1
 61 37 l 1
 63 37 l 1
 63 39 l 1
63 35 m 1
 61 35 l 1
 61 33 l 1
 63 33 l 1
 63 35 l 1
63 31 m 1
 61 31 l 1
 61 29 l 1
 63 29 l 1
 63 31 l 1
31 27 m 1
 29 27 l 1
 29 25 l 1
 31 25 l 1
 31 27 l 1
41 27 m 1
 39 27 l 1
 39 25 l 1
 41 25 l 1
 41 27 l 1
44 27 m 1
 42 27 l 1
 42 25 l 1
 43 25 l 1
 43 26 l 1
 44 26 l 1
 44 27 l 1
46 27 m 1
 45 27 l 1
 45 26 l 1
 44 26 l 1
 44 25 l 1
 46 25 l 1
 46 27 l 1
49 27 m 1
 47 27 l 1
 47 25 l 1
 49 25 l 1
 49 27 l 1
63 27 m 1
 61 27 l 1
 61 25 l 1
 63 25 l 1
 63 27 l 1
EndSplineSet
EndChar

StartChar: custom_2_7_0_7_1
Encoding: 28139 28139 8171
Width: 70
Flags: H
LayerCount: 2
Fore
SplineSet
2 7 m 1
 1 7 l 1
 1 5 l 1
 2 5 l 1
 2 4 l 1
 3 4 l 1
 3 6 l 1
 2 6 l 1
 2 7 l 1
1 5 m 1
 0 5 l 1
 0 4 l 1
 1 4 l 1
 1 5 l 1
23 43 m 1
 21 43 l 1
 21 41 l 1
 23 41 l 1
 23 43 l 1
26 43 m 1
 24 43 l 1
 24 41 l 1
 25 41 l 1
 25 42 l 1
 26 42 l 1
 26 43 l 1
27 42 m 1
 26 42 l 1
 26 41 l 1
 28 41 l 1
 28 43 l 1
 27 43 l 1
 27 42 l 1
31 43 m 1
 29 43 l 1
 29 41 l 1
 31 41 l 1
 31 43 l 1
31 39 m 1
 29 39 l 1
 29 37 l 1
 31 37 l 1
 31 39 l 1
31 35 m 1
 29 35 l 1
 29 33 l 1
 31 33 l 1
 31 35 l 1
36 37 m 1
 34 37 l 1
 34 35 l 1
 36 35 l 1
 36 37 l 1
31 31 m 1
 29 31 l 1
 29 29 l 1
 31 29 l 1
 31 31 l 1
36 33 m 1
 34 33 l 1
 34 31 l 1
 36 31 l 1
 36 33 l 1
41 43 m 1
 39 43 l 1
 39 41 l 1
 41 41 l 1
 41 43 l 1
44 43 m 1
 42 43 l 1
 42 41 l 1
 43 41 l 1
 43 42 l 1
 44 42 l 1
 44 43 l 1
46 43 m 1
 45 43 l 1
 45 42 l 1
 44 42 l 1
 44 41 l 1
 46 41 l 1
 46 43 l 1
49 43 m 1
 47 43 l 1
 47 41 l 1
 49 41 l 1
 49 43 l 1
49 39 m 1
 47 39 l 1
 47 37 l 1
 49 37 l 1
 49 39 l 1
41 35 m 1
 39 35 l 1
 39 33 l 1
 41 33 l 1
 41 35 l 1
43 35 m 1
 42 35 l 1
 42 33 l 1
 44 33 l 1
 44 34 l 1
 43 34 l 1
 43 35 l 1
41 31 m 1
 39 31 l 1
 39 29 l 1
 41 29 l 1
 41 31 l 1
46 35 m 1
 44 35 l 1
 44 34 l 1
 45 34 l 1
 45 33 l 1
 46 33 l 1
 46 35 l 1
49 35 m 1
 47 35 l 1
 47 33 l 1
 49 33 l 1
 49 35 l 1
55 43 m 1
 53 43 l 1
 53 41 l 1
 55 41 l 1
 55 43 l 1
58 43 m 1
 56 43 l 1
 56 41 l 1
 57 41 l 1
 57 42 l 1
 58 42 l 1
 58 43 l 1
59 42 m 1
 58 42 l 1
 58 41 l 1
 60 41 l 1
 60 43 l 1
 59 43 l 1
 59 42 l 1
63 43 m 1
 61 43 l 1
 61 41 l 1
 63 41 l 1
 63 43 l 1
63 39 m 1
 61 39 l 1
 61 37 l 1
 63 37 l 1
 63 39 l 1
63 35 m 1
 61 35 l 1
 61 33 l 1
 63 33 l 1
 63 35 l 1
63 31 m 1
 61 31 l 1
 61 29 l 1
 63 29 l 1
 63 31 l 1
31 27 m 1
 29 27 l 1
 29 25 l 1
 31 25 l 1
 31 27 l 1
41 27 m 1
 39 27 l 1
 39 25 l 1
 41 25 l 1
 41 27 l 1
44 27 m 1
 42 27 l 1
 42 25 l 1
 43 25 l 1
 43 26 l 1
 44 26 l 1
 44 27 l 1
46 27 m 1
 45 27 l 1
 45 26 l 1
 44 26 l 1
 44 25 l 1
 46 25 l 1
 46 27 l 1
49 27 m 1
 47 27 l 1
 47 25 l 1
 49 25 l 1
 49 27 l 1
63 27 m 1
 61 27 l 1
 61 25 l 1
 63 25 l 1
 63 27 l 1
EndSplineSet
EndChar

StartChar: custom_2_7_0_7_2
Encoding: 28140 28140 8172
Width: 70
Flags: H
LayerCount: 2
Fore
SplineSet
3 7 m 1
 1 7 l 1
 1 6 l 1
 2 6 l 1
 2 4 l 1
 3 4 l 1
 3 7 l 1
1 6 m 1
 0 6 l 1
 0 5 l 1
 1 5 l 1
 1 6 l 1
23 43 m 1
 21 43 l 1
 21 41 l 1
 23 41 l 1
 23 43 l 1
26 43 m 1
 24 43 l 1
 24 41 l 1
 25 41 l 1
 25 42 l 1
 26 42 l 1
 26 43 l 1
27 42 m 1
 26 42 l 1
 26 41 l 1
 28 41 l 1
 28 43 l 1
 27 43 l 1
 27 42 l 1
31 43 m 1
 29 43 l 1
 29 41 l 1
 31 41 l 1
 31 43 l 1
31 39 m 1
 29 39 l 1
 29 37 l 1
 31 37 l 1
 31 39 l 1
31 35 m 1
 29 35 l 1
 29 33 l 1
 31 33 l 1
 31 35 l 1
36 37 m 1
 34 37 l 1
 34 35 l 1
 36 35 l 1
 36 37 l 1
31 31 m 1
 29 31 l 1
 29 29 l 1
 31 29 l 1
 31 31 l 1
36 33 m 1
 34 33 l 1
 34 31 l 1
 36 31 l 1
 36 33 l 1
41 43 m 1
 39 43 l 1
 39 41 l 1
 41 41 l 1
 41 43 l 1
44 43 m 1
 42 43 l 1
 42 41 l 1
 43 41 l 1
 43 42 l 1
 44 42 l 1
 44 43 l 1
46 43 m 1
 45 43 l 1
 45 42 l 1
 44 42 l 1
 44 41 l 1
 46 41 l 1
 46 43 l 1
49 43 m 1
 47 43 l 1
 47 41 l 1
 49 41 l 1
 49 43 l 1
49 39 m 1
 47 39 l 1
 47 37 l 1
 49 37 l 1
 49 39 l 1
41 35 m 1
 39 35 l 1
 39 33 l 1
 41 33 l 1
 41 35 l 1
43 35 m 1
 42 35 l 1
 42 33 l 1
 44 33 l 1
 44 34 l 1
 43 34 l 1
 43 35 l 1
41 31 m 1
 39 31 l 1
 39 29 l 1
 41 29 l 1
 41 31 l 1
46 35 m 1
 44 35 l 1
 44 34 l 1
 45 34 l 1
 45 33 l 1
 46 33 l 1
 46 35 l 1
49 35 m 1
 47 35 l 1
 47 33 l 1
 49 33 l 1
 49 35 l 1
55 43 m 1
 53 43 l 1
 53 41 l 1
 55 41 l 1
 55 43 l 1
58 43 m 1
 56 43 l 1
 56 41 l 1
 57 41 l 1
 57 42 l 1
 58 42 l 1
 58 43 l 1
59 42 m 1
 58 42 l 1
 58 41 l 1
 60 41 l 1
 60 43 l 1
 59 43 l 1
 59 42 l 1
63 43 m 1
 61 43 l 1
 61 41 l 1
 63 41 l 1
 63 43 l 1
63 39 m 1
 61 39 l 1
 61 37 l 1
 63 37 l 1
 63 39 l 1
63 35 m 1
 61 35 l 1
 61 33 l 1
 63 33 l 1
 63 35 l 1
63 31 m 1
 61 31 l 1
 61 29 l 1
 63 29 l 1
 63 31 l 1
31 27 m 1
 29 27 l 1
 29 25 l 1
 31 25 l 1
 31 27 l 1
41 27 m 1
 39 27 l 1
 39 25 l 1
 41 25 l 1
 41 27 l 1
44 27 m 1
 42 27 l 1
 42 25 l 1
 43 25 l 1
 43 26 l 1
 44 26 l 1
 44 27 l 1
46 27 m 1
 45 27 l 1
 45 26 l 1
 44 26 l 1
 44 25 l 1
 46 25 l 1
 46 27 l 1
49 27 m 1
 47 27 l 1
 47 25 l 1
 49 25 l 1
 49 27 l 1
63 27 m 1
 61 27 l 1
 61 25 l 1
 63 25 l 1
 63 27 l 1
EndSplineSet
EndChar

StartChar: custom_2_7_0_7_3
Encoding: 28141 28141 8173
Width: 70
Flags: H
LayerCount: 2
Fore
SplineSet
3 7 m 1
 1 7 l 1
 1 6 l 1
 2 6 l 1
 2 5 l 1
 4 5 l 1
 4 6 l 1
 3 6 l 1
 3 7 l 1
2 5 m 1
 1 5 l 1
 1 4 l 1
 2 4 l 1
 2 5 l 1
23 43 m 1
 21 43 l 1
 21 41 l 1
 23 41 l 1
 23 43 l 1
26 43 m 1
 24 43 l 1
 24 41 l 1
 25 41 l 1
 25 42 l 1
 26 42 l 1
 26 43 l 1
27 42 m 1
 26 42 l 1
 26 41 l 1
 28 41 l 1
 28 43 l 1
 27 43 l 1
 27 42 l 1
31 43 m 1
 29 43 l 1
 29 41 l 1
 31 41 l 1
 31 43 l 1
31 39 m 1
 29 39 l 1
 29 37 l 1
 31 37 l 1
 31 39 l 1
31 35 m 1
 29 35 l 1
 29 33 l 1
 31 33 l 1
 31 35 l 1
36 37 m 1
 34 37 l 1
 34 35 l 1
 36 35 l 1
 36 37 l 1
31 31 m 1
 29 31 l 1
 29 29 l 1
 31 29 l 1
 31 31 l 1
36 33 m 1
 34 33 l 1
 34 31 l 1
 36 31 l 1
 36 33 l 1
41 43 m 1
 39 43 l 1
 39 41 l 1
 41 41 l 1
 41 43 l 1
44 43 m 1
 42 43 l 1
 42 41 l 1
 43 41 l 1
 43 42 l 1
 44 42 l 1
 44 43 l 1
46 43 m 1
 45 43 l 1
 45 42 l 1
 44 42 l 1
 44 41 l 1
 46 41 l 1
 46 43 l 1
49 43 m 1
 47 43 l 1
 47 41 l 1
 49 41 l 1
 49 43 l 1
49 39 m 1
 47 39 l 1
 47 37 l 1
 49 37 l 1
 49 39 l 1
41 35 m 1
 39 35 l 1
 39 33 l 1
 41 33 l 1
 41 35 l 1
43 35 m 1
 42 35 l 1
 42 33 l 1
 44 33 l 1
 44 34 l 1
 43 34 l 1
 43 35 l 1
41 31 m 1
 39 31 l 1
 39 29 l 1
 41 29 l 1
 41 31 l 1
46 35 m 1
 44 35 l 1
 44 34 l 1
 45 34 l 1
 45 33 l 1
 46 33 l 1
 46 35 l 1
49 35 m 1
 47 35 l 1
 47 33 l 1
 49 33 l 1
 49 35 l 1
55 43 m 1
 53 43 l 1
 53 41 l 1
 55 41 l 1
 55 43 l 1
58 43 m 1
 56 43 l 1
 56 41 l 1
 57 41 l 1
 57 42 l 1
 58 42 l 1
 58 43 l 1
59 42 m 1
 58 42 l 1
 58 41 l 1
 60 41 l 1
 60 43 l 1
 59 43 l 1
 59 42 l 1
63 43 m 1
 61 43 l 1
 61 41 l 1
 63 41 l 1
 63 43 l 1
63 39 m 1
 61 39 l 1
 61 37 l 1
 63 37 l 1
 63 39 l 1
63 35 m 1
 61 35 l 1
 61 33 l 1
 63 33 l 1
 63 35 l 1
63 31 m 1
 61 31 l 1
 61 29 l 1
 63 29 l 1
 63 31 l 1
31 27 m 1
 29 27 l 1
 29 25 l 1
 31 25 l 1
 31 27 l 1
41 27 m 1
 39 27 l 1
 39 25 l 1
 41 25 l 1
 41 27 l 1
44 27 m 1
 42 27 l 1
 42 25 l 1
 43 25 l 1
 43 26 l 1
 44 26 l 1
 44 27 l 1
46 27 m 1
 45 27 l 1
 45 26 l 1
 44 26 l 1
 44 25 l 1
 46 25 l 1
 46 27 l 1
49 27 m 1
 47 27 l 1
 47 25 l 1
 49 25 l 1
 49 27 l 1
63 27 m 1
 61 27 l 1
 61 25 l 1
 63 25 l 1
 63 27 l 1
EndSplineSet
EndChar

StartChar: custom_2_7_0_7_4
Encoding: 28142 28142 8174
Width: 70
Flags: H
LayerCount: 2
Fore
SplineSet
4 7 m 1
 1 7 l 1
 1 6 l 1
 3 6 l 1
 3 5 l 1
 4 5 l 1
 4 7 l 1
3 5 m 1
 2 5 l 1
 2 4 l 1
 3 4 l 1
 3 5 l 1
23 43 m 1
 21 43 l 1
 21 41 l 1
 23 41 l 1
 23 43 l 1
26 43 m 1
 24 43 l 1
 24 41 l 1
 25 41 l 1
 25 42 l 1
 26 42 l 1
 26 43 l 1
27 42 m 1
 26 42 l 1
 26 41 l 1
 28 41 l 1
 28 43 l 1
 27 43 l 1
 27 42 l 1
31 43 m 1
 29 43 l 1
 29 41 l 1
 31 41 l 1
 31 43 l 1
31 39 m 1
 29 39 l 1
 29 37 l 1
 31 37 l 1
 31 39 l 1
31 35 m 1
 29 35 l 1
 29 33 l 1
 31 33 l 1
 31 35 l 1
36 37 m 1
 34 37 l 1
 34 35 l 1
 36 35 l 1
 36 37 l 1
31 31 m 1
 29 31 l 1
 29 29 l 1
 31 29 l 1
 31 31 l 1
36 33 m 1
 34 33 l 1
 34 31 l 1
 36 31 l 1
 36 33 l 1
41 43 m 1
 39 43 l 1
 39 41 l 1
 41 41 l 1
 41 43 l 1
44 43 m 1
 42 43 l 1
 42 41 l 1
 43 41 l 1
 43 42 l 1
 44 42 l 1
 44 43 l 1
46 43 m 1
 45 43 l 1
 45 42 l 1
 44 42 l 1
 44 41 l 1
 46 41 l 1
 46 43 l 1
49 43 m 1
 47 43 l 1
 47 41 l 1
 49 41 l 1
 49 43 l 1
49 39 m 1
 47 39 l 1
 47 37 l 1
 49 37 l 1
 49 39 l 1
41 35 m 1
 39 35 l 1
 39 33 l 1
 41 33 l 1
 41 35 l 1
43 35 m 1
 42 35 l 1
 42 33 l 1
 44 33 l 1
 44 34 l 1
 43 34 l 1
 43 35 l 1
41 31 m 1
 39 31 l 1
 39 29 l 1
 41 29 l 1
 41 31 l 1
46 35 m 1
 44 35 l 1
 44 34 l 1
 45 34 l 1
 45 33 l 1
 46 33 l 1
 46 35 l 1
49 35 m 1
 47 35 l 1
 47 33 l 1
 49 33 l 1
 49 35 l 1
55 43 m 1
 53 43 l 1
 53 41 l 1
 55 41 l 1
 55 43 l 1
58 43 m 1
 56 43 l 1
 56 41 l 1
 57 41 l 1
 57 42 l 1
 58 42 l 1
 58 43 l 1
59 42 m 1
 58 42 l 1
 58 41 l 1
 60 41 l 1
 60 43 l 1
 59 43 l 1
 59 42 l 1
63 43 m 1
 61 43 l 1
 61 41 l 1
 63 41 l 1
 63 43 l 1
63 39 m 1
 61 39 l 1
 61 37 l 1
 63 37 l 1
 63 39 l 1
63 35 m 1
 61 35 l 1
 61 33 l 1
 63 33 l 1
 63 35 l 1
63 31 m 1
 61 31 l 1
 61 29 l 1
 63 29 l 1
 63 31 l 1
31 27 m 1
 29 27 l 1
 29 25 l 1
 31 25 l 1
 31 27 l 1
41 27 m 1
 39 27 l 1
 39 25 l 1
 41 25 l 1
 41 27 l 1
44 27 m 1
 42 27 l 1
 42 25 l 1
 43 25 l 1
 43 26 l 1
 44 26 l 1
 44 27 l 1
46 27 m 1
 45 27 l 1
 45 26 l 1
 44 26 l 1
 44 25 l 1
 46 25 l 1
 46 27 l 1
49 27 m 1
 47 27 l 1
 47 25 l 1
 49 25 l 1
 49 27 l 1
63 27 m 1
 61 27 l 1
 61 25 l 1
 63 25 l 1
 63 27 l 1
EndSplineSet
EndChar

StartChar: custom_2_7_0_7_5
Encoding: 28143 28143 8175
Width: 70
Flags: H
LayerCount: 2
Fore
SplineSet
3 8 m 1
 2 8 l 1
 2 6 l 1
 3 6 l 1
 3 5 l 1
 4 5 l 1
 4 7 l 1
 3 7 l 1
 3 8 l 1
2 6 m 1
 1 6 l 1
 1 5 l 1
 2 5 l 1
 2 6 l 1
23 43 m 1
 21 43 l 1
 21 41 l 1
 23 41 l 1
 23 43 l 1
26 43 m 1
 24 43 l 1
 24 41 l 1
 25 41 l 1
 25 42 l 1
 26 42 l 1
 26 43 l 1
27 42 m 1
 26 42 l 1
 26 41 l 1
 28 41 l 1
 28 43 l 1
 27 43 l 1
 27 42 l 1
31 43 m 1
 29 43 l 1
 29 41 l 1
 31 41 l 1
 31 43 l 1
31 39 m 1
 29 39 l 1
 29 37 l 1
 31 37 l 1
 31 39 l 1
31 35 m 1
 29 35 l 1
 29 33 l 1
 31 33 l 1
 31 35 l 1
36 37 m 1
 34 37 l 1
 34 35 l 1
 36 35 l 1
 36 37 l 1
31 31 m 1
 29 31 l 1
 29 29 l 1
 31 29 l 1
 31 31 l 1
36 33 m 1
 34 33 l 1
 34 31 l 1
 36 31 l 1
 36 33 l 1
41 43 m 1
 39 43 l 1
 39 41 l 1
 41 41 l 1
 41 43 l 1
44 43 m 1
 42 43 l 1
 42 41 l 1
 43 41 l 1
 43 42 l 1
 44 42 l 1
 44 43 l 1
46 43 m 1
 45 43 l 1
 45 42 l 1
 44 42 l 1
 44 41 l 1
 46 41 l 1
 46 43 l 1
49 43 m 1
 47 43 l 1
 47 41 l 1
 49 41 l 1
 49 43 l 1
49 39 m 1
 47 39 l 1
 47 37 l 1
 49 37 l 1
 49 39 l 1
41 35 m 1
 39 35 l 1
 39 33 l 1
 41 33 l 1
 41 35 l 1
43 35 m 1
 42 35 l 1
 42 33 l 1
 44 33 l 1
 44 34 l 1
 43 34 l 1
 43 35 l 1
41 31 m 1
 39 31 l 1
 39 29 l 1
 41 29 l 1
 41 31 l 1
46 35 m 1
 44 35 l 1
 44 34 l 1
 45 34 l 1
 45 33 l 1
 46 33 l 1
 46 35 l 1
49 35 m 1
 47 35 l 1
 47 33 l 1
 49 33 l 1
 49 35 l 1
55 43 m 1
 53 43 l 1
 53 41 l 1
 55 41 l 1
 55 43 l 1
58 43 m 1
 56 43 l 1
 56 41 l 1
 57 41 l 1
 57 42 l 1
 58 42 l 1
 58 43 l 1
59 42 m 1
 58 42 l 1
 58 41 l 1
 60 41 l 1
 60 43 l 1
 59 43 l 1
 59 42 l 1
63 43 m 1
 61 43 l 1
 61 41 l 1
 63 41 l 1
 63 43 l 1
63 39 m 1
 61 39 l 1
 61 37 l 1
 63 37 l 1
 63 39 l 1
63 35 m 1
 61 35 l 1
 61 33 l 1
 63 33 l 1
 63 35 l 1
63 31 m 1
 61 31 l 1
 61 29 l 1
 63 29 l 1
 63 31 l 1
31 27 m 1
 29 27 l 1
 29 25 l 1
 31 25 l 1
 31 27 l 1
41 27 m 1
 39 27 l 1
 39 25 l 1
 41 25 l 1
 41 27 l 1
44 27 m 1
 42 27 l 1
 42 25 l 1
 43 25 l 1
 43 26 l 1
 44 26 l 1
 44 27 l 1
46 27 m 1
 45 27 l 1
 45 26 l 1
 44 26 l 1
 44 25 l 1
 46 25 l 1
 46 27 l 1
49 27 m 1
 47 27 l 1
 47 25 l 1
 49 25 l 1
 49 27 l 1
63 27 m 1
 61 27 l 1
 61 25 l 1
 63 25 l 1
 63 27 l 1
EndSplineSet
EndChar

StartChar: custom_2_7_0_7_6
Encoding: 28144 28144 8176
Width: 70
Flags: H
LayerCount: 2
Fore
SplineSet
4 8 m 1
 2 8 l 1
 2 7 l 1
 3 7 l 1
 3 5 l 1
 4 5 l 1
 4 8 l 1
2 7 m 1
 1 7 l 1
 1 6 l 1
 2 6 l 1
 2 7 l 1
23 43 m 1
 21 43 l 1
 21 41 l 1
 23 41 l 1
 23 43 l 1
26 43 m 1
 24 43 l 1
 24 41 l 1
 25 41 l 1
 25 42 l 1
 26 42 l 1
 26 43 l 1
27 42 m 1
 26 42 l 1
 26 41 l 1
 28 41 l 1
 28 43 l 1
 27 43 l 1
 27 42 l 1
31 43 m 1
 29 43 l 1
 29 41 l 1
 31 41 l 1
 31 43 l 1
31 39 m 1
 29 39 l 1
 29 37 l 1
 31 37 l 1
 31 39 l 1
31 35 m 1
 29 35 l 1
 29 33 l 1
 31 33 l 1
 31 35 l 1
36 37 m 1
 34 37 l 1
 34 35 l 1
 36 35 l 1
 36 37 l 1
31 31 m 1
 29 31 l 1
 29 29 l 1
 31 29 l 1
 31 31 l 1
36 33 m 1
 34 33 l 1
 34 31 l 1
 36 31 l 1
 36 33 l 1
41 43 m 1
 39 43 l 1
 39 41 l 1
 41 41 l 1
 41 43 l 1
44 43 m 1
 42 43 l 1
 42 41 l 1
 43 41 l 1
 43 42 l 1
 44 42 l 1
 44 43 l 1
46 43 m 1
 45 43 l 1
 45 42 l 1
 44 42 l 1
 44 41 l 1
 46 41 l 1
 46 43 l 1
49 43 m 1
 47 43 l 1
 47 41 l 1
 49 41 l 1
 49 43 l 1
49 39 m 1
 47 39 l 1
 47 37 l 1
 49 37 l 1
 49 39 l 1
41 35 m 1
 39 35 l 1
 39 33 l 1
 41 33 l 1
 41 35 l 1
43 35 m 1
 42 35 l 1
 42 33 l 1
 44 33 l 1
 44 34 l 1
 43 34 l 1
 43 35 l 1
41 31 m 1
 39 31 l 1
 39 29 l 1
 41 29 l 1
 41 31 l 1
46 35 m 1
 44 35 l 1
 44 34 l 1
 45 34 l 1
 45 33 l 1
 46 33 l 1
 46 35 l 1
49 35 m 1
 47 35 l 1
 47 33 l 1
 49 33 l 1
 49 35 l 1
55 43 m 1
 53 43 l 1
 53 41 l 1
 55 41 l 1
 55 43 l 1
58 43 m 1
 56 43 l 1
 56 41 l 1
 57 41 l 1
 57 42 l 1
 58 42 l 1
 58 43 l 1
59 42 m 1
 58 42 l 1
 58 41 l 1
 60 41 l 1
 60 43 l 1
 59 43 l 1
 59 42 l 1
63 43 m 1
 61 43 l 1
 61 41 l 1
 63 41 l 1
 63 43 l 1
63 39 m 1
 61 39 l 1
 61 37 l 1
 63 37 l 1
 63 39 l 1
63 35 m 1
 61 35 l 1
 61 33 l 1
 63 33 l 1
 63 35 l 1
63 31 m 1
 61 31 l 1
 61 29 l 1
 63 29 l 1
 63 31 l 1
31 27 m 1
 29 27 l 1
 29 25 l 1
 31 25 l 1
 31 27 l 1
41 27 m 1
 39 27 l 1
 39 25 l 1
 41 25 l 1
 41 27 l 1
44 27 m 1
 42 27 l 1
 42 25 l 1
 43 25 l 1
 43 26 l 1
 44 26 l 1
 44 27 l 1
46 27 m 1
 45 27 l 1
 45 26 l 1
 44 26 l 1
 44 25 l 1
 46 25 l 1
 46 27 l 1
49 27 m 1
 47 27 l 1
 47 25 l 1
 49 25 l 1
 49 27 l 1
63 27 m 1
 61 27 l 1
 61 25 l 1
 63 25 l 1
 63 27 l 1
EndSplineSet
EndChar

StartChar: custom_2_7_0_7_7
Encoding: 28145 28145 8177
Width: 70
Flags: H
LayerCount: 2
Fore
SplineSet
4 8 m 1
 2 8 l 1
 2 7 l 1
 3 7 l 1
 3 6 l 1
 5 6 l 1
 5 7 l 1
 4 7 l 1
 4 8 l 1
3 6 m 1
 2 6 l 1
 2 5 l 1
 3 5 l 1
 3 6 l 1
23 43 m 1
 21 43 l 1
 21 41 l 1
 23 41 l 1
 23 43 l 1
26 43 m 1
 24 43 l 1
 24 41 l 1
 25 41 l 1
 25 42 l 1
 26 42 l 1
 26 43 l 1
27 42 m 1
 26 42 l 1
 26 41 l 1
 28 41 l 1
 28 43 l 1
 27 43 l 1
 27 42 l 1
31 43 m 1
 29 43 l 1
 29 41 l 1
 31 41 l 1
 31 43 l 1
31 39 m 1
 29 39 l 1
 29 37 l 1
 31 37 l 1
 31 39 l 1
31 35 m 1
 29 35 l 1
 29 33 l 1
 31 33 l 1
 31 35 l 1
36 37 m 1
 34 37 l 1
 34 35 l 1
 36 35 l 1
 36 37 l 1
31 31 m 1
 29 31 l 1
 29 29 l 1
 31 29 l 1
 31 31 l 1
36 33 m 1
 34 33 l 1
 34 31 l 1
 36 31 l 1
 36 33 l 1
41 43 m 1
 39 43 l 1
 39 41 l 1
 41 41 l 1
 41 43 l 1
44 43 m 1
 42 43 l 1
 42 41 l 1
 43 41 l 1
 43 42 l 1
 44 42 l 1
 44 43 l 1
46 43 m 1
 45 43 l 1
 45 42 l 1
 44 42 l 1
 44 41 l 1
 46 41 l 1
 46 43 l 1
49 43 m 1
 47 43 l 1
 47 41 l 1
 49 41 l 1
 49 43 l 1
49 39 m 1
 47 39 l 1
 47 37 l 1
 49 37 l 1
 49 39 l 1
41 35 m 1
 39 35 l 1
 39 33 l 1
 41 33 l 1
 41 35 l 1
43 35 m 1
 42 35 l 1
 42 33 l 1
 44 33 l 1
 44 34 l 1
 43 34 l 1
 43 35 l 1
41 31 m 1
 39 31 l 1
 39 29 l 1
 41 29 l 1
 41 31 l 1
46 35 m 1
 44 35 l 1
 44 34 l 1
 45 34 l 1
 45 33 l 1
 46 33 l 1
 46 35 l 1
49 35 m 1
 47 35 l 1
 47 33 l 1
 49 33 l 1
 49 35 l 1
55 43 m 1
 53 43 l 1
 53 41 l 1
 55 41 l 1
 55 43 l 1
58 43 m 1
 56 43 l 1
 56 41 l 1
 57 41 l 1
 57 42 l 1
 58 42 l 1
 58 43 l 1
59 42 m 1
 58 42 l 1
 58 41 l 1
 60 41 l 1
 60 43 l 1
 59 43 l 1
 59 42 l 1
63 43 m 1
 61 43 l 1
 61 41 l 1
 63 41 l 1
 63 43 l 1
63 39 m 1
 61 39 l 1
 61 37 l 1
 63 37 l 1
 63 39 l 1
63 35 m 1
 61 35 l 1
 61 33 l 1
 63 33 l 1
 63 35 l 1
63 31 m 1
 61 31 l 1
 61 29 l 1
 63 29 l 1
 63 31 l 1
31 27 m 1
 29 27 l 1
 29 25 l 1
 31 25 l 1
 31 27 l 1
41 27 m 1
 39 27 l 1
 39 25 l 1
 41 25 l 1
 41 27 l 1
44 27 m 1
 42 27 l 1
 42 25 l 1
 43 25 l 1
 43 26 l 1
 44 26 l 1
 44 27 l 1
46 27 m 1
 45 27 l 1
 45 26 l 1
 44 26 l 1
 44 25 l 1
 46 25 l 1
 46 27 l 1
49 27 m 1
 47 27 l 1
 47 25 l 1
 49 25 l 1
 49 27 l 1
63 27 m 1
 61 27 l 1
 61 25 l 1
 63 25 l 1
 63 27 l 1
EndSplineSet
EndChar

StartChar: custom_2_7_0_7_8
Encoding: 28146 28146 8178
Width: 70
Flags: H
LayerCount: 2
Fore
SplineSet
5 8 m 1
 2 8 l 1
 2 7 l 1
 4 7 l 1
 4 6 l 1
 5 6 l 1
 5 8 l 1
23 43 m 1
 21 43 l 1
 21 41 l 1
 23 41 l 1
 23 43 l 1
26 43 m 1
 24 43 l 1
 24 41 l 1
 25 41 l 1
 25 42 l 1
 26 42 l 1
 26 43 l 1
27 42 m 1
 26 42 l 1
 26 41 l 1
 28 41 l 1
 28 43 l 1
 27 43 l 1
 27 42 l 1
31 43 m 1
 29 43 l 1
 29 41 l 1
 31 41 l 1
 31 43 l 1
31 39 m 1
 29 39 l 1
 29 37 l 1
 31 37 l 1
 31 39 l 1
31 35 m 1
 29 35 l 1
 29 33 l 1
 31 33 l 1
 31 35 l 1
36 37 m 1
 34 37 l 1
 34 35 l 1
 36 35 l 1
 36 37 l 1
31 31 m 1
 29 31 l 1
 29 29 l 1
 31 29 l 1
 31 31 l 1
36 33 m 1
 34 33 l 1
 34 31 l 1
 36 31 l 1
 36 33 l 1
41 43 m 1
 39 43 l 1
 39 41 l 1
 41 41 l 1
 41 43 l 1
44 43 m 1
 42 43 l 1
 42 41 l 1
 43 41 l 1
 43 42 l 1
 44 42 l 1
 44 43 l 1
46 43 m 1
 45 43 l 1
 45 42 l 1
 44 42 l 1
 44 41 l 1
 46 41 l 1
 46 43 l 1
49 43 m 1
 47 43 l 1
 47 41 l 1
 49 41 l 1
 49 43 l 1
49 39 m 1
 47 39 l 1
 47 37 l 1
 49 37 l 1
 49 39 l 1
41 35 m 1
 39 35 l 1
 39 33 l 1
 41 33 l 1
 41 35 l 1
43 35 m 1
 42 35 l 1
 42 33 l 1
 44 33 l 1
 44 34 l 1
 43 34 l 1
 43 35 l 1
41 31 m 1
 39 31 l 1
 39 29 l 1
 41 29 l 1
 41 31 l 1
46 35 m 1
 44 35 l 1
 44 34 l 1
 45 34 l 1
 45 33 l 1
 46 33 l 1
 46 35 l 1
49 35 m 1
 47 35 l 1
 47 33 l 1
 49 33 l 1
 49 35 l 1
55 43 m 1
 53 43 l 1
 53 41 l 1
 55 41 l 1
 55 43 l 1
58 43 m 1
 56 43 l 1
 56 41 l 1
 57 41 l 1
 57 42 l 1
 58 42 l 1
 58 43 l 1
59 42 m 1
 58 42 l 1
 58 41 l 1
 60 41 l 1
 60 43 l 1
 59 43 l 1
 59 42 l 1
63 43 m 1
 61 43 l 1
 61 41 l 1
 63 41 l 1
 63 43 l 1
63 39 m 1
 61 39 l 1
 61 37 l 1
 63 37 l 1
 63 39 l 1
63 35 m 1
 61 35 l 1
 61 33 l 1
 63 33 l 1
 63 35 l 1
63 31 m 1
 61 31 l 1
 61 29 l 1
 63 29 l 1
 63 31 l 1
31 27 m 1
 29 27 l 1
 29 25 l 1
 31 25 l 1
 31 27 l 1
4 6 m 1
 3 6 l 1
 3 5 l 1
 4 5 l 1
 4 6 l 1
41 27 m 1
 39 27 l 1
 39 25 l 1
 41 25 l 1
 41 27 l 1
44 27 m 1
 42 27 l 1
 42 25 l 1
 43 25 l 1
 43 26 l 1
 44 26 l 1
 44 27 l 1
46 27 m 1
 45 27 l 1
 45 26 l 1
 44 26 l 1
 44 25 l 1
 46 25 l 1
 46 27 l 1
49 27 m 1
 47 27 l 1
 47 25 l 1
 49 25 l 1
 49 27 l 1
63 27 m 1
 61 27 l 1
 61 25 l 1
 63 25 l 1
 63 27 l 1
EndSplineSet
EndChar

StartChar: custom_2_7_0_7_9
Encoding: 28147 28147 8179
Width: 70
Flags: H
LayerCount: 2
Fore
SplineSet
3 7 m 1
 2 7 l 1
 2 6 l 1
 3 6 l 1
 3 7 l 1
23 43 m 1
 21 43 l 1
 21 41 l 1
 23 41 l 1
 23 43 l 1
26 43 m 1
 24 43 l 1
 24 41 l 1
 25 41 l 1
 25 42 l 1
 26 42 l 1
 26 43 l 1
27 42 m 1
 26 42 l 1
 26 41 l 1
 28 41 l 1
 28 43 l 1
 27 43 l 1
 27 42 l 1
31 43 m 1
 29 43 l 1
 29 41 l 1
 31 41 l 1
 31 43 l 1
31 39 m 1
 29 39 l 1
 29 37 l 1
 31 37 l 1
 31 39 l 1
31 35 m 1
 29 35 l 1
 29 33 l 1
 31 33 l 1
 31 35 l 1
36 37 m 1
 34 37 l 1
 34 35 l 1
 36 35 l 1
 36 37 l 1
31 31 m 1
 29 31 l 1
 29 29 l 1
 31 29 l 1
 31 31 l 1
36 33 m 1
 34 33 l 1
 34 31 l 1
 36 31 l 1
 36 33 l 1
41 43 m 1
 39 43 l 1
 39 41 l 1
 41 41 l 1
 41 43 l 1
44 43 m 1
 42 43 l 1
 42 41 l 1
 43 41 l 1
 43 42 l 1
 44 42 l 1
 44 43 l 1
46 43 m 1
 45 43 l 1
 45 42 l 1
 44 42 l 1
 44 41 l 1
 46 41 l 1
 46 43 l 1
49 43 m 1
 47 43 l 1
 47 41 l 1
 49 41 l 1
 49 43 l 1
49 39 m 1
 47 39 l 1
 47 37 l 1
 49 37 l 1
 49 39 l 1
41 35 m 1
 39 35 l 1
 39 33 l 1
 41 33 l 1
 41 35 l 1
43 35 m 1
 42 35 l 1
 42 33 l 1
 44 33 l 1
 44 34 l 1
 43 34 l 1
 43 35 l 1
41 31 m 1
 39 31 l 1
 39 29 l 1
 41 29 l 1
 41 31 l 1
46 35 m 1
 44 35 l 1
 44 34 l 1
 45 34 l 1
 45 33 l 1
 46 33 l 1
 46 35 l 1
49 35 m 1
 47 35 l 1
 47 33 l 1
 49 33 l 1
 49 35 l 1
55 43 m 1
 53 43 l 1
 53 41 l 1
 55 41 l 1
 55 43 l 1
58 43 m 1
 56 43 l 1
 56 41 l 1
 57 41 l 1
 57 42 l 1
 58 42 l 1
 58 43 l 1
59 42 m 1
 58 42 l 1
 58 41 l 1
 60 41 l 1
 60 43 l 1
 59 43 l 1
 59 42 l 1
63 43 m 1
 61 43 l 1
 61 41 l 1
 63 41 l 1
 63 43 l 1
63 39 m 1
 61 39 l 1
 61 37 l 1
 63 37 l 1
 63 39 l 1
63 35 m 1
 61 35 l 1
 61 33 l 1
 63 33 l 1
 63 35 l 1
63 31 m 1
 61 31 l 1
 61 29 l 1
 63 29 l 1
 63 31 l 1
31 27 m 1
 29 27 l 1
 29 25 l 1
 31 25 l 1
 31 27 l 1
4 9 m 1
 3 9 l 1
 3 7 l 1
 4 7 l 1
 4 6 l 1
 5 6 l 1
 5 8 l 1
 4 8 l 1
 4 9 l 1
41 27 m 1
 39 27 l 1
 39 25 l 1
 41 25 l 1
 41 27 l 1
44 27 m 1
 42 27 l 1
 42 25 l 1
 43 25 l 1
 43 26 l 1
 44 26 l 1
 44 27 l 1
46 27 m 1
 45 27 l 1
 45 26 l 1
 44 26 l 1
 44 25 l 1
 46 25 l 1
 46 27 l 1
49 27 m 1
 47 27 l 1
 47 25 l 1
 49 25 l 1
 49 27 l 1
63 27 m 1
 61 27 l 1
 61 25 l 1
 63 25 l 1
 63 27 l 1
EndSplineSet
EndChar

StartChar: custom_2_7_0_8_0
Encoding: 28148 28148 8180
Width: 70
Flags: H
LayerCount: 2
Fore
SplineSet
3 8 m 1
 2 8 l 1
 2 7 l 1
 3 7 l 1
 3 8 l 1
23 43 m 1
 21 43 l 1
 21 41 l 1
 23 41 l 1
 23 43 l 1
26 43 m 1
 24 43 l 1
 24 41 l 1
 25 41 l 1
 25 42 l 1
 26 42 l 1
 26 43 l 1
27 42 m 1
 26 42 l 1
 26 41 l 1
 28 41 l 1
 28 43 l 1
 27 43 l 1
 27 42 l 1
31 43 m 1
 29 43 l 1
 29 41 l 1
 31 41 l 1
 31 43 l 1
31 39 m 1
 29 39 l 1
 29 37 l 1
 31 37 l 1
 31 39 l 1
31 35 m 1
 29 35 l 1
 29 33 l 1
 31 33 l 1
 31 35 l 1
36 37 m 1
 34 37 l 1
 34 35 l 1
 36 35 l 1
 36 37 l 1
31 31 m 1
 29 31 l 1
 29 29 l 1
 31 29 l 1
 31 31 l 1
36 33 m 1
 34 33 l 1
 34 31 l 1
 36 31 l 1
 36 33 l 1
41 43 m 1
 39 43 l 1
 39 41 l 1
 41 41 l 1
 41 43 l 1
44 43 m 1
 42 43 l 1
 42 41 l 1
 43 41 l 1
 43 42 l 1
 44 42 l 1
 44 43 l 1
46 43 m 1
 45 43 l 1
 45 42 l 1
 44 42 l 1
 44 41 l 1
 46 41 l 1
 46 43 l 1
49 43 m 1
 47 43 l 1
 47 41 l 1
 49 41 l 1
 49 43 l 1
49 39 m 1
 47 39 l 1
 47 37 l 1
 49 37 l 1
 49 39 l 1
41 35 m 1
 39 35 l 1
 39 33 l 1
 41 33 l 1
 41 35 l 1
43 35 m 1
 42 35 l 1
 42 33 l 1
 44 33 l 1
 44 34 l 1
 43 34 l 1
 43 35 l 1
41 31 m 1
 39 31 l 1
 39 29 l 1
 41 29 l 1
 41 31 l 1
46 35 m 1
 44 35 l 1
 44 34 l 1
 45 34 l 1
 45 33 l 1
 46 33 l 1
 46 35 l 1
49 35 m 1
 47 35 l 1
 47 33 l 1
 49 33 l 1
 49 35 l 1
55 43 m 1
 53 43 l 1
 53 41 l 1
 55 41 l 1
 55 43 l 1
58 43 m 1
 56 43 l 1
 56 41 l 1
 57 41 l 1
 57 42 l 1
 58 42 l 1
 58 43 l 1
59 42 m 1
 58 42 l 1
 58 41 l 1
 60 41 l 1
 60 43 l 1
 59 43 l 1
 59 42 l 1
63 43 m 1
 61 43 l 1
 61 41 l 1
 63 41 l 1
 63 43 l 1
63 39 m 1
 61 39 l 1
 61 37 l 1
 63 37 l 1
 63 39 l 1
63 35 m 1
 61 35 l 1
 61 33 l 1
 63 33 l 1
 63 35 l 1
63 31 m 1
 61 31 l 1
 61 29 l 1
 63 29 l 1
 63 31 l 1
31 27 m 1
 29 27 l 1
 29 25 l 1
 31 25 l 1
 31 27 l 1
5 9 m 1
 3 9 l 1
 3 8 l 1
 4 8 l 1
 4 6 l 1
 5 6 l 1
 5 9 l 1
41 27 m 1
 39 27 l 1
 39 25 l 1
 41 25 l 1
 41 27 l 1
44 27 m 1
 42 27 l 1
 42 25 l 1
 43 25 l 1
 43 26 l 1
 44 26 l 1
 44 27 l 1
46 27 m 1
 45 27 l 1
 45 26 l 1
 44 26 l 1
 44 25 l 1
 46 25 l 1
 46 27 l 1
49 27 m 1
 47 27 l 1
 47 25 l 1
 49 25 l 1
 49 27 l 1
63 27 m 1
 61 27 l 1
 61 25 l 1
 63 25 l 1
 63 27 l 1
EndSplineSet
EndChar

StartChar: custom_2_7_0_8_1
Encoding: 28149 28149 8181
Width: 70
Flags: H
LayerCount: 2
Fore
SplineSet
23 43 m 1
 21 43 l 1
 21 41 l 1
 23 41 l 1
 23 43 l 1
26 43 m 1
 24 43 l 1
 24 41 l 1
 25 41 l 1
 25 42 l 1
 26 42 l 1
 26 43 l 1
27 42 m 1
 26 42 l 1
 26 41 l 1
 28 41 l 1
 28 43 l 1
 27 43 l 1
 27 42 l 1
31 43 m 1
 29 43 l 1
 29 41 l 1
 31 41 l 1
 31 43 l 1
31 39 m 1
 29 39 l 1
 29 37 l 1
 31 37 l 1
 31 39 l 1
31 35 m 1
 29 35 l 1
 29 33 l 1
 31 33 l 1
 31 35 l 1
36 37 m 1
 34 37 l 1
 34 35 l 1
 36 35 l 1
 36 37 l 1
31 31 m 1
 29 31 l 1
 29 29 l 1
 31 29 l 1
 31 31 l 1
36 33 m 1
 34 33 l 1
 34 31 l 1
 36 31 l 1
 36 33 l 1
41 43 m 1
 39 43 l 1
 39 41 l 1
 41 41 l 1
 41 43 l 1
44 43 m 1
 42 43 l 1
 42 41 l 1
 43 41 l 1
 43 42 l 1
 44 42 l 1
 44 43 l 1
46 43 m 1
 45 43 l 1
 45 42 l 1
 44 42 l 1
 44 41 l 1
 46 41 l 1
 46 43 l 1
49 43 m 1
 47 43 l 1
 47 41 l 1
 49 41 l 1
 49 43 l 1
49 39 m 1
 47 39 l 1
 47 37 l 1
 49 37 l 1
 49 39 l 1
41 35 m 1
 39 35 l 1
 39 33 l 1
 41 33 l 1
 41 35 l 1
43 35 m 1
 42 35 l 1
 42 33 l 1
 44 33 l 1
 44 34 l 1
 43 34 l 1
 43 35 l 1
41 31 m 1
 39 31 l 1
 39 29 l 1
 41 29 l 1
 41 31 l 1
46 35 m 1
 44 35 l 1
 44 34 l 1
 45 34 l 1
 45 33 l 1
 46 33 l 1
 46 35 l 1
49 35 m 1
 47 35 l 1
 47 33 l 1
 49 33 l 1
 49 35 l 1
55 43 m 1
 53 43 l 1
 53 41 l 1
 55 41 l 1
 55 43 l 1
58 43 m 1
 56 43 l 1
 56 41 l 1
 57 41 l 1
 57 42 l 1
 58 42 l 1
 58 43 l 1
59 42 m 1
 58 42 l 1
 58 41 l 1
 60 41 l 1
 60 43 l 1
 59 43 l 1
 59 42 l 1
63 43 m 1
 61 43 l 1
 61 41 l 1
 63 41 l 1
 63 43 l 1
63 39 m 1
 61 39 l 1
 61 37 l 1
 63 37 l 1
 63 39 l 1
63 35 m 1
 61 35 l 1
 61 33 l 1
 63 33 l 1
 63 35 l 1
63 31 m 1
 61 31 l 1
 61 29 l 1
 63 29 l 1
 63 31 l 1
31 27 m 1
 29 27 l 1
 29 25 l 1
 31 25 l 1
 31 27 l 1
5 9 m 1
 3 9 l 1
 3 8 l 1
 4 8 l 1
 4 7 l 1
 6 7 l 1
 6 8 l 1
 5 8 l 1
 5 9 l 1
4 7 m 1
 3 7 l 1
 3 6 l 1
 4 6 l 1
 4 7 l 1
41 27 m 1
 39 27 l 1
 39 25 l 1
 41 25 l 1
 41 27 l 1
44 27 m 1
 42 27 l 1
 42 25 l 1
 43 25 l 1
 43 26 l 1
 44 26 l 1
 44 27 l 1
46 27 m 1
 45 27 l 1
 45 26 l 1
 44 26 l 1
 44 25 l 1
 46 25 l 1
 46 27 l 1
49 27 m 1
 47 27 l 1
 47 25 l 1
 49 25 l 1
 49 27 l 1
63 27 m 1
 61 27 l 1
 61 25 l 1
 63 25 l 1
 63 27 l 1
EndSplineSet
EndChar

StartChar: custom_2_7_0_8_2
Encoding: 28150 28150 8182
Width: 70
Flags: H
LayerCount: 2
Fore
SplineSet
23 43 m 1
 21 43 l 1
 21 41 l 1
 23 41 l 1
 23 43 l 1
26 43 m 1
 24 43 l 1
 24 41 l 1
 25 41 l 1
 25 42 l 1
 26 42 l 1
 26 43 l 1
27 42 m 1
 26 42 l 1
 26 41 l 1
 28 41 l 1
 28 43 l 1
 27 43 l 1
 27 42 l 1
31 43 m 1
 29 43 l 1
 29 41 l 1
 31 41 l 1
 31 43 l 1
31 39 m 1
 29 39 l 1
 29 37 l 1
 31 37 l 1
 31 39 l 1
31 35 m 1
 29 35 l 1
 29 33 l 1
 31 33 l 1
 31 35 l 1
36 37 m 1
 34 37 l 1
 34 35 l 1
 36 35 l 1
 36 37 l 1
31 31 m 1
 29 31 l 1
 29 29 l 1
 31 29 l 1
 31 31 l 1
36 33 m 1
 34 33 l 1
 34 31 l 1
 36 31 l 1
 36 33 l 1
41 43 m 1
 39 43 l 1
 39 41 l 1
 41 41 l 1
 41 43 l 1
44 43 m 1
 42 43 l 1
 42 41 l 1
 43 41 l 1
 43 42 l 1
 44 42 l 1
 44 43 l 1
46 43 m 1
 45 43 l 1
 45 42 l 1
 44 42 l 1
 44 41 l 1
 46 41 l 1
 46 43 l 1
49 43 m 1
 47 43 l 1
 47 41 l 1
 49 41 l 1
 49 43 l 1
49 39 m 1
 47 39 l 1
 47 37 l 1
 49 37 l 1
 49 39 l 1
41 35 m 1
 39 35 l 1
 39 33 l 1
 41 33 l 1
 41 35 l 1
43 35 m 1
 42 35 l 1
 42 33 l 1
 44 33 l 1
 44 34 l 1
 43 34 l 1
 43 35 l 1
41 31 m 1
 39 31 l 1
 39 29 l 1
 41 29 l 1
 41 31 l 1
46 35 m 1
 44 35 l 1
 44 34 l 1
 45 34 l 1
 45 33 l 1
 46 33 l 1
 46 35 l 1
49 35 m 1
 47 35 l 1
 47 33 l 1
 49 33 l 1
 49 35 l 1
55 43 m 1
 53 43 l 1
 53 41 l 1
 55 41 l 1
 55 43 l 1
58 43 m 1
 56 43 l 1
 56 41 l 1
 57 41 l 1
 57 42 l 1
 58 42 l 1
 58 43 l 1
59 42 m 1
 58 42 l 1
 58 41 l 1
 60 41 l 1
 60 43 l 1
 59 43 l 1
 59 42 l 1
63 43 m 1
 61 43 l 1
 61 41 l 1
 63 41 l 1
 63 43 l 1
63 39 m 1
 61 39 l 1
 61 37 l 1
 63 37 l 1
 63 39 l 1
63 35 m 1
 61 35 l 1
 61 33 l 1
 63 33 l 1
 63 35 l 1
63 31 m 1
 61 31 l 1
 61 29 l 1
 63 29 l 1
 63 31 l 1
31 27 m 1
 29 27 l 1
 29 25 l 1
 31 25 l 1
 31 27 l 1
6 9 m 1
 3 9 l 1
 3 8 l 1
 5 8 l 1
 5 7 l 1
 6 7 l 1
 6 9 l 1
5 7 m 1
 4 7 l 1
 4 6 l 1
 5 6 l 1
 5 7 l 1
41 27 m 1
 39 27 l 1
 39 25 l 1
 41 25 l 1
 41 27 l 1
44 27 m 1
 42 27 l 1
 42 25 l 1
 43 25 l 1
 43 26 l 1
 44 26 l 1
 44 27 l 1
46 27 m 1
 45 27 l 1
 45 26 l 1
 44 26 l 1
 44 25 l 1
 46 25 l 1
 46 27 l 1
49 27 m 1
 47 27 l 1
 47 25 l 1
 49 25 l 1
 49 27 l 1
63 27 m 1
 61 27 l 1
 61 25 l 1
 63 25 l 1
 63 27 l 1
EndSplineSet
EndChar

StartChar: custom_2_7_0_8_3
Encoding: 28151 28151 8183
Width: 70
Flags: H
LayerCount: 2
Fore
SplineSet
23 43 m 1
 21 43 l 1
 21 41 l 1
 23 41 l 1
 23 43 l 1
26 43 m 1
 24 43 l 1
 24 41 l 1
 25 41 l 1
 25 42 l 1
 26 42 l 1
 26 43 l 1
27 42 m 1
 26 42 l 1
 26 41 l 1
 28 41 l 1
 28 43 l 1
 27 43 l 1
 27 42 l 1
31 43 m 1
 29 43 l 1
 29 41 l 1
 31 41 l 1
 31 43 l 1
31 39 m 1
 29 39 l 1
 29 37 l 1
 31 37 l 1
 31 39 l 1
31 35 m 1
 29 35 l 1
 29 33 l 1
 31 33 l 1
 31 35 l 1
36 37 m 1
 34 37 l 1
 34 35 l 1
 36 35 l 1
 36 37 l 1
31 31 m 1
 29 31 l 1
 29 29 l 1
 31 29 l 1
 31 31 l 1
36 33 m 1
 34 33 l 1
 34 31 l 1
 36 31 l 1
 36 33 l 1
41 43 m 1
 39 43 l 1
 39 41 l 1
 41 41 l 1
 41 43 l 1
44 43 m 1
 42 43 l 1
 42 41 l 1
 43 41 l 1
 43 42 l 1
 44 42 l 1
 44 43 l 1
46 43 m 1
 45 43 l 1
 45 42 l 1
 44 42 l 1
 44 41 l 1
 46 41 l 1
 46 43 l 1
49 43 m 1
 47 43 l 1
 47 41 l 1
 49 41 l 1
 49 43 l 1
49 39 m 1
 47 39 l 1
 47 37 l 1
 49 37 l 1
 49 39 l 1
41 35 m 1
 39 35 l 1
 39 33 l 1
 41 33 l 1
 41 35 l 1
43 35 m 1
 42 35 l 1
 42 33 l 1
 44 33 l 1
 44 34 l 1
 43 34 l 1
 43 35 l 1
41 31 m 1
 39 31 l 1
 39 29 l 1
 41 29 l 1
 41 31 l 1
46 35 m 1
 44 35 l 1
 44 34 l 1
 45 34 l 1
 45 33 l 1
 46 33 l 1
 46 35 l 1
49 35 m 1
 47 35 l 1
 47 33 l 1
 49 33 l 1
 49 35 l 1
55 43 m 1
 53 43 l 1
 53 41 l 1
 55 41 l 1
 55 43 l 1
58 43 m 1
 56 43 l 1
 56 41 l 1
 57 41 l 1
 57 42 l 1
 58 42 l 1
 58 43 l 1
59 42 m 1
 58 42 l 1
 58 41 l 1
 60 41 l 1
 60 43 l 1
 59 43 l 1
 59 42 l 1
63 43 m 1
 61 43 l 1
 61 41 l 1
 63 41 l 1
 63 43 l 1
63 39 m 1
 61 39 l 1
 61 37 l 1
 63 37 l 1
 63 39 l 1
63 35 m 1
 61 35 l 1
 61 33 l 1
 63 33 l 1
 63 35 l 1
63 31 m 1
 61 31 l 1
 61 29 l 1
 63 29 l 1
 63 31 l 1
31 27 m 1
 29 27 l 1
 29 25 l 1
 31 25 l 1
 31 27 l 1
5 10 m 1
 4 10 l 1
 4 8 l 1
 5 8 l 1
 5 7 l 1
 6 7 l 1
 6 9 l 1
 5 9 l 1
 5 10 l 1
4 8 m 1
 3 8 l 1
 3 7 l 1
 4 7 l 1
 4 8 l 1
41 27 m 1
 39 27 l 1
 39 25 l 1
 41 25 l 1
 41 27 l 1
44 27 m 1
 42 27 l 1
 42 25 l 1
 43 25 l 1
 43 26 l 1
 44 26 l 1
 44 27 l 1
46 27 m 1
 45 27 l 1
 45 26 l 1
 44 26 l 1
 44 25 l 1
 46 25 l 1
 46 27 l 1
49 27 m 1
 47 27 l 1
 47 25 l 1
 49 25 l 1
 49 27 l 1
63 27 m 1
 61 27 l 1
 61 25 l 1
 63 25 l 1
 63 27 l 1
EndSplineSet
EndChar

StartChar: custom_2_7_0_8_4
Encoding: 28152 28152 8184
Width: 70
Flags: H
LayerCount: 2
Fore
SplineSet
23 43 m 1
 21 43 l 1
 21 41 l 1
 23 41 l 1
 23 43 l 1
26 43 m 1
 24 43 l 1
 24 41 l 1
 25 41 l 1
 25 42 l 1
 26 42 l 1
 26 43 l 1
27 42 m 1
 26 42 l 1
 26 41 l 1
 28 41 l 1
 28 43 l 1
 27 43 l 1
 27 42 l 1
31 43 m 1
 29 43 l 1
 29 41 l 1
 31 41 l 1
 31 43 l 1
31 39 m 1
 29 39 l 1
 29 37 l 1
 31 37 l 1
 31 39 l 1
31 35 m 1
 29 35 l 1
 29 33 l 1
 31 33 l 1
 31 35 l 1
36 37 m 1
 34 37 l 1
 34 35 l 1
 36 35 l 1
 36 37 l 1
31 31 m 1
 29 31 l 1
 29 29 l 1
 31 29 l 1
 31 31 l 1
36 33 m 1
 34 33 l 1
 34 31 l 1
 36 31 l 1
 36 33 l 1
41 43 m 1
 39 43 l 1
 39 41 l 1
 41 41 l 1
 41 43 l 1
44 43 m 1
 42 43 l 1
 42 41 l 1
 43 41 l 1
 43 42 l 1
 44 42 l 1
 44 43 l 1
46 43 m 1
 45 43 l 1
 45 42 l 1
 44 42 l 1
 44 41 l 1
 46 41 l 1
 46 43 l 1
49 43 m 1
 47 43 l 1
 47 41 l 1
 49 41 l 1
 49 43 l 1
49 39 m 1
 47 39 l 1
 47 37 l 1
 49 37 l 1
 49 39 l 1
41 35 m 1
 39 35 l 1
 39 33 l 1
 41 33 l 1
 41 35 l 1
43 35 m 1
 42 35 l 1
 42 33 l 1
 44 33 l 1
 44 34 l 1
 43 34 l 1
 43 35 l 1
41 31 m 1
 39 31 l 1
 39 29 l 1
 41 29 l 1
 41 31 l 1
46 35 m 1
 44 35 l 1
 44 34 l 1
 45 34 l 1
 45 33 l 1
 46 33 l 1
 46 35 l 1
49 35 m 1
 47 35 l 1
 47 33 l 1
 49 33 l 1
 49 35 l 1
55 43 m 1
 53 43 l 1
 53 41 l 1
 55 41 l 1
 55 43 l 1
58 43 m 1
 56 43 l 1
 56 41 l 1
 57 41 l 1
 57 42 l 1
 58 42 l 1
 58 43 l 1
59 42 m 1
 58 42 l 1
 58 41 l 1
 60 41 l 1
 60 43 l 1
 59 43 l 1
 59 42 l 1
63 43 m 1
 61 43 l 1
 61 41 l 1
 63 41 l 1
 63 43 l 1
63 39 m 1
 61 39 l 1
 61 37 l 1
 63 37 l 1
 63 39 l 1
63 35 m 1
 61 35 l 1
 61 33 l 1
 63 33 l 1
 63 35 l 1
63 31 m 1
 61 31 l 1
 61 29 l 1
 63 29 l 1
 63 31 l 1
31 27 m 1
 29 27 l 1
 29 25 l 1
 31 25 l 1
 31 27 l 1
6 10 m 1
 4 10 l 1
 4 9 l 1
 5 9 l 1
 5 7 l 1
 6 7 l 1
 6 10 l 1
4 9 m 1
 3 9 l 1
 3 8 l 1
 4 8 l 1
 4 9 l 1
41 27 m 1
 39 27 l 1
 39 25 l 1
 41 25 l 1
 41 27 l 1
44 27 m 1
 42 27 l 1
 42 25 l 1
 43 25 l 1
 43 26 l 1
 44 26 l 1
 44 27 l 1
46 27 m 1
 45 27 l 1
 45 26 l 1
 44 26 l 1
 44 25 l 1
 46 25 l 1
 46 27 l 1
49 27 m 1
 47 27 l 1
 47 25 l 1
 49 25 l 1
 49 27 l 1
63 27 m 1
 61 27 l 1
 61 25 l 1
 63 25 l 1
 63 27 l 1
EndSplineSet
EndChar

StartChar: custom_2_7_0_8_5
Encoding: 28153 28153 8185
Width: 70
Flags: H
LayerCount: 2
Fore
SplineSet
23 43 m 1
 21 43 l 1
 21 41 l 1
 23 41 l 1
 23 43 l 1
26 43 m 1
 24 43 l 1
 24 41 l 1
 25 41 l 1
 25 42 l 1
 26 42 l 1
 26 43 l 1
27 42 m 1
 26 42 l 1
 26 41 l 1
 28 41 l 1
 28 43 l 1
 27 43 l 1
 27 42 l 1
31 43 m 1
 29 43 l 1
 29 41 l 1
 31 41 l 1
 31 43 l 1
31 39 m 1
 29 39 l 1
 29 37 l 1
 31 37 l 1
 31 39 l 1
31 35 m 1
 29 35 l 1
 29 33 l 1
 31 33 l 1
 31 35 l 1
36 37 m 1
 34 37 l 1
 34 35 l 1
 36 35 l 1
 36 37 l 1
31 31 m 1
 29 31 l 1
 29 29 l 1
 31 29 l 1
 31 31 l 1
36 33 m 1
 34 33 l 1
 34 31 l 1
 36 31 l 1
 36 33 l 1
41 43 m 1
 39 43 l 1
 39 41 l 1
 41 41 l 1
 41 43 l 1
44 43 m 1
 42 43 l 1
 42 41 l 1
 43 41 l 1
 43 42 l 1
 44 42 l 1
 44 43 l 1
46 43 m 1
 45 43 l 1
 45 42 l 1
 44 42 l 1
 44 41 l 1
 46 41 l 1
 46 43 l 1
49 43 m 1
 47 43 l 1
 47 41 l 1
 49 41 l 1
 49 43 l 1
49 39 m 1
 47 39 l 1
 47 37 l 1
 49 37 l 1
 49 39 l 1
41 35 m 1
 39 35 l 1
 39 33 l 1
 41 33 l 1
 41 35 l 1
43 35 m 1
 42 35 l 1
 42 33 l 1
 44 33 l 1
 44 34 l 1
 43 34 l 1
 43 35 l 1
41 31 m 1
 39 31 l 1
 39 29 l 1
 41 29 l 1
 41 31 l 1
46 35 m 1
 44 35 l 1
 44 34 l 1
 45 34 l 1
 45 33 l 1
 46 33 l 1
 46 35 l 1
49 35 m 1
 47 35 l 1
 47 33 l 1
 49 33 l 1
 49 35 l 1
55 43 m 1
 53 43 l 1
 53 41 l 1
 55 41 l 1
 55 43 l 1
58 43 m 1
 56 43 l 1
 56 41 l 1
 57 41 l 1
 57 42 l 1
 58 42 l 1
 58 43 l 1
59 42 m 1
 58 42 l 1
 58 41 l 1
 60 41 l 1
 60 43 l 1
 59 43 l 1
 59 42 l 1
63 43 m 1
 61 43 l 1
 61 41 l 1
 63 41 l 1
 63 43 l 1
63 39 m 1
 61 39 l 1
 61 37 l 1
 63 37 l 1
 63 39 l 1
63 35 m 1
 61 35 l 1
 61 33 l 1
 63 33 l 1
 63 35 l 1
63 31 m 1
 61 31 l 1
 61 29 l 1
 63 29 l 1
 63 31 l 1
31 27 m 1
 29 27 l 1
 29 25 l 1
 31 25 l 1
 31 27 l 1
6 10 m 1
 4 10 l 1
 4 9 l 1
 5 9 l 1
 5 8 l 1
 7 8 l 1
 7 9 l 1
 6 9 l 1
 6 10 l 1
5 8 m 1
 4 8 l 1
 4 7 l 1
 5 7 l 1
 5 8 l 1
41 27 m 1
 39 27 l 1
 39 25 l 1
 41 25 l 1
 41 27 l 1
44 27 m 1
 42 27 l 1
 42 25 l 1
 43 25 l 1
 43 26 l 1
 44 26 l 1
 44 27 l 1
46 27 m 1
 45 27 l 1
 45 26 l 1
 44 26 l 1
 44 25 l 1
 46 25 l 1
 46 27 l 1
49 27 m 1
 47 27 l 1
 47 25 l 1
 49 25 l 1
 49 27 l 1
63 27 m 1
 61 27 l 1
 61 25 l 1
 63 25 l 1
 63 27 l 1
EndSplineSet
EndChar

StartChar: custom_2_7_0_8_6
Encoding: 28154 28154 8186
Width: 70
Flags: H
LayerCount: 2
Fore
SplineSet
23 43 m 1
 21 43 l 1
 21 41 l 1
 23 41 l 1
 23 43 l 1
26 43 m 1
 24 43 l 1
 24 41 l 1
 25 41 l 1
 25 42 l 1
 26 42 l 1
 26 43 l 1
27 42 m 1
 26 42 l 1
 26 41 l 1
 28 41 l 1
 28 43 l 1
 27 43 l 1
 27 42 l 1
31 43 m 1
 29 43 l 1
 29 41 l 1
 31 41 l 1
 31 43 l 1
31 39 m 1
 29 39 l 1
 29 37 l 1
 31 37 l 1
 31 39 l 1
31 35 m 1
 29 35 l 1
 29 33 l 1
 31 33 l 1
 31 35 l 1
36 37 m 1
 34 37 l 1
 34 35 l 1
 36 35 l 1
 36 37 l 1
31 31 m 1
 29 31 l 1
 29 29 l 1
 31 29 l 1
 31 31 l 1
36 33 m 1
 34 33 l 1
 34 31 l 1
 36 31 l 1
 36 33 l 1
41 43 m 1
 39 43 l 1
 39 41 l 1
 41 41 l 1
 41 43 l 1
44 43 m 1
 42 43 l 1
 42 41 l 1
 43 41 l 1
 43 42 l 1
 44 42 l 1
 44 43 l 1
46 43 m 1
 45 43 l 1
 45 42 l 1
 44 42 l 1
 44 41 l 1
 46 41 l 1
 46 43 l 1
49 43 m 1
 47 43 l 1
 47 41 l 1
 49 41 l 1
 49 43 l 1
49 39 m 1
 47 39 l 1
 47 37 l 1
 49 37 l 1
 49 39 l 1
41 35 m 1
 39 35 l 1
 39 33 l 1
 41 33 l 1
 41 35 l 1
43 35 m 1
 42 35 l 1
 42 33 l 1
 44 33 l 1
 44 34 l 1
 43 34 l 1
 43 35 l 1
41 31 m 1
 39 31 l 1
 39 29 l 1
 41 29 l 1
 41 31 l 1
46 35 m 1
 44 35 l 1
 44 34 l 1
 45 34 l 1
 45 33 l 1
 46 33 l 1
 46 35 l 1
49 35 m 1
 47 35 l 1
 47 33 l 1
 49 33 l 1
 49 35 l 1
55 43 m 1
 53 43 l 1
 53 41 l 1
 55 41 l 1
 55 43 l 1
58 43 m 1
 56 43 l 1
 56 41 l 1
 57 41 l 1
 57 42 l 1
 58 42 l 1
 58 43 l 1
59 42 m 1
 58 42 l 1
 58 41 l 1
 60 41 l 1
 60 43 l 1
 59 43 l 1
 59 42 l 1
63 43 m 1
 61 43 l 1
 61 41 l 1
 63 41 l 1
 63 43 l 1
63 39 m 1
 61 39 l 1
 61 37 l 1
 63 37 l 1
 63 39 l 1
63 35 m 1
 61 35 l 1
 61 33 l 1
 63 33 l 1
 63 35 l 1
63 31 m 1
 61 31 l 1
 61 29 l 1
 63 29 l 1
 63 31 l 1
31 27 m 1
 29 27 l 1
 29 25 l 1
 31 25 l 1
 31 27 l 1
7 10 m 1
 4 10 l 1
 4 9 l 1
 6 9 l 1
 6 8 l 1
 7 8 l 1
 7 10 l 1
6 8 m 1
 5 8 l 1
 5 7 l 1
 6 7 l 1
 6 8 l 1
41 27 m 1
 39 27 l 1
 39 25 l 1
 41 25 l 1
 41 27 l 1
44 27 m 1
 42 27 l 1
 42 25 l 1
 43 25 l 1
 43 26 l 1
 44 26 l 1
 44 27 l 1
46 27 m 1
 45 27 l 1
 45 26 l 1
 44 26 l 1
 44 25 l 1
 46 25 l 1
 46 27 l 1
49 27 m 1
 47 27 l 1
 47 25 l 1
 49 25 l 1
 49 27 l 1
63 27 m 1
 61 27 l 1
 61 25 l 1
 63 25 l 1
 63 27 l 1
EndSplineSet
EndChar

StartChar: custom_2_7_0_8_7
Encoding: 28155 28155 8187
Width: 70
Flags: H
LayerCount: 2
Fore
SplineSet
23 43 m 1
 21 43 l 1
 21 41 l 1
 23 41 l 1
 23 43 l 1
26 43 m 1
 24 43 l 1
 24 41 l 1
 25 41 l 1
 25 42 l 1
 26 42 l 1
 26 43 l 1
27 42 m 1
 26 42 l 1
 26 41 l 1
 28 41 l 1
 28 43 l 1
 27 43 l 1
 27 42 l 1
31 43 m 1
 29 43 l 1
 29 41 l 1
 31 41 l 1
 31 43 l 1
31 39 m 1
 29 39 l 1
 29 37 l 1
 31 37 l 1
 31 39 l 1
31 35 m 1
 29 35 l 1
 29 33 l 1
 31 33 l 1
 31 35 l 1
36 37 m 1
 34 37 l 1
 34 35 l 1
 36 35 l 1
 36 37 l 1
31 31 m 1
 29 31 l 1
 29 29 l 1
 31 29 l 1
 31 31 l 1
36 33 m 1
 34 33 l 1
 34 31 l 1
 36 31 l 1
 36 33 l 1
41 43 m 1
 39 43 l 1
 39 41 l 1
 41 41 l 1
 41 43 l 1
44 43 m 1
 42 43 l 1
 42 41 l 1
 43 41 l 1
 43 42 l 1
 44 42 l 1
 44 43 l 1
46 43 m 1
 45 43 l 1
 45 42 l 1
 44 42 l 1
 44 41 l 1
 46 41 l 1
 46 43 l 1
49 43 m 1
 47 43 l 1
 47 41 l 1
 49 41 l 1
 49 43 l 1
49 39 m 1
 47 39 l 1
 47 37 l 1
 49 37 l 1
 49 39 l 1
41 35 m 1
 39 35 l 1
 39 33 l 1
 41 33 l 1
 41 35 l 1
43 35 m 1
 42 35 l 1
 42 33 l 1
 44 33 l 1
 44 34 l 1
 43 34 l 1
 43 35 l 1
41 31 m 1
 39 31 l 1
 39 29 l 1
 41 29 l 1
 41 31 l 1
46 35 m 1
 44 35 l 1
 44 34 l 1
 45 34 l 1
 45 33 l 1
 46 33 l 1
 46 35 l 1
49 35 m 1
 47 35 l 1
 47 33 l 1
 49 33 l 1
 49 35 l 1
55 43 m 1
 53 43 l 1
 53 41 l 1
 55 41 l 1
 55 43 l 1
58 43 m 1
 56 43 l 1
 56 41 l 1
 57 41 l 1
 57 42 l 1
 58 42 l 1
 58 43 l 1
59 42 m 1
 58 42 l 1
 58 41 l 1
 60 41 l 1
 60 43 l 1
 59 43 l 1
 59 42 l 1
63 43 m 1
 61 43 l 1
 61 41 l 1
 63 41 l 1
 63 43 l 1
63 39 m 1
 61 39 l 1
 61 37 l 1
 63 37 l 1
 63 39 l 1
63 35 m 1
 61 35 l 1
 61 33 l 1
 63 33 l 1
 63 35 l 1
63 31 m 1
 61 31 l 1
 61 29 l 1
 63 29 l 1
 63 31 l 1
31 27 m 1
 29 27 l 1
 29 25 l 1
 31 25 l 1
 31 27 l 1
6 11 m 1
 5 11 l 1
 5 9 l 1
 6 9 l 1
 6 8 l 1
 7 8 l 1
 7 10 l 1
 6 10 l 1
 6 11 l 1
5 9 m 1
 4 9 l 1
 4 8 l 1
 5 8 l 1
 5 9 l 1
41 27 m 1
 39 27 l 1
 39 25 l 1
 41 25 l 1
 41 27 l 1
44 27 m 1
 42 27 l 1
 42 25 l 1
 43 25 l 1
 43 26 l 1
 44 26 l 1
 44 27 l 1
46 27 m 1
 45 27 l 1
 45 26 l 1
 44 26 l 1
 44 25 l 1
 46 25 l 1
 46 27 l 1
49 27 m 1
 47 27 l 1
 47 25 l 1
 49 25 l 1
 49 27 l 1
63 27 m 1
 61 27 l 1
 61 25 l 1
 63 25 l 1
 63 27 l 1
EndSplineSet
EndChar

StartChar: custom_2_7_0_8_8
Encoding: 28156 28156 8188
Width: 70
Flags: H
LayerCount: 2
Fore
SplineSet
23 43 m 1
 21 43 l 1
 21 41 l 1
 23 41 l 1
 23 43 l 1
26 43 m 1
 24 43 l 1
 24 41 l 1
 25 41 l 1
 25 42 l 1
 26 42 l 1
 26 43 l 1
27 42 m 1
 26 42 l 1
 26 41 l 1
 28 41 l 1
 28 43 l 1
 27 43 l 1
 27 42 l 1
31 43 m 1
 29 43 l 1
 29 41 l 1
 31 41 l 1
 31 43 l 1
31 39 m 1
 29 39 l 1
 29 37 l 1
 31 37 l 1
 31 39 l 1
31 35 m 1
 29 35 l 1
 29 33 l 1
 31 33 l 1
 31 35 l 1
36 37 m 1
 34 37 l 1
 34 35 l 1
 36 35 l 1
 36 37 l 1
31 31 m 1
 29 31 l 1
 29 29 l 1
 31 29 l 1
 31 31 l 1
36 33 m 1
 34 33 l 1
 34 31 l 1
 36 31 l 1
 36 33 l 1
41 43 m 1
 39 43 l 1
 39 41 l 1
 41 41 l 1
 41 43 l 1
44 43 m 1
 42 43 l 1
 42 41 l 1
 43 41 l 1
 43 42 l 1
 44 42 l 1
 44 43 l 1
46 43 m 1
 45 43 l 1
 45 42 l 1
 44 42 l 1
 44 41 l 1
 46 41 l 1
 46 43 l 1
49 43 m 1
 47 43 l 1
 47 41 l 1
 49 41 l 1
 49 43 l 1
49 39 m 1
 47 39 l 1
 47 37 l 1
 49 37 l 1
 49 39 l 1
41 35 m 1
 39 35 l 1
 39 33 l 1
 41 33 l 1
 41 35 l 1
43 35 m 1
 42 35 l 1
 42 33 l 1
 44 33 l 1
 44 34 l 1
 43 34 l 1
 43 35 l 1
41 31 m 1
 39 31 l 1
 39 29 l 1
 41 29 l 1
 41 31 l 1
46 35 m 1
 44 35 l 1
 44 34 l 1
 45 34 l 1
 45 33 l 1
 46 33 l 1
 46 35 l 1
49 35 m 1
 47 35 l 1
 47 33 l 1
 49 33 l 1
 49 35 l 1
55 43 m 1
 53 43 l 1
 53 41 l 1
 55 41 l 1
 55 43 l 1
58 43 m 1
 56 43 l 1
 56 41 l 1
 57 41 l 1
 57 42 l 1
 58 42 l 1
 58 43 l 1
59 42 m 1
 58 42 l 1
 58 41 l 1
 60 41 l 1
 60 43 l 1
 59 43 l 1
 59 42 l 1
63 43 m 1
 61 43 l 1
 61 41 l 1
 63 41 l 1
 63 43 l 1
63 39 m 1
 61 39 l 1
 61 37 l 1
 63 37 l 1
 63 39 l 1
63 35 m 1
 61 35 l 1
 61 33 l 1
 63 33 l 1
 63 35 l 1
63 31 m 1
 61 31 l 1
 61 29 l 1
 63 29 l 1
 63 31 l 1
31 27 m 1
 29 27 l 1
 29 25 l 1
 31 25 l 1
 31 27 l 1
7 11 m 1
 5 11 l 1
 5 10 l 1
 6 10 l 1
 6 8 l 1
 7 8 l 1
 7 11 l 1
5 10 m 1
 4 10 l 1
 4 9 l 1
 5 9 l 1
 5 10 l 1
41 27 m 1
 39 27 l 1
 39 25 l 1
 41 25 l 1
 41 27 l 1
44 27 m 1
 42 27 l 1
 42 25 l 1
 43 25 l 1
 43 26 l 1
 44 26 l 1
 44 27 l 1
46 27 m 1
 45 27 l 1
 45 26 l 1
 44 26 l 1
 44 25 l 1
 46 25 l 1
 46 27 l 1
49 27 m 1
 47 27 l 1
 47 25 l 1
 49 25 l 1
 49 27 l 1
63 27 m 1
 61 27 l 1
 61 25 l 1
 63 25 l 1
 63 27 l 1
EndSplineSet
EndChar

StartChar: custom_2_7_0_8_9
Encoding: 28157 28157 8189
Width: 70
Flags: H
LayerCount: 2
Fore
SplineSet
23 43 m 1
 21 43 l 1
 21 41 l 1
 23 41 l 1
 23 43 l 1
26 43 m 1
 24 43 l 1
 24 41 l 1
 25 41 l 1
 25 42 l 1
 26 42 l 1
 26 43 l 1
27 42 m 1
 26 42 l 1
 26 41 l 1
 28 41 l 1
 28 43 l 1
 27 43 l 1
 27 42 l 1
31 43 m 1
 29 43 l 1
 29 41 l 1
 31 41 l 1
 31 43 l 1
31 39 m 1
 29 39 l 1
 29 37 l 1
 31 37 l 1
 31 39 l 1
31 35 m 1
 29 35 l 1
 29 33 l 1
 31 33 l 1
 31 35 l 1
36 37 m 1
 34 37 l 1
 34 35 l 1
 36 35 l 1
 36 37 l 1
31 31 m 1
 29 31 l 1
 29 29 l 1
 31 29 l 1
 31 31 l 1
36 33 m 1
 34 33 l 1
 34 31 l 1
 36 31 l 1
 36 33 l 1
41 43 m 1
 39 43 l 1
 39 41 l 1
 41 41 l 1
 41 43 l 1
44 43 m 1
 42 43 l 1
 42 41 l 1
 43 41 l 1
 43 42 l 1
 44 42 l 1
 44 43 l 1
46 43 m 1
 45 43 l 1
 45 42 l 1
 44 42 l 1
 44 41 l 1
 46 41 l 1
 46 43 l 1
49 43 m 1
 47 43 l 1
 47 41 l 1
 49 41 l 1
 49 43 l 1
49 39 m 1
 47 39 l 1
 47 37 l 1
 49 37 l 1
 49 39 l 1
41 35 m 1
 39 35 l 1
 39 33 l 1
 41 33 l 1
 41 35 l 1
43 35 m 1
 42 35 l 1
 42 33 l 1
 44 33 l 1
 44 34 l 1
 43 34 l 1
 43 35 l 1
41 31 m 1
 39 31 l 1
 39 29 l 1
 41 29 l 1
 41 31 l 1
46 35 m 1
 44 35 l 1
 44 34 l 1
 45 34 l 1
 45 33 l 1
 46 33 l 1
 46 35 l 1
49 35 m 1
 47 35 l 1
 47 33 l 1
 49 33 l 1
 49 35 l 1
55 43 m 1
 53 43 l 1
 53 41 l 1
 55 41 l 1
 55 43 l 1
58 43 m 1
 56 43 l 1
 56 41 l 1
 57 41 l 1
 57 42 l 1
 58 42 l 1
 58 43 l 1
59 42 m 1
 58 42 l 1
 58 41 l 1
 60 41 l 1
 60 43 l 1
 59 43 l 1
 59 42 l 1
63 43 m 1
 61 43 l 1
 61 41 l 1
 63 41 l 1
 63 43 l 1
63 39 m 1
 61 39 l 1
 61 37 l 1
 63 37 l 1
 63 39 l 1
63 35 m 1
 61 35 l 1
 61 33 l 1
 63 33 l 1
 63 35 l 1
63 31 m 1
 61 31 l 1
 61 29 l 1
 63 29 l 1
 63 31 l 1
31 27 m 1
 29 27 l 1
 29 25 l 1
 31 25 l 1
 31 27 l 1
7 11 m 1
 5 11 l 1
 5 10 l 1
 6 10 l 1
 6 9 l 1
 8 9 l 1
 8 10 l 1
 7 10 l 1
 7 11 l 1
6 9 m 1
 5 9 l 1
 5 8 l 1
 6 8 l 1
 6 9 l 1
41 27 m 1
 39 27 l 1
 39 25 l 1
 41 25 l 1
 41 27 l 1
44 27 m 1
 42 27 l 1
 42 25 l 1
 43 25 l 1
 43 26 l 1
 44 26 l 1
 44 27 l 1
46 27 m 1
 45 27 l 1
 45 26 l 1
 44 26 l 1
 44 25 l 1
 46 25 l 1
 46 27 l 1
49 27 m 1
 47 27 l 1
 47 25 l 1
 49 25 l 1
 49 27 l 1
63 27 m 1
 61 27 l 1
 61 25 l 1
 63 25 l 1
 63 27 l 1
EndSplineSet
EndChar

StartChar: custom_2_7_0_9_0
Encoding: 28158 28158 8190
Width: 70
Flags: H
LayerCount: 2
Fore
SplineSet
23 43 m 1
 21 43 l 1
 21 41 l 1
 23 41 l 1
 23 43 l 1
26 43 m 1
 24 43 l 1
 24 41 l 1
 25 41 l 1
 25 42 l 1
 26 42 l 1
 26 43 l 1
27 42 m 1
 26 42 l 1
 26 41 l 1
 28 41 l 1
 28 43 l 1
 27 43 l 1
 27 42 l 1
31 43 m 1
 29 43 l 1
 29 41 l 1
 31 41 l 1
 31 43 l 1
31 39 m 1
 29 39 l 1
 29 37 l 1
 31 37 l 1
 31 39 l 1
31 35 m 1
 29 35 l 1
 29 33 l 1
 31 33 l 1
 31 35 l 1
36 37 m 1
 34 37 l 1
 34 35 l 1
 36 35 l 1
 36 37 l 1
31 31 m 1
 29 31 l 1
 29 29 l 1
 31 29 l 1
 31 31 l 1
36 33 m 1
 34 33 l 1
 34 31 l 1
 36 31 l 1
 36 33 l 1
41 43 m 1
 39 43 l 1
 39 41 l 1
 41 41 l 1
 41 43 l 1
44 43 m 1
 42 43 l 1
 42 41 l 1
 43 41 l 1
 43 42 l 1
 44 42 l 1
 44 43 l 1
46 43 m 1
 45 43 l 1
 45 42 l 1
 44 42 l 1
 44 41 l 1
 46 41 l 1
 46 43 l 1
49 43 m 1
 47 43 l 1
 47 41 l 1
 49 41 l 1
 49 43 l 1
49 39 m 1
 47 39 l 1
 47 37 l 1
 49 37 l 1
 49 39 l 1
41 35 m 1
 39 35 l 1
 39 33 l 1
 41 33 l 1
 41 35 l 1
43 35 m 1
 42 35 l 1
 42 33 l 1
 44 33 l 1
 44 34 l 1
 43 34 l 1
 43 35 l 1
41 31 m 1
 39 31 l 1
 39 29 l 1
 41 29 l 1
 41 31 l 1
46 35 m 1
 44 35 l 1
 44 34 l 1
 45 34 l 1
 45 33 l 1
 46 33 l 1
 46 35 l 1
49 35 m 1
 47 35 l 1
 47 33 l 1
 49 33 l 1
 49 35 l 1
55 43 m 1
 53 43 l 1
 53 41 l 1
 55 41 l 1
 55 43 l 1
58 43 m 1
 56 43 l 1
 56 41 l 1
 57 41 l 1
 57 42 l 1
 58 42 l 1
 58 43 l 1
59 42 m 1
 58 42 l 1
 58 41 l 1
 60 41 l 1
 60 43 l 1
 59 43 l 1
 59 42 l 1
63 43 m 1
 61 43 l 1
 61 41 l 1
 63 41 l 1
 63 43 l 1
63 39 m 1
 61 39 l 1
 61 37 l 1
 63 37 l 1
 63 39 l 1
63 35 m 1
 61 35 l 1
 61 33 l 1
 63 33 l 1
 63 35 l 1
63 31 m 1
 61 31 l 1
 61 29 l 1
 63 29 l 1
 63 31 l 1
31 27 m 1
 29 27 l 1
 29 25 l 1
 31 25 l 1
 31 27 l 1
8 11 m 1
 5 11 l 1
 5 10 l 1
 7 10 l 1
 7 9 l 1
 8 9 l 1
 8 11 l 1
7 9 m 1
 6 9 l 1
 6 8 l 1
 7 8 l 1
 7 9 l 1
41 27 m 1
 39 27 l 1
 39 25 l 1
 41 25 l 1
 41 27 l 1
44 27 m 1
 42 27 l 1
 42 25 l 1
 43 25 l 1
 43 26 l 1
 44 26 l 1
 44 27 l 1
46 27 m 1
 45 27 l 1
 45 26 l 1
 44 26 l 1
 44 25 l 1
 46 25 l 1
 46 27 l 1
49 27 m 1
 47 27 l 1
 47 25 l 1
 49 25 l 1
 49 27 l 1
63 27 m 1
 61 27 l 1
 61 25 l 1
 63 25 l 1
 63 27 l 1
EndSplineSet
EndChar

StartChar: custom_2_7_0_9_1
Encoding: 28159 28159 8191
Width: 70
Flags: H
LayerCount: 2
Fore
SplineSet
23 43 m 1
 21 43 l 1
 21 41 l 1
 23 41 l 1
 23 43 l 1
26 43 m 1
 24 43 l 1
 24 41 l 1
 25 41 l 1
 25 42 l 1
 26 42 l 1
 26 43 l 1
27 42 m 1
 26 42 l 1
 26 41 l 1
 28 41 l 1
 28 43 l 1
 27 43 l 1
 27 42 l 1
31 43 m 1
 29 43 l 1
 29 41 l 1
 31 41 l 1
 31 43 l 1
31 39 m 1
 29 39 l 1
 29 37 l 1
 31 37 l 1
 31 39 l 1
31 35 m 1
 29 35 l 1
 29 33 l 1
 31 33 l 1
 31 35 l 1
36 37 m 1
 34 37 l 1
 34 35 l 1
 36 35 l 1
 36 37 l 1
31 31 m 1
 29 31 l 1
 29 29 l 1
 31 29 l 1
 31 31 l 1
36 33 m 1
 34 33 l 1
 34 31 l 1
 36 31 l 1
 36 33 l 1
41 43 m 1
 39 43 l 1
 39 41 l 1
 41 41 l 1
 41 43 l 1
44 43 m 1
 42 43 l 1
 42 41 l 1
 43 41 l 1
 43 42 l 1
 44 42 l 1
 44 43 l 1
46 43 m 1
 45 43 l 1
 45 42 l 1
 44 42 l 1
 44 41 l 1
 46 41 l 1
 46 43 l 1
49 43 m 1
 47 43 l 1
 47 41 l 1
 49 41 l 1
 49 43 l 1
49 39 m 1
 47 39 l 1
 47 37 l 1
 49 37 l 1
 49 39 l 1
41 35 m 1
 39 35 l 1
 39 33 l 1
 41 33 l 1
 41 35 l 1
43 35 m 1
 42 35 l 1
 42 33 l 1
 44 33 l 1
 44 34 l 1
 43 34 l 1
 43 35 l 1
41 31 m 1
 39 31 l 1
 39 29 l 1
 41 29 l 1
 41 31 l 1
46 35 m 1
 44 35 l 1
 44 34 l 1
 45 34 l 1
 45 33 l 1
 46 33 l 1
 46 35 l 1
49 35 m 1
 47 35 l 1
 47 33 l 1
 49 33 l 1
 49 35 l 1
55 43 m 1
 53 43 l 1
 53 41 l 1
 55 41 l 1
 55 43 l 1
58 43 m 1
 56 43 l 1
 56 41 l 1
 57 41 l 1
 57 42 l 1
 58 42 l 1
 58 43 l 1
59 42 m 1
 58 42 l 1
 58 41 l 1
 60 41 l 1
 60 43 l 1
 59 43 l 1
 59 42 l 1
63 43 m 1
 61 43 l 1
 61 41 l 1
 63 41 l 1
 63 43 l 1
63 39 m 1
 61 39 l 1
 61 37 l 1
 63 37 l 1
 63 39 l 1
63 35 m 1
 61 35 l 1
 61 33 l 1
 63 33 l 1
 63 35 l 1
63 31 m 1
 61 31 l 1
 61 29 l 1
 63 29 l 1
 63 31 l 1
31 27 m 1
 29 27 l 1
 29 25 l 1
 31 25 l 1
 31 27 l 1
7 12 m 1
 6 12 l 1
 6 10 l 1
 7 10 l 1
 7 9 l 1
 8 9 l 1
 8 11 l 1
 7 11 l 1
 7 12 l 1
6 10 m 1
 5 10 l 1
 5 9 l 1
 6 9 l 1
 6 10 l 1
41 27 m 1
 39 27 l 1
 39 25 l 1
 41 25 l 1
 41 27 l 1
44 27 m 1
 42 27 l 1
 42 25 l 1
 43 25 l 1
 43 26 l 1
 44 26 l 1
 44 27 l 1
46 27 m 1
 45 27 l 1
 45 26 l 1
 44 26 l 1
 44 25 l 1
 46 25 l 1
 46 27 l 1
49 27 m 1
 47 27 l 1
 47 25 l 1
 49 25 l 1
 49 27 l 1
63 27 m 1
 61 27 l 1
 61 25 l 1
 63 25 l 1
 63 27 l 1
EndSplineSet
EndChar

StartChar: custom_2_7_0_9_2
Encoding: 28160 28160 8192
Width: 70
Flags: H
LayerCount: 2
Fore
SplineSet
23 43 m 1
 21 43 l 1
 21 41 l 1
 23 41 l 1
 23 43 l 1
26 43 m 1
 24 43 l 1
 24 41 l 1
 25 41 l 1
 25 42 l 1
 26 42 l 1
 26 43 l 1
27 42 m 1
 26 42 l 1
 26 41 l 1
 28 41 l 1
 28 43 l 1
 27 43 l 1
 27 42 l 1
31 43 m 1
 29 43 l 1
 29 41 l 1
 31 41 l 1
 31 43 l 1
31 39 m 1
 29 39 l 1
 29 37 l 1
 31 37 l 1
 31 39 l 1
31 35 m 1
 29 35 l 1
 29 33 l 1
 31 33 l 1
 31 35 l 1
36 37 m 1
 34 37 l 1
 34 35 l 1
 36 35 l 1
 36 37 l 1
31 31 m 1
 29 31 l 1
 29 29 l 1
 31 29 l 1
 31 31 l 1
36 33 m 1
 34 33 l 1
 34 31 l 1
 36 31 l 1
 36 33 l 1
41 43 m 1
 39 43 l 1
 39 41 l 1
 41 41 l 1
 41 43 l 1
44 43 m 1
 42 43 l 1
 42 41 l 1
 43 41 l 1
 43 42 l 1
 44 42 l 1
 44 43 l 1
46 43 m 1
 45 43 l 1
 45 42 l 1
 44 42 l 1
 44 41 l 1
 46 41 l 1
 46 43 l 1
49 43 m 1
 47 43 l 1
 47 41 l 1
 49 41 l 1
 49 43 l 1
49 39 m 1
 47 39 l 1
 47 37 l 1
 49 37 l 1
 49 39 l 1
41 35 m 1
 39 35 l 1
 39 33 l 1
 41 33 l 1
 41 35 l 1
43 35 m 1
 42 35 l 1
 42 33 l 1
 44 33 l 1
 44 34 l 1
 43 34 l 1
 43 35 l 1
41 31 m 1
 39 31 l 1
 39 29 l 1
 41 29 l 1
 41 31 l 1
46 35 m 1
 44 35 l 1
 44 34 l 1
 45 34 l 1
 45 33 l 1
 46 33 l 1
 46 35 l 1
49 35 m 1
 47 35 l 1
 47 33 l 1
 49 33 l 1
 49 35 l 1
55 43 m 1
 53 43 l 1
 53 41 l 1
 55 41 l 1
 55 43 l 1
58 43 m 1
 56 43 l 1
 56 41 l 1
 57 41 l 1
 57 42 l 1
 58 42 l 1
 58 43 l 1
59 42 m 1
 58 42 l 1
 58 41 l 1
 60 41 l 1
 60 43 l 1
 59 43 l 1
 59 42 l 1
63 43 m 1
 61 43 l 1
 61 41 l 1
 63 41 l 1
 63 43 l 1
63 39 m 1
 61 39 l 1
 61 37 l 1
 63 37 l 1
 63 39 l 1
63 35 m 1
 61 35 l 1
 61 33 l 1
 63 33 l 1
 63 35 l 1
63 31 m 1
 61 31 l 1
 61 29 l 1
 63 29 l 1
 63 31 l 1
31 27 m 1
 29 27 l 1
 29 25 l 1
 31 25 l 1
 31 27 l 1
8 12 m 1
 6 12 l 1
 6 11 l 1
 7 11 l 1
 7 9 l 1
 8 9 l 1
 8 12 l 1
6 11 m 1
 5 11 l 1
 5 10 l 1
 6 10 l 1
 6 11 l 1
41 27 m 1
 39 27 l 1
 39 25 l 1
 41 25 l 1
 41 27 l 1
44 27 m 1
 42 27 l 1
 42 25 l 1
 43 25 l 1
 43 26 l 1
 44 26 l 1
 44 27 l 1
46 27 m 1
 45 27 l 1
 45 26 l 1
 44 26 l 1
 44 25 l 1
 46 25 l 1
 46 27 l 1
49 27 m 1
 47 27 l 1
 47 25 l 1
 49 25 l 1
 49 27 l 1
63 27 m 1
 61 27 l 1
 61 25 l 1
 63 25 l 1
 63 27 l 1
EndSplineSet
EndChar

StartChar: custom_2_7_0_9_3
Encoding: 28161 28161 8193
Width: 70
Flags: H
LayerCount: 2
Fore
SplineSet
23 43 m 1
 21 43 l 1
 21 41 l 1
 23 41 l 1
 23 43 l 1
26 43 m 1
 24 43 l 1
 24 41 l 1
 25 41 l 1
 25 42 l 1
 26 42 l 1
 26 43 l 1
27 42 m 1
 26 42 l 1
 26 41 l 1
 28 41 l 1
 28 43 l 1
 27 43 l 1
 27 42 l 1
31 43 m 1
 29 43 l 1
 29 41 l 1
 31 41 l 1
 31 43 l 1
31 39 m 1
 29 39 l 1
 29 37 l 1
 31 37 l 1
 31 39 l 1
31 35 m 1
 29 35 l 1
 29 33 l 1
 31 33 l 1
 31 35 l 1
36 37 m 1
 34 37 l 1
 34 35 l 1
 36 35 l 1
 36 37 l 1
31 31 m 1
 29 31 l 1
 29 29 l 1
 31 29 l 1
 31 31 l 1
36 33 m 1
 34 33 l 1
 34 31 l 1
 36 31 l 1
 36 33 l 1
41 43 m 1
 39 43 l 1
 39 41 l 1
 41 41 l 1
 41 43 l 1
44 43 m 1
 42 43 l 1
 42 41 l 1
 43 41 l 1
 43 42 l 1
 44 42 l 1
 44 43 l 1
46 43 m 1
 45 43 l 1
 45 42 l 1
 44 42 l 1
 44 41 l 1
 46 41 l 1
 46 43 l 1
49 43 m 1
 47 43 l 1
 47 41 l 1
 49 41 l 1
 49 43 l 1
49 39 m 1
 47 39 l 1
 47 37 l 1
 49 37 l 1
 49 39 l 1
41 35 m 1
 39 35 l 1
 39 33 l 1
 41 33 l 1
 41 35 l 1
43 35 m 1
 42 35 l 1
 42 33 l 1
 44 33 l 1
 44 34 l 1
 43 34 l 1
 43 35 l 1
41 31 m 1
 39 31 l 1
 39 29 l 1
 41 29 l 1
 41 31 l 1
46 35 m 1
 44 35 l 1
 44 34 l 1
 45 34 l 1
 45 33 l 1
 46 33 l 1
 46 35 l 1
49 35 m 1
 47 35 l 1
 47 33 l 1
 49 33 l 1
 49 35 l 1
55 43 m 1
 53 43 l 1
 53 41 l 1
 55 41 l 1
 55 43 l 1
58 43 m 1
 56 43 l 1
 56 41 l 1
 57 41 l 1
 57 42 l 1
 58 42 l 1
 58 43 l 1
59 42 m 1
 58 42 l 1
 58 41 l 1
 60 41 l 1
 60 43 l 1
 59 43 l 1
 59 42 l 1
63 43 m 1
 61 43 l 1
 61 41 l 1
 63 41 l 1
 63 43 l 1
63 39 m 1
 61 39 l 1
 61 37 l 1
 63 37 l 1
 63 39 l 1
63 35 m 1
 61 35 l 1
 61 33 l 1
 63 33 l 1
 63 35 l 1
63 31 m 1
 61 31 l 1
 61 29 l 1
 63 29 l 1
 63 31 l 1
31 27 m 1
 29 27 l 1
 29 25 l 1
 31 25 l 1
 31 27 l 1
8 12 m 1
 6 12 l 1
 6 11 l 1
 7 11 l 1
 7 10 l 1
 9 10 l 1
 9 11 l 1
 8 11 l 1
 8 12 l 1
7 10 m 1
 6 10 l 1
 6 9 l 1
 7 9 l 1
 7 10 l 1
41 27 m 1
 39 27 l 1
 39 25 l 1
 41 25 l 1
 41 27 l 1
44 27 m 1
 42 27 l 1
 42 25 l 1
 43 25 l 1
 43 26 l 1
 44 26 l 1
 44 27 l 1
46 27 m 1
 45 27 l 1
 45 26 l 1
 44 26 l 1
 44 25 l 1
 46 25 l 1
 46 27 l 1
49 27 m 1
 47 27 l 1
 47 25 l 1
 49 25 l 1
 49 27 l 1
63 27 m 1
 61 27 l 1
 61 25 l 1
 63 25 l 1
 63 27 l 1
EndSplineSet
EndChar

